/* XPM */
static char *result[] = {
/* columns rows colors chars-per-pixel */
"60 60 224 2 ",
"   c #684301",
".  c #6E4801",
"X  c #744D02",
"o  c #795102",
"O  c #7E5502",
"+  c #7F5602",
"@  c #845B03",
"#  c #895E03",
"$  c #895F03",
"%  c #8E6303",
"&  c #8E6404",
"*  c #936704",
"=  c #936804",
"-  c #996C04",
";  c #986C05",
":  c #9D7005",
">  c #9E7105",
",  c #8D6714",
"<  c #9C7515",
"1  c #A27506",
"2  c #A47505",
"3  c #A77807",
"4  c #A77907",
"5  c #A97905",
"6  c #A87906",
"7  c #AA7E06",
"8  c #AD7D06",
"9  c #AC7D07",
"0  c #A57D0B",
"q  c #A77D15",
"w  c #AE8405",
"e  c #B58706",
"r  c #B88B04",
"t  c #B98C05",
"y  c #BE8D07",
"u  c #B28108",
"i  c #B68509",
"p  c #BA890A",
"a  c #BE8F09",
"s  c #BD9006",
"d  c #AB8117",
"f  c #A98216",
"g  c #B48919",
"h  c #BF9110",
"j  c #BE9410",
"k  c #A58126",
"l  c #A7862F",
"z  c #BE9E3F",
"x  c #C59603",
"c  c #C59A06",
"v  c #C99F05",
"b  c #C29408",
"n  c #C69C0E",
"m  c #C49917",
"M  c #C79E15",
"N  c #CEA204",
"B  c #CCA00B",
"V  c #CAA10D",
"C  c #CFA40C",
"Z  c #D3A503",
"A  c #D7A702",
"S  c #D1A404",
"D  c #D0A604",
"F  c #D5A903",
"G  c #DAAB02",
"H  c #DCAA01",
"J  c #D8AD03",
"K  c #DFAE01",
"L  c #DCAF02",
"P  c #D4A70B",
"I  c #D0A40C",
"U  c #D3A70C",
"Y  c #D8AA0A",
"T  c #D8AF09",
"R  c #DFB302",
"E  c #DAB209",
"W  c #CBA414",
"Q  c #CDA914",
"!  c #CCA61C",
"~  c #CDAA1A",
"^  c #D1A712",
"/  c #D5A912",
"(  c #D7AD12",
")  c #D1A91B",
"_  c #D6B319",
"`  c #E1B201",
"'  c #E4B501",
"]  c #E4B601",
"[  c #E6BA01",
"{  c #E0BA06",
"}  c #E6BB06",
"|  c #E6BD07",
" . c #E9BD01",
".. c #EABF04",
"X. c #E0B60A",
"o. c #E0BB16",
"O. c #E4BE14",
"+. c #CDA823",
"@. c #D6AE25",
"#. c #DDBF2B",
"$. c #D5B235",
"%. c #DAB534",
"&. c #D8B93B",
"*. c #EBC001",
"=. c #EEC301",
"-. c #E9C007",
";. c #EBC307",
":. c #EFC704",
">. c #EEC607",
",. c #E7C00E",
"<. c #E9C30E",
"1. c #ECC60E",
"2. c #EFCA08",
"3. c #EFCA0A",
"4. c #F0C601",
"5. c #F2CA02",
"6. c #F3CC06",
"7. c #F4CD04",
"8. c #F0C909",
"9. c #F1CD0A",
"0. c #F3CF0C",
"q. c #F2CF0E",
"w. c #F5D105",
"e. c #F7D406",
"r. c #F3D00B",
"t. c #F4D008",
"y. c #F5D20C",
"u. c #F5D10E",
"i. c #F4D30F",
"p. c #F7D60D",
"a. c #F8D70A",
"s. c #F9D90E",
"d. c #E7C313",
"f. c #E2C014",
"g. c #E7C214",
"h. c #EAC617",
"j. c #EBC915",
"k. c #E7C419",
"l. c #E8C61E",
"z. c #ECCD1F",
"x. c #F0CF14",
"c. c #F1CF18",
"v. c #F3D212",
"b. c #F5D511",
"n. c #F5D513",
"m. c #F7D713",
"M. c #F5D817",
"N. c #F9DC12",
"B. c #F9DA14",
"V. c #FADE16",
"C. c #F1D218",
"Z. c #F4D218",
"A. c #F6D518",
"S. c #F4D41E",
"D. c #F6D91D",
"F. c #F9DB1D",
"G. c #FBDF1C",
"H. c #FADE1F",
"J. c #EBCD24",
"K. c #F2D423",
"L. c #F0D227",
"P. c #F2D425",
"I. c #F6DA24",
"U. c #F7DC2A",
"Y. c #F1D82F",
"T. c #F7DE2E",
"R. c #FBE123",
"E. c #FAE02B",
"W. c #FCE229",
"Q. c #FCE32F",
"!. c #FCE42D",
"~. c #FCE42E",
"^. c #F8E133",
"/. c #FDE732",
"(. c #F8E337",
"). c #FDE634",
"_. c #FDE936",
"`. c #F8E139",
"'. c #FDE838",
"]. c #FEEB3D",
"[. c #C9AC4A",
"{. c #DEBE46",
"}. c #E7CE5C",
"|. c #FDE840",
" X c #FEED41",
".X c #F3E14C",
"XX c #FEEF4D",
"oX c #FFF159",
"OX c #DEC66F",
"+X c #DFCA71",
"@X c #E0C96C",
"#X c #E2CA79",
"$X c #FFF365",
"%X c #FFF571",
"&X c #FEF47E",
"*X c #C1AE84",
"=X c #CFBB80",
"-X c #DACA9E",
";X c #FFF780",
":X c #FFF782",
">X c #FFF98E",
",X c #FFFA9D",
"<X c #D9C9A1",
"1X c #E6DAAD",
"2X c #FFFBA7",
"3X c #FFFCAB",
"4X c #FFFCB1",
"5X c #FFFDB5",
"6X c #E6DEC1",
"7X c #EEE5C6",
"8X c #EFE8CF",
"9X c #F3ECCA",
"0X c #FFFEC0",
"qX c #FFFDC7",
"wX c #FFFCCB",
"eX c #FFFECA",
"rX c #FFFFD4",
"tX c #F7F3DB",
"yX c #FFFEDB",
"uX c #FFFFDD",
"iX c #EFEFE0",
"pX c #F6F6E7",
"aX c #FFFFEE",
"sX c None",
/* pixels */
"sXsXsXsXsXsXsXsXsXsXsXsXsXsXsXsXsXsXsXsXsXsXsXsXsXsXsXsXsXsXsXsXsXsXsXsXsXsXsXsXsXsXsXsXsXsXsXsXsXsXsXsXsXsXsXsXsXsXsXsX",
"sXsXsXsXsXsXsXsXsXsXsXsXsXsXsXsXsXsXsXsXsXsXsXsXsXsXsXsXsXsXsXsXsXsXsXsXsXsXsXsXsXsXsXsXsXsXsXsXsXsXsXsXsXsXsXsXsXsXsXsX",
"sXsXsXsXsXsXsXsXsXsXsXsXsXsXsXsXsXsXsXsXsXsXsXsXsXsXsXsXsXsXsXsXsXsXsXsXsXsXsXsXsXsXsXsXsXsXsXsXsXsXsXsXsXsXsXsXsXsXsXsX",
"sXsXsXsXsXsXsXsXsXsXsXsXsXsXsXsXsXsXsXsXsXsXsXsXsXsXsXsXsXsXsXsXsXsXsXsXsXsXsXsXsXsXsXsXsXsXsXsXsXsXsXsXsXsXsXsXsXsXsXsX",
"sXsXsXsXsXsXsXsXsXsXsXsXsXsXsXsXsXsXsXsXsXsXsXsXsXsXsXsXsXsXsXsXsXsXsXsXsXsXsXsXsXsXsXsXsXsXsXsXsXsXsXsXsXsXsXsXsXsXsXsX",
"sXsXsXsXsXsXsXsXsXsXsXsXsXsXsXsXsXsXsXsXsXsXsXsXsXsXsXsXsXsXsXsXsXsXsXsXsXsXsXsXsXsXsXsXsXsXsXsXsXsXsXsXsXsXsXsXsXsXsXsX",
"sXsXsXsXsXsXsXsXsXsXsXsXsXsXsXsXsXsXsXsXsXsXsXsXsXsXsXsXsXsXsXsXsXsXsXsXsXsXsXsXsXsXsXsXsXsXsXsXsXsXsXsXsXsXsXsXsXsXsXsX",
"sXsXsXsXsXsXsXsXsXsXsXsXsXsXsXsXsXsXsXsXsXsXsXsXsXsXsXsXsXsXsXsXsXsXsXsXsXsXsXsXsXsXsXsXsXsXsXsXsXsXsXsXsXsXsXsXsXsXsXsX",
"sXsXsXsXsXsXsXsXsXsXsXsXsXsXsXsXsXsXsXsXsXsXsXsXsXsXsXsXsXsXsXsXsXsXsXsXsXsXsXsXsXsXsXsXsXsXsXsXsXsXsXsXsXsXsXsXsXsXsXsX",
"sXsXsXsXsXsXsXsXsXsXsXsXsXsXsXsXsXsXsXsXsXsXsXsXsXsXsXsXsXsXsXsXsXsXsXsXsXsXsXsXsXsXsXsXsXsXsXsXsXsXsXsXsXsXsXsXsXsXsXsX",
"sXsXsXsXsXsXsXsXsXsXsXsXsXsXsXsXsXsXsXsXsXsXaX{.] >.5.e.a.N.s.a.a.a.s.v.wXsXsXsXsXsXsXsXsXsXsXsXsXsXsXsXsXsXsXsXsXsXsXsX",
"sXsXsXsXsXsXsXsXsXsXsXsXsXsXsXsXsXsXsXsX@.A A Z A A A H A Y `. X'.'.].).).].!.sXsXsXsXsXsXsXsXsXsXsXsXsXsXsXsXsXsXsXsXsX",
"sXsXsXsXsXsXsXsXsXsXsXsXsXsXsXsXsXsXOXA A H A A H A G L L J R L h.XX%X%X%X%X%X$XoXsXsXsXsXsXsXsXsXsXsXsXsXsXsXsXsXsXsXsX",
"sXsXsXsXsXsXsXsXsXsXsXsXsXsXsXsXsX%.Z A H H H H H K K ] ] ` ` K ` K  X0X5X,X,X>X;X%XsXsXsXsXsXsXsXsXsXsXsXsXsXsXsXsXsXsX",
"sXsXsXsXsXsXsXsXsXsXsXsXsXsXsXsXH Z A H H H ` ` K ] ` ` ] ] ] ] ] X.X.oX4XrXeX0X5X3X3XsXsXsXsXsXsXsXsXsXsXsXsXsXsXsXsXsX",
"sXsXsXsXsXsXsXsXsXsXsXsXsXsXsX@XZ H H H H K _./.L.x b I 5.[ [ | [ ,.[ ,.XXuXuXrXeXeX0X5XsXsXsXsXsXsXsXsXsXsXsXsXsXsXsXsX",
"sXsXsXsXsXsXsXsXsXsXsXsXsXsX9XZ H H H K V.Y.b H H ` [ ] [ ` A H -.-. .*.|  XuXuXuXrXrXrX5XsXsXsXsXsXsXsXsXsXsXsXsXsXsXsX",
"sXsXsXsXsXsXsXsXsXsXsXsXsXsXZ H H K ' V.y A H ]  . .*.=.*.=. .] N  .1.-.,.|  XuXuXrXrXuXrXyXsXsXsXsXsXsXsXsXsXsXsXsXsXsX",
"sXsXsXsXsXsXsXsXsXsXsXsXsX$.H H ` ] V.a H ] ]  .*. . .=.4.4.=. .[ A =.1.g.<. XrXrXrXrXeX0X5XsXsXsXsXsXsXsXsXsXsXsXsXsXsX",
"sXsXsXsXsXsXsXsXsXsXsXsXsXH K ] ] e.i H ] [ *.=.a ; # $ - B 4.4.4.=.` 8.8.1.1.).eX0X0X5X3X3XqXsXsXsXsXsXsXsXsXsXsXsXsXsX",
"sXsXsXsXsXsXsXsXsXsXsXsXP K ] ] *.6 H [ *.4.=.4.p X   = 5 U 4.4.4.5.=.H 8.8.7.m.&X3X3X,X3X;X;XsXsXsXsXsXsXsXsXsXsXsXsXsX",
"sXsXsXsXsXsXsXsXsXsXsXsXH ] ] [ A e [ *.=.=.5.5.8 o   - u E 7.7.5.5.4.>.9.e.x.w.j.;X;X;X;X%X%XaXsXsXsXsXsXsXsXsXsXsXsXsX",
"sXsXsXsXsXsXsXsXsXsXsXtX` ] [ i + H  .=.4.7.7.5.u +   - p { w.w.w.w.7.4.' n.r.a.,.%X$XoX$XXXXX'.sXsXsXsXsXsXsXsXsXsXsXsX",
"sXsXsXsXsXsXsXsXsXsXsX@.K ] [ 5 % [ =.4.4.7.7.w.u +   > p ..w.e.w.w.w.7.7.e.e.s.:.L. X X X'.'.).sXsXsXsXsXsXsXsXsXsXsXsX",
"sXsXsXsXsXsXsXsXsXsXsX[ [ [ S $ u *.4.4.7.w.w.e.6 +   5 p ..e.e.e.e.e.w.e.:.N.s.a.c N.s.s.s.n.n.sXsXsXsXsXsXsXsXsXsXsXsX",
"sXsXsXsXsXsXsXsXsXsXsX] [  .=   ` 4.4.7.w.w.w.e.> o . 5 p :.a.s.s.a.s.r.i.9.N.N.a.p 4.4.4.>.<.<.#XsXsXsXsXsXsXsXsXsXsXsX",
"sXsXsXsXsXsXsXsXsXsXsX] *. .-   [ 4.4.5.w.e.e.e.> + . 5 p 3.N.s.s.s.N.n.n.a.V.V.s.5 >.=.| *.-.| ( sXsXsXsXsXsXsXsXsXsXsX",
"sXsXsXsXsXsXsXsXsXsXiX .-.=.= % *.4.5.w.e.e.e.s.> o   5 a 7.s.s.V.V.V.G.V.n.V.N.V.7 ;. .[ R [ ` K sXsXsXsXsXsXsXsXsXsXsX",
"sXsXsXsXsXsXsXsXsXsX8X .*.4.- 1 *.4.5.e.e.a.a.N.> + . 8 c q.N.R.G.R.G.R.G.s.V.R.G.Q ^ R R R T R L sXsXsXsXsXsXsXsXsXsXsX",
"sXsXsXsXsXsXsXsXsXsX1X-.4.5.- u =.5.w.e.a.s.s.V.> + . u c C.R.R.R.G.W.Q.U.s.s.Q.W.f.r F Z D v v v sXsXsXsXsXsXsXsXsXsXsX",
"sXsXsXsXsXsXsXsXsXsX1X .4.7.> u =.7.w.a.s.s.N.V.- o . p V C.G.W.Q.Q.Q.Q.W.V.p.Q.Q.d.4 v c c b a a sXsXsXsXsXsXsXsXsXsXsX",
"sXsXsXsXsXsXsXsXsXsX8X>.9.7.= t >.w.i.a.N.V.V.G.> +   p C v.Q.Q.Q.Q.Q.Q.Q.G.B.Q.Q.k.> a p p i u 8 sXsXsXsXsXsXsXsXsXsXsX",
"sXsXsXsXsXsXsXsXsXsXsX5.e.e.= w 4.r.i.M.R.R.W.R.> + . p / v.Q.Q.Q.Q.Q.Q.W.W.R.Q.Q.~ - 5 5 2 - - = sXsXsXsXsXsXsXsXsXsXsX",
"sXsXsXsXsXsXsXsXsXsXsXw.w.a.= : 7.n.s.G.H.W.Q.Q.> + . b ) P.Q.).'.).Q.Q.Q.W.Q.Q.Q.0 = - = = = = $ sXsXsXsXsXsXsXsXsXsXsX",
"sXsXsXsXsXsXsXsXsXsXsXi.n.n.- > a.M.V.U.Q.Q.Q.Q.2 @ o W H Z.].]. X'.).Q.Q.R.Q.Q.W.+ = = = $ $ @ o sXsXsXsXsXsXsXsXsXsXsX",
"sXsXsXsXsXsXsXsXsXsXsXw.s.M.b.u ).M.R.Q.Q.Q.Q.Q.2 + + W ,.S.].]. X X).Q.Q.y.Q.Q.Q.X = $ @ @ + + *XsXsXsXsXsXsXsXsXsXsXsX",
"sXsXsXsXsXsXsXsXsXsXsX}.N.V.N.v k.R.Q.Q.).'.].).5 @ + ! O.c.].].].].'.Q.Q.A.Q.Q.Q.. @ + + X X X sXsXsXsXsXsXsXsXsXsXsXsX",
"sXsXsXsXsXsXsXsXsXsXsXsXR.Q.U.K N ].U.Q.'. X].].5 @ + ) o.0.].].].].'.Q.R.Q.Q.].#.+ $ + o o o o sXsXsXsXsXsXsXsXsXsXsXsX",
"sXsXsXsXsXsXsXsXsXsXsXsXW.T.U.W.4.~.Q.).].].].].5 @ + +.o.8. X].].].).Q.2.Q.'.].+ & = @ @ + + . sXsXsXsXsXsXsXsXsXsXsXsX",
"sXsXsXsXsXsXsXsXsXsXsXsX+X^.).^.t.}  XQ.].].].].- + + V ` 4.]. X].].Q.G.Q.Q.'.).  + + @ + o o sXsXsXsXsXsXsXsXsXsXsXsXsX",
"sXsXsXsXsXsXsXsXsXsXsXsXsX).Q.Q.Q.Q.[ ).).].'.'.2 m s T z.p.].].].'.Q.F.Q.].'.O * > = = = = $ sXsXsXsXsXsXsXsXsXsXsXsXsX",
"sXsXsXsXsXsXsXsXsXsXsXsXsX&.).'.Q.).>XK.Q.].].].'.oX$XoXXX'.].].].Q.w.Q. X].].X p p g g i 8 6XsXsXsXsXsXsXsXsXsXsXsXsXsX",
"sXsXsXsXsXsXsXsXsXsXsXsXsXsX]. X].].).rX6.Q.]. X].].].].].].].).Q.w.).].]. X. f p p u u 5 3 sXsXsXsXsXsXsXsXsXsXsXsXsXsX",
"sXsXsXsXsXsXsXsXsXsXsXsXsXsX6X].]. X].|.uXu.).Q.].].].].].'.Q.I.a.Q.].]..XXX  p u 8 5 5 5 sXsXsXsXsXsXsXsXsXsXsXsXsXsXsX",
"sXsXsXsXsXsXsXsXsXsXsXsXsXsXsX[. X X X X'.2XrXE.G.G.R.G.R.a.R.R.].]. X]. X  p p u 5 q 5 <XsXsXsXsXsXsXsXsXsXsXsXsXsXsXsX",
"sXsXsXsXsXsXsXsXsXsXsXsXsXsXsXsXz  X X X X X].).:X;X;XoX].].]. X X].XX]., V v b h g p =XsXsXsXsXsXsXsXsXsXsXsXsXsXsXsXsX",
"sXsXsXsXsXsXsXsXsXsXsXsXsXsXsXsXsXj  XXX X XXX X].].]. X X XXX X X X].k n v c v n a l sXsXsXsXsXsXsXsXsXsXsXsXsXsXsXsXsX",
"sXsXsXsXsXsXsXsXsXsXsXsXsXsXsXsXsXsX-XXXXXXXXXXXXX X X XXXXXXXXXXX(.D V V v v V ! 7XsXsXsXsXsXsXsXsXsXsXsXsXsXsXsXsXsXsX",
"sXsXsXsXsXsXsXsXsXsXsXsXsXsXsXsXsXsXsXsX_  XXX XXXXXXXXXXX XXX Xa.1.D D v V V M sXsXsXsXsXsXsXsXsXsXsXsXsXsXsXsXsXsXsXsX",
"sXsXsXsXsXsXsXsXsXsXsXsXsXsXsXsXsXsXsXsXsXpX5 l. X X X X X^.D.J.p u 9 d 8 < sXsXsXsXsXsXsXsXsXsXsXsXsXsXsXsXsXsXsXsXsXsX",
"sXsXsXsXsXsXsXsXsXsXsXsXsXsXsXsXsXsXsXsXsXsXsXsXsXsXsXsXsXsXsXsXsXsXsXsXsXsXsXsXsXsXsXsXsXsXsXsXsXsXsXsXsXsXsXsXsXsXsXsX",
"sXsXsXsXsXsXsXsXsXsXsXsXsXsXsXsXsXsXsXsXsXsXsXsXsXsXsXsXsXsXsXsXsXsXsXsXsXsXsXsXsXsXsXsXsXsXsXsXsXsXsXsXsXsXsXsXsXsXsXsX",
"sXsXsXsXsXsXsXsXsXsXsXsXsXsXsXsXsXsXsXsXsXsXsXsXsXsXsXsXsXsXsXsXsXsXsXsXsXsXsXsXsXsXsXsXsXsXsXsXsXsXsXsXsXsXsXsXsXsXsXsX",
"sXsXsXsXsXsXsXsXsXsXsXsXsXsXsXsXsXsXsXsXsXsXsXsXsXsXsXsXsXsXsXsXsXsXsXsXsXsXsXsXsXsXsXsXsXsXsXsXsXsXsXsXsXsXsXsXsXsXsXsX",
"sXsXsXsXsXsXsXsXsXsXsXsXsXsXsXsXsXsXsXsXsXsXsXsXsXsXsXsXsXsXsXsXsXsXsXsXsXsXsXsXsXsXsXsXsXsXsXsXsXsXsXsXsXsXsXsXsXsXsXsX",
"sXsXsXsXsXsXsXsXsXsXsXsXsXsXsXsXsXsXsXsXsXsXsXsXsXsXsXsXsXsXsXsXsXsXsXsXsXsXsXsXsXsXsXsXsXsXsXsXsXsXsXsXsXsXsXsXsXsXsXsX",
"sXsXsXsXsXsXsXsXsXsXsXsXsXsXsXsXsXsXsXsXsXsXsXsXsXsXsXsXsXsXsXsXsXsXsXsXsXsXsXsXsXsXsXsXsXsXsXsXsXsXsXsXsXsXsXsXsXsXsXsX",
"sXsXsXsXsXsXsXsXsXsXsXsXsXsXsXsXsXsXsXsXsXsXsXsXsXsXsXsXsXsXsXsXsXsXsXsXsXsXsXsXsXsXsXsXsXsXsXsXsXsXsXsXsXsXsXsXsXsXsXsX",
"sXsXsXsXsXsXsXsXsXsXsXsXsXsXsXsXsXsXsXsXsXsXsXsXsXsXsXsXsXsXsXsXsXsXsXsXsXsXsXsXsXsXsXsXsXsXsXsXsXsXsXsXsXsXsXsXsXsXsXsX",
"sXsXsXsXsXsXsXsXsXsXsXsXsXsXsXsXsXsXsXsXsXsXsXsXsXsXsXsXsXsXsXsXsXsXsXsXsXsXsXsXsXsXsXsXsXsXsXsXsXsXsXsXsXsXsXsXsXsXsXsX"
};
