/* XPM */
static char *result[] = {
/* columns rows colors chars-per-pixel */
"60 60 230 2 ",
"   c #030101",
".  c #0A0300",
"X  c #0B0B0B",
"o  c #0B0A06",
"O  c #120600",
"+  c #1B0C00",
"@  c #140900",
"#  c #131312",
"$  c #1B1B1B",
"%  c #181715",
"&  c #171300",
"*  c #241300",
"=  c #2B1B00",
"-  c #291400",
";  c #331D00",
":  c #392400",
">  c #2F2C0F",
",  c #242424",
"<  c #2D2D2D",
"1  c #343434",
"2  c #3D3D3C",
"3  c #422600",
"4  c #473401",
"5  c #513201",
"6  c #5A3C05",
"7  c #663F00",
"8  c #433D23",
"9  c #51440A",
"0  c #664402",
"q  c #774E06",
"w  c #7C5507",
"e  c #785211",
"r  c #695307",
"t  c #79640A",
"y  c #7A6A1C",
"u  c #454125",
"i  c #706730",
"p  c #444444",
"a  c #4B4C4C",
"s  c #555555",
"d  c #5D5D5D",
"f  c #636363",
"g  c gray42",
"h  c #737373",
"j  c #7C7C7C",
"k  c #934E05",
"l  c #994E0D",
"z  c #835608",
"x  c #955A01",
"c  c #9A5D03",
"v  c #965406",
"b  c #984D12",
"n  c #9D5112",
"m  c #8A540D",
"M  c #AA580C",
"N  c #B45B0C",
"B  c #AC5D12",
"V  c #A45812",
"C  c #B25B13",
"Z  c #BA5C12",
"A  c #9B6308",
"S  c #966615",
"D  c #8D630F",
"F  c #A26403",
"G  c #AC6C03",
"H  c #AB6806",
"J  c #B46E04",
"K  c #B76607",
"L  c #AD7709",
"P  c #B37504",
"I  c #BB7C03",
"U  c #B2730B",
"Y  c #B97807",
"T  c #A56212",
"R  c #AC6215",
"E  c #A76B14",
"W  c #B36315",
"Q  c #BE6C15",
"!  c #B36518",
"~  c #B76616",
"^  c #A97717",
"/  c #B87B15",
"(  c #B27726",
")  c #CB640D",
"_  c #C96708",
"`  c #D2690E",
"'  c #C6790B",
"]  c #D97A07",
"[  c #C36D15",
"{  c #CB6B12",
"}  c #C76E18",
"|  c #C76614",
" . c #D36D11",
".. c #C47216",
"X. c #CB7316",
"o. c #CC731A",
"O. c #C87817",
"+. c #D47C1C",
"@. c #D27615",
"#. c #D37B21",
"$. c #9D830C",
"%. c #BE850C",
"&. c #BA8315",
"*. c #BA8827",
"=. c #B69726",
"-. c #B98A37",
";. c #BD943C",
":. c #B5A02B",
">. c #C88509",
",. c #D48B07",
"<. c #D28C0B",
"1. c #DB8708",
"2. c #CE9406",
"3. c #CF9D05",
"4. c #CC960C",
"5. c #D29C06",
"6. c #D3940C",
"7. c #D99709",
"8. c #CB8212",
"9. c #C68617",
"0. c #D58512",
"q. c #D98F14",
"w. c #CE9314",
"e. c #D79716",
"r. c #E3980A",
"t. c #E79714",
"y. c #F59E12",
"u. c #E79010",
"i. c #CEA105",
"p. c #CFA90A",
"a. c #D5A106",
"s. c #D5A30A",
"d. c #D4AB0C",
"f. c #CFAB1B",
"g. c #D2AC14",
"h. c #D3AE19",
"j. c #D5A415",
"k. c #DBB719",
"l. c #EAA906",
"z. c #E5A20D",
"x. c #E9A708",
"c. c #FBA407",
"v. c #FCA408",
"b. c #FCAB09",
"n. c #F7A709",
"m. c #E9B50C",
"M. c #E6B10D",
"N. c #FDB30D",
"B. c #F4B50B",
"V. c #E6A617",
"C. c #F6AB1A",
"Z. c #F8A912",
"A. c #EDB818",
"S. c #F7B615",
"D. c #CA8626",
"F. c #D1842B",
"G. c #C79725",
"H. c #D89B25",
"J. c #D1993B",
"K. c #CBAA26",
"L. c #D3AB23",
"P. c #D7A424",
"I. c #D4B327",
"U. c #D3AA3C",
"Y. c #D4B83A",
"T. c #D5B537",
"R. c #CEB234",
"E. c #E5A525",
"W. c #F4B825",
"Q. c #E8BA38",
"!. c #E0A53F",
"~. c #F7C50A",
"^. c #F3C513",
"/. c #FEC415",
"(. c #F8CA18",
"). c #FCD11D",
"_. c #EBC11D",
"`. c #E9C528",
"'. c #F6CB26",
"]. c #FDD224",
"[. c #F9D52C",
"{. c #EDC83A",
"}. c #FBD539",
"|. c #F2D031",
" X c #FFE12F",
".X c #8D844B",
"XX c #A79D5F",
"oX c #B4A940",
"OX c #B0A965",
"+X c #D3BA44",
"@X c #D5BD4D",
"#X c #D2B442",
"$X c #D1BD5B",
"%X c #D5B85A",
"&X c #CAB34A",
"*X c #D2BE65",
"=X c #C3BB73",
"-X c #D9C458",
";X c #E4C849",
":X c #E4C756",
">X c #F1C657",
",X c #FBDB58",
"<X c #F4D447",
"1X c #FDE35C",
"2X c #FFE051",
"3X c #DBC664",
"4X c #D4C475",
"5X c #E1CB64",
"6X c #FADB66",
"7X c #FADB74",
"8X c #FCE363",
"9X c #FFE66A",
"0X c #FDE96E",
"qX c #FDE87A",
"wX c #888888",
"eX c #9B9C9C",
"rX c #959595",
"tX c #9F9FA1",
"yX c #A9A9A9",
"uX c #B7B8B7",
"iX c #DAD289",
"pX c #D5CB83",
"aX c #FEE484",
"sX c #FCE986",
"dX c #FDED90",
"fX c #FCF3A6",
"gX c #C6C6C6",
"hX c #DDDDDD",
"jX c gray89",
"kX c None",
/* pixels */
"kXkXkXkXkXkXkXkXkXkXkXkXkXkXkXkXkXkXkXkXkXkXkXkXkXkXkXkXkXkXkXkXkXkXkXkXkXkXkXkXkXkXkXkXkXkXkXkXkXkXkXkXkXkXkXkXkXkXkXkX",
"kXkXkXkXkXkXkXkXkXkXkXkXkXkXkXkXkXkXkXkXkXkXkXkXkXkXkXkXkXkXkXkXkXkXkXkXkXkXkXkXkXkXkXkXkXkXkXkXkXkXkXkXkXkXkXkXkXkXkXkX",
"kXkXkXkXkXkXkXkXkXkXkXkXkXkXkXkXkXkXkXkXkXkXkXkXkXkXkXkXkXkXkXkXkXkXkXkXkXkXkXkXkXkXkXkXkXkXkXkXkXkXkXkXkXkXkXkXkXkXkXkX",
"kXkXkXkXkXkXkXkXkXkXkXkXkXkXkXkXkXkXkXkXkXkXkXkXkXkXkXkXkXkXkXkXkXkXkXkXkXkXkXkXkXkXkXkXkXkXkXkXkXkXkXkXkXkXkXkXkXkXkXkX",
"kXkXkXkXkXkXkXkXkXkXkXkXkXkXkXkXkXkXkXkXkXkXkXkXkXkXkXkXkXkXkXkXkXkXkXkXkXkXkXkXkXkXkXkXkXkXkXkXkXkXkXkXkXkXkXkXkXkXkXkX",
"kXkXkXkXkXkXkXkXkXkXkXkXkXkXkXkXkXkXkXkXkXkXkXkXkXkXkXeXh f 1 , f kXkXkXkXkXkXkXkXkXkXkXkXkXkXkXkXkXkXkXkXkXkXkXkXkXkXkX",
"kXkXkXkXkXkXkXkXkXkXkXkXkXkXkXkXkXkXkXkXkXkXkXkXkX< o         .     s kXkXkXkXkXkXkXkXkXkXkXkXkXkXkXkXkXkXkXkXkXkXkXkXkX",
"kXkXkXkXkXkXkXkXkXkXkXkXkXkXkXkXkXkXkXkXkXkXkXo   O = 9 w =.K.I.=.= . o gXkXkXkXkXkXkXkXkXkXkXkXkXkXkXkXkXkXkXkXkXkXkXkX",
"kXkXkXkXkXkXkXkXkXkXkXkXkXkXkXkXkXkXkXkXkXkX1   * S &.%.k.d.p.p.~.`.t . o kXkXkXkXkXkXkXkXkXkXkXkXkXkXkXkXkXkXkXkXkXkXkX",
"kXkXkXkXkXkXkXkXkXkXkXkXkXkXkXkXkXkXkXkXhXa   q ^ c P h.g.g.g.d.^.^.(.$.. 1 kXkXkXkXkXkXkXkXkXkXkXkXkXkXkXkXkXkXkXkXkXkX",
"kXkXkXkXkXkXkXkXkXkXkXkXkXkXkXkXkXkXkXkXwX  = S x c L.h.h.g.g.g.^.^.^. X0   kXkXkXkXkXkXkXkXkXkXkXkXkXkXkXkXkXkXkXkXkXkX",
"kXkXkXkXkXkXkXkXkXkXkXkXkXkXkXkXkXkXkXkX  . E H F L.h.f.g._.'.`.].).).(. X@ $ kXkXkXkXkXkXkXkXkXkXkXkXkXkXkXkXkXkXkXkXkX",
"kXkXkXkXkXkXkXkXkXkXkXkXkXkXkXkXkXkXkXh   0 U U I I.L.h.h.|.w.' 0.W.].).).t   wXkXkXkXkXkXkXkXkXkXkXkXkXkXkXkXkXkXkXkXkX",
"kXkXkXkXkXkXkXkXkXkXkXkXkXkXkXkXkXkXeX  3 &.P P L.I.K.K.G.K Q Q o.o.' ].).}.o # kXkXkXkXkXkXkXkXkXkXkXkXkXkXkXkXkXkXkXkX",
"kXkXkXkXkXkXkXkXkXkXkXkXkXkXkXkXkXgX<   S L E $.I.I.`.{.W o.o.o...o.@.E.[. X=   kXkXkXkXkXkXkXkXkXkXkXkXkXkXkXkXkXkXkXkX",
"kXkXkXkXkXkXkXkXkXkXkXkXkXkXkXkXkXgX  @ T c x G.R.I.{./ ..+.#.o.[ +.o.O.e.[.:.. s kXkXkXkXkXkXkXkXkXkXkXkXkXkXkXkXkXkXkX",
"kXkXkXkXkXkXkXkXkXkXkXkXkXkXkXkXkXwX  5 x x c Y.R.T.Q.[ o.+.o.~ O.t.@.o.X.}.;X9 % uXkXkXkXkXkXkXkXkXkXkXkXkXkXkXkXkXkXkX",
"kXkXkXkXkXkXkXkXkXkXkXkXkXkXkXkXkX1 o S A c L ;X;X;XP.#.+.+.} C q.V.+.[ ..E.Y.y   wXkXkXkXkXkXkXkXkXkXkXkXkXkXkXkXkXkXkX",
"kXkXkXkXkXkXkXkXkXkXkXkXkXkXkXkXkX# 5 &.L L K.;X;XQ.O.+.+.+.~ C (.W.0.o.} / Y.oXo 2 kXkXkXkXkXkXkXkXkXkXkXkXkXkXkXkXkXkX",
"kXkXkXkXkXkXkXkXkXkXkXkXkXkXkXkXkX  e Y L G U.;X;XG.@.+.+.+.C N ].(.q.O.o.Q #X&X  $ kXkXkXkXkXkXkXkXkXkXkXkXkXkXkXkXkXkX",
"kXkXkXkXkXkXkXkXkXkXkXkXkXkXkXkXyX  E P Y U :X1X9X8.+.+.+.} C ' (.].V.! ! B #X-X&   kXkXkXkXkXkXkXkXkXkXkXkXkXkXkXkXkXkX",
"kXkXkXkXkXkXkXkXkXkXkXkXkXkXkXkXh   ^ H U U :X9X0Xo.+.+.+.| N P.'.].W.! ! B *.-X>   kXkXkXkXkXkXkXkXkXkXkXkXkXkXkXkXkXkX",
"kXkXkXkXkXkXkXkXkXkXkXkXkXkXkXkXp @ c x c E 5X0X6X{ o.} | C J <X|.|.}.R ! V E -Xi   eXkXkXkXkXkXkXkXkXkXkXkXkXkXkXkXkXkX",
"kXkXkXkXkXkXkXkXkXkXkXkXkXkXkXkX, + F c c ^ 5X0X>X{ } ~ M Q {.}.}.|.}.E R R V &X.Xo j kXkXkXkXkXkXkXkXkXkXkXkXkXkXkXkXkX",
"kXkXkXkXkXkXkXkXkXkXkXkXkXkXkXyX# : F c K U.qXsX!.C R H.1X2X<X<XY.T.Y.Y.*.M T ;.XXo s kXkXkXkXkXkXkXkXkXkXkXkXkXkXkXkXkX",
"kXkXkXkXkXkXkXkXkXkXkXkXkXkXkXj o 0 H H Y :XqXsXJ.M F.8X1X,X2X2X+X@X+X+X+XU.T -.OX@ a kXkXkXkXkXkXkXkXkXkXkXkXkXkXkXkXkX",
"kXkXkXkXkXkXkXkXkXkXkXkXkXkXkXg   z ' I ,.>XaXaXF.C B 9X8X6X8X8X@X@X@X@X@X@XE ( =X= 1 kXkXkXkXkXkXkXkXkXkXkXkXkXkXkXkXkX",
"kXkXkXkXkXkXkXkXkXkXkXkXkXkXkXg   A ,.>.<.6XdXaX#.Z C ,X9X3X3X3X$X$X$X$X$X-XV ( pXu < kXkXkXkXkXkXkXkXkXkXkXkXkXkXkXkXkX",
"kXkXkXkXkXkXkXkXkXkXkXkXkXkXkXs   / ,.,.6.7XdXaX#.~ C V.`.I.;X3X3X*X*X*X*X*XV ( iXu < kXkXkXkXkXkXkXkXkXkXkXkXkXkXkXkXkX",
"kXkXkXkXkXkXkXkXkXkXkXkXkXkXkXs   ^ ,.>.8.7XdX<X+.o.! K ^.d.s.h.%X4X=X4X4X-.B ( iXu < kXkXkXkXkXkXkXkXkXkXkXkXkXkXkXkXkX",
"kXkXkXkXkXkXkXkXkXkXkXkXkXkXkXd   A J J U 7X}.^.0.#.V l M.i.a.a.j.-X4X4X4X( X.D.fXu < kXkXkXkXkXkXkXkXkXkXkXkXkXkXkXkXkX",
"kXkXkXkXkXkXkXkXkXkXkXkXkXkXkXd   S J J J A.~.S.0.#.! n w.i.i.i.s.s.j.+X5XR ..D.9X9 , kXkXkXkXkXkXkXkXkXkXkXkXkXkXkXkXkX",
"kXkXkXkXkXkXkXkXkXkXkXkXkXkXkXh   m J J J S.~.~.0.+.! n / s.i.3.a.a.a.4.e.! ..9.(.6 , kXkXkXkXkXkXkXkXkXkXkXkXkXkXkXkXkX",
"kXkXkXkXkXkXkXkXkXkXkXkXkXkXkXwX. z J J J a.~.M.' o.R b k w.a.a.3.3.i.B.V...o.1.].: 1 kXkXkXkXkXkXkXkXkXkXkXkXkXkXkXkXkX",
"kXkXkXkXkXkXkXkXkXkXkXkXkXkXkXrXo z >.>.' l.~.m.9.} R b k w.5.5.2.5.5.B.V.X.X.q.`.: 2 kXkXkXkXkXkXkXkXkXkXkXkXkXkXkXkXkX",
"kXkXkXkXkXkXkXkXkXkXkXkXkXkXkXgX# 7 r.,.,.l.~.B.8./ ! b k e.5.5.5.5.2.m.x.{ X.r.h.& s kXkXkXkXkXkXkXkXkXkXkXkXkXkXkXkXkX",
"kXkXkXkXkXkXkXkXkXkXkXkXkXkXkXhX, ; r.<.' 2.m.i.9.R W V k w.2.2.l.l.l.N.Z.X.@.B.:.. wXkXkXkXkXkXkXkXkXkXkXkXkXkXkXkXkXkX",
"kXkXkXkXkXkXkXkXkXkXkXkXkXkXkXkXp + r.<.>.2.m.i.w.B W V k 9.2.2.x.l.l.N.n.{ ' S.$.. eXkXkXkXkXkXkXkXkXkXkXkXkXkXkXkXkXkX",
"kXkXkXkXkXkXkXkXkXkXkXkXkXkXkXkXh . ' Y J P m.3.4.B ! n k 8.2.2.x.x.x.N.Z.| 1./.r . hXkXkXkXkXkXkXkXkXkXkXkXkXkXkXkXkXkX",
"kXkXkXkXkXkXkXkXkXkXkXkXkXkXkXkXuX  E K x x s.a.d.H B b k q.z.z.S.Z.N.N.Z.| u./.4   kXkXkXkXkXkXkXkXkXkXkXkXkXkXkXkXkXkX",
"kXkXkXkXkXkXkXkXkXkXkXkXkXkXkXkXkX  e H x v 4.5.5.Y C b k e.x.t._ M N t.C.) S._.. # kXkXkXkXkXkXkXkXkXkXkXkXkXkXkXkXkXkX",
"kXkXkXkXkXkXkXkXkXkXkXkXkXkXkXkXkXX 6 U x v %.5.5.I M l k t.q.K ) ) Z Z ) _ N.A.. < kXkXkXkXkXkXkXkXkXkXkXkXkXkXkXkXkXkX",
"kXkXkXkXkXkXkXkXkXkXkXkXkXkXkXkXkX, @ ( L G Y 3.2.6.Y C M 0._  . .` { ) { u.B.&.  h kXkXkXkXkXkXkXkXkXkXkXkXkXkXkXkXkXkX",
"kXkXkXkXkXkXkXkXkXkXkXkXkXkXkXkXkXg   D P U I 4.2.5.<.Z N )  . . . .{ ) ) n.S.q X tXkXkXkXkXkXkXkXkXkXkXkXkXkXkXkXkXkXkX",
"kXkXkXkXkXkXkXkXkXkXkXkXkXkXkXkXkXkX  * Y P P 2.2.5.z.K N  . .`  .` ) _ ] b.P.. 2 kXkXkXkXkXkXkXkXkXkXkXkXkXkXkXkXkXkXkX",
"kXkXkXkXkXkXkXkXkXkXkXkXkXkXkXkXkXkX$   E A H >.e.r.n.Z.)  .`  .` ) ) ] n.n.3   kXkXkXkXkXkXkXkXkXkXkXkXkXkXkXkXkXkXkXkX",
"kXkXkXkXkXkXkXkXkXkXkXkXkXkXkXkXkXkXf   5 S x F 2.r.N.N.] _ ) ` ) ) _ y.n.Z.+   kXkXkXkXkXkXkXkXkXkXkXkXkXkXkXkXkXkXkXkX",
"kXkXkXkXkXkXkXkXkXkXkXkXkXkXkXkXkXkXkXp . 0 x x P 7.b.n.b.v._ _ _ ] y.c.n.^   p kXkXkXkXkXkXkXkXkXkXkXkXkXkXkXkXkXkXkXkX",
"kXkXkXkXkXkXkXkXkXkXkXkXkXkXkXkXkXkXkXyX  * U H F r.c.c.b.b.b.y.v.Z.b.v.C.* o kXkXkXkXkXkXkXkXkXkXkXkXkXkXkXkXkXkXkXkXkX",
"kXkXkXkXkXkXkXkXkXkXkXkXkXkXkXkXkXkXkXkX2   6 7.,.r.b.b.b.c.c.b.v.v.v.e.D   eXkXkXkXkXkXkXkXkXkXkXkXkXkXkXkXkXkXkXkXkXkX",
"kXkXkXkXkXkXkXkXkXkXkXkXkXkXkXkXkXkXkXkXkX$ . D.0.>.t.b.c.c.c.c.v.v.c.^ O X kXkXkXkXkXkXkXkXkXkXkXkXkXkXkXkXkXkXkXkXkXkX",
"kXkXkXkXkXkXkXkXkXkXkXkXkXkXkXkXkXkXkXkXkXkXo   5 &.' ,.b.c.c.c.v.C.9.    kXkXkXkXkXkXkXkXkXkXkXkXkXkXkXkXkXkXkXkXkXkXkX",
"kXkXkXkXkXkXkXkXkXkXkXkXkXkXkXkXkXkXkXkXkXkXgX    : D O.E.W.C.Z.H.0 @   g kXkXkXkXkXkXkXkXkXkXkXkXkXkXkXkXkXkXkXkXkXkXkX",
"kXkXkXkXkXkXkXkXkXkXkXkXkXkXkXkXkXkXkXkXkXkXkXkXeX.     . . * * .   # uXkXkXkXkXkXkXkXkXkXkXkXkXkXkXkXkXkXkXkXkXkXkXkXkX",
"kXkXkXkXkXkXkXkXkXkXkXkXkXkXkXkXkXkXkXkXkXkXkXkXkXkXeXf 1 , $ % , g kXkXkXkXkXkXkXkXkXkXkXkXkXkXkXkXkXkXkXkXkXkXkXkXkXkX",
"kXkXkXkXkXkXkXkXkXkXkXkXkXkXkXkXkXkXkXkXkXkXkXkXkXkXkXkXkXkXkXkXkXkXkXkXkXkXkXkXkXkXkXkXkXkXkXkXkXkXkXkXkXkXkXkXkXkXkXkX",
"kXkXkXkXkXkXkXkXkXkXkXkXkXkXkXkXkXkXkXkXkXkXkXkXkXkXkXkXkXkXkXkXkXkXkXkXkXkXkXkXkXkXkXkXkXkXkXkXkXkXkXkXkXkXkXkXkXkXkXkX",
"kXkXkXkXkXkXkXkXkXkXkXkXkXkXkXkXkXkXkXkXkXkXkXkXkXkXkXkXkXkXkXkXkXkXkXkXkXkXkXkXkXkXkXkXkXkXkXkXkXkXkXkXkXkXkXkXkXkXkXkX",
"kXkXkXkXkXkXkXkXkXkXkXkXkXkXkXkXkXkXkXkXkXkXkXkXkXkXkXkXkXkXkXkXkXkXkXkXkXkXkXkXkXkXkXkXkXkXkXkXkXkXkXkXkXkXkXkXkXkXkXkX",
"kXkXkXkXkXkXkXkXkXkXkXkXkXkXkXkXkXkXkXkXkXkXkXkXkXkXkXjXkXkXkXkXkXkXkXkXkXkXkXkXkXkXkXkXkXkXkXkXkXkXkXhXkXkXkXkXkXkXkXkX"
};
