/* XPM */
static char *result[] = {
/* columns rows colors chars-per-pixel */
"60 60 238 2 ",
"   c #030201",
".  c #0B0300",
"X  c #0F0900",
"o  c #0B0B0A",
"O  c #130B00",
"+  c #1B0C00",
"@  c #150600",
"#  c #1D1200",
"$  c #1D1800",
"%  c #141414",
"&  c #1C1C1B",
"*  c #110F10",
"=  c #251A02",
"-  c #361E00",
";  c #270E00",
":  c #2A2306",
">  c #3A2400",
",  c gray14",
"<  c #2D2D2D",
"1  c gray22",
"2  c #312F30",
"3  c #472B00",
"4  c #493400",
"5  c #573A00",
"6  c #443D17",
"7  c #463F22",
"8  c #5A4502",
"9  c #4A4317",
"0  c #614801",
"q  c #6A5406",
"w  c #735608",
"e  c #776106",
"r  c #786612",
"t  c #70662C",
"y  c #464646",
"u  c gray32",
"i  c #646464",
"p  c #737373",
"a  c #7D7D7D",
"s  c #736E44",
"d  c #9D5908",
"f  c #8A5304",
"g  c #A14F04",
"h  c #A5540C",
"j  c #AB560B",
"k  c #AB5B0E",
"l  c #A65806",
"z  c #B45C0D",
"x  c #BA5D0B",
"c  c #B45C07",
"v  c #A55B13",
"b  c #AB5C12",
"n  c #A65713",
"m  c #B05F11",
"M  c #957916",
"N  c #906D0E",
"B  c #AB6309",
"V  c #B86707",
"C  c #AD6215",
"Z  c #AA6716",
"A  c #B26515",
"S  c #BA6514",
"D  c #B46916",
"F  c #B96A17",
"G  c #BA7716",
"H  c #AD7514",
"J  c #897B32",
"K  c #C45F0D",
"L  c #C5620D",
"P  c #CC640E",
"I  c #C66806",
"U  c #C87408",
"Y  c #D77906",
"T  c #C36C15",
"R  c #CC6A13",
"E  c #C46D19",
"W  c #C76813",
"Q  c #D36D11",
"!  c #C47315",
"~  c #CA7216",
"^  c #C4721C",
"/  c #CC741A",
"(  c #CE791B",
")  c #C77916",
"_  c #D0771B",
"`  c #D37B1C",
"'  c #D47012",
"]  c #D1690E",
"[  c #9E8215",
"{  c #B18516",
"}  c #B7A01E",
"|  c #95862F",
" . c #B89B26",
".. c #B88628",
"X. c #BDAB3B",
"o. c #CF8A05",
"O. c #CE8A0C",
"+. c #CB8507",
"@. c #D28C05",
"#. c #D48B0A",
"$. c #D58707",
"%. c #CE9305",
"&. c #CF9B07",
"*. c #D39305",
"=. c #D39B06",
"-. c #D3930D",
";. c #D49C0C",
":. c #DA9706",
">. c #CA8715",
",. c #D48C12",
"<. c #C99219",
"1. c #D89615",
"2. c #E4940C",
"3. c #E59A08",
"4. c #E7950F",
"5. c #CEA005",
"6. c #CDA50B",
"7. c #D3A206",
"8. c #DBA205",
"9. c #D4A30A",
"0. c #D1AA0F",
"q. c #DDB30C",
"w. c #CEAD19",
"e. c #D1AB15",
"r. c #D1AD1C",
"t. c #D7A818",
"y. c #DEB412",
"u. c #DBB51B",
"i. c #D5B41B",
"p. c #E5AD05",
"a. c #E5A808",
"s. c #FCA606",
"d. c #FBA40A",
"f. c #FCAA0B",
"g. c #F5A909",
"h. c #EAB90A",
"j. c #FAB207",
"k. c #FCBC07",
"l. c #FCB409",
"z. c #FCBB09",
"x. c #F5B709",
"c. c #FAAB13",
"v. c #E6B916",
"b. c #FAB616",
"n. c #E2A21E",
"m. c #CA9A26",
"M. c #CF932F",
"N. c #CFAD25",
"B. c #CAA627",
"V. c #D3AD24",
"C. c #D5A72B",
"Z. c #CEB12E",
"A. c #CCB123",
"S. c #D3B225",
"D. c #D4B52D",
"F. c #D8B828",
"G. c #CCA935",
"H. c #CCB336",
"J. c #D3B532",
"K. c #D3B43B",
"L. c #D4BA3C",
"P. c #D7BA36",
"I. c #DBA839",
"U. c #E2A826",
"Y. c #F7BA28",
"T. c #E6B036",
"R. c #FDC207",
"E. c #FDC409",
"W. c #FDCB0D",
"Q. c #FFD30E",
"!. c #FDCD14",
"~. c #FCCD18",
"^. c #F7C718",
"/. c #FED217",
"(. c #E5C326",
"). c #FBC727",
"_. c #FDD324",
"`. c #FFD22E",
"'. c #E5C337",
"]. c #FAD537",
"[. c #FACF33",
"{. c #958D52",
"}. c #BD9142",
"|. c #B3A961",
" X c #C79947",
".X c #CFB642",
"XX c #CCB74B",
"oX c #D4BB44",
"OX c #D4BA47",
"+X c #CEBA54",
"@X c #CDBB59",
"#X c #D3BC54",
"$X c #D4BC5B",
"%X c #E5B14B",
"&X c #CFBD66",
"*X c #E7BE63",
"=X c #D5C15B",
"-X c #DAC448",
";X c #EBCD4C",
":X c #FDDB45",
">X c #EBD15B",
",X c #FDDA56",
"<X c #F4D04A",
"1X c #FDE253",
"2X c #FEE35B",
"3X c #FFED59",
"4X c #D6C569",
"5X c #D2C477",
"6X c #D7C96B",
"7X c #EBD36C",
"8X c #EAD567",
"9X c #E9D674",
"0X c #E9D67A",
"qX c #F5D776",
"wX c #F3D368",
"eX c #FDE263",
"rX c #FDE46B",
"tX c #FFEA68",
"yX c #FEE573",
"uX c #FFE974",
"iX c #FDE97E",
"pX c #888888",
"aX c #9C9C9D",
"sX c #929292",
"dX c #A3A3A3",
"fX c #ABABAB",
"gX c #B7B7B7",
"hX c #D7CA84",
"jX c #D0CC8D",
"kX c #EAD983",
"lX c #F3DF80",
"zX c #FDEA88",
"xX c #FEEE94",
"cX c #FFF398",
"vX c #EAE28C",
"bX c #D8D8D8",
"nX c #C9C9C9",
"mX c None",
/* pixels */
"mXmXmXmXmXmXmXmXmXmXmXmXmXmXmXmXmXmXmXmXmXmXmXmXmXmXmXmXmXmXmXmXmXmXmXmXmXmXmXmXmXmXmXmXmXmXmXmXmXmXmXmXmXmXmXmXmXmXmXmX",
"mXmXmXmXmXmXmXmXmXmXmXmXmXmXmXmXmXmXmXmXmXmXmXmXmXmXmXmXmXmXmXmXmXmXmXmXmXmXmXmXmXmXmXmXmXmXmXmXmXmXmXmXmXmXmXmXmXmXmXmX",
"mXmXmXmXmXmXmXmXmXmXmXmXmXmXmXmXmXmXmXmXmXmXmXmXmXmXmXmXmXmXmXmXmXmXmXmXmXmXmXmXmXmXmXmXmXmXmXmXmXmXmXmXmXmXmXmXmXmXmXmX",
"mXmXmXmXmXmXmXmXmXmXmXmXmXmXmXmXmXmXmXmXmXmXmXmXmXmXmXmXmXmXmXmXmXmXmXmXmXmXmXmXmXmXmXmXmXmXmXmXmXmXmXmXmXmXmXmXmXmXmXmX",
"mXmXmXmXmXmXmXmXmXmXmXmXmXmXmXmXmXmXmXmXmXmXmXmXmXmXmXmXmXmXmXmXmXmXmXmXmXmXmXmXmXmXmXmXmXmXmXmXmXmXmXmXmXmXmXmXmXmXmXmX",
"mXmXmXmXmXmXmXmXmXmXmXmXmXmXmXmXmXmXmXmXmXmXmXmXmXmXmXmXmXmXmXmXmXmXmXmXmXmXmXmXmXmXmXmXmXmXmXmXmXmXmXmXmXmXmXmXmXmXmXmX",
"mXmXmXmXmXmXmXmXmXmXmXmXmXmXmXmXmXmXmXmXmXmXmXmXmXmXmXmXmXmXmXmXmXmXmXmXmXmXmXmXmXmXmXmXmXmXmXmXmXmXmXmXmXmXmXmXmXmXmXmX",
"mXmXmXmXmXmXmXmXmXmXmXmXmXmXmXmXmXmXmXmXmXmXmXmXmXmXmXmXmXmXmXmXmXmXmXmXmXmXmXmXmXmXmXmXmXmXmXmXmXmXmXmXmXmXmXmXmXmXmXmX",
"mXmXmXmXmXmXmXmXmXmXmXmXmXmXmXmXmXmXmXmXmXmXmXmXfXu % % o     o o % 2 sXnXmXmXmXmXmXmXmXmXmXmXmXmXmXmXmXmXmXmXmXmXmXmXmX",
"mXmXmXmXmXmXmXmXmXmXmXmXmXmXmXmXmXmXmXmXmXdX%     . 4 q r B.} [ [ w O o   o y fXmXmXmXmXmXmXmXmXmXmXmXmXmXmXmXmXmXmXmXmX",
"mXmXmXmXmXmXmXmXmXmXmXmXmXmXmXmXmXmXmXy     = M } w.v.h.h.W.W.W.Q././._.(.e X   o mXmXmXmXmXmXmXmXmXmXmXmXmXmXmXmXmXmXmX",
"mXmXmXmXmXmXmXmXmXmXmXmXmXmXmXmXmXfX    q  .e.q.q.y.Q.!.~.!.!.!.!.~.~.^.^.^.i. .$   , mXmXmXmXmXmXmXmXmXmXmXmXmXmXmXmXmX",
"mXmXmXmXmXmXmXmXmXmXmXmXmXmXmXmXp     e r.0.0.y.y.y.~.~.~.^.~.~.!.!.~.^.^.^.0.e.H.:   o mXmXmXmXmXmXmXmXmXmXmXmXmXmXmXmX",
"mXmXmXmXmXmXmXmXmXmXmXmXmXmXmXy   # H.w.e.e.e.u.u.v._.).).).).).)._._.~.(.).w.r.0.S.| X   aXmXmXmXmXmXmXmXmXmXmXmXmXmXmX",
"mXmXmXmXmXmXmXmXmXmXmXmXmXmX<   r D.e.e.y.u.u.`.).,.~ ~ / ~ / ~ ~ ! >.B.F.F.S.r.r.N.w.P.:   gXmXmXmXmXmXmXmXmXmXmXmXmXmX",
"mXmXmXmXmXmXmXmXmXmXmXmXmXdX  > P.w.r.r.F.F.V.,.~ / / ~ ~ / / / E E E B V B.D.S.S.A.A.w.XXX & bXmXmXmXmXmXmXmXmXmXmXmXmX",
"mXmXmXmXmXmXmXmXmXmXmXmXp   : P.S.S.V.A.C.^ C / / / _ _ _ / / _ _ _ ^ b C v H M.P.D.S.N.D.X.    mXmXmXmXmXmXmXmXmXmXmXmX",
"mXmXmXmXmXmXmXmXmXmXmXmX  X L.A.S.S.D.<.W / ~ ` ` ` _ _ W Y.c ^ C F F Z C C b v ..L.P.P.].].XXX & mXmXmXmXmXmXmXmXmXmXmX",
"mXmXmXmXmXmXmXmXmXmXmXy   J J.D.D.D.C.C / / ` ` ` ,._ ^ V !.,.S C A D A Z Z C b v m.P.P.:X:X3XJ   bXmXmXmXmXmXmXmXmXmXmX",
"mXmXmXmXmXmXmXmXmXmXmX  t L.J.J.J.J.v C ` ` ` ` ` ` _ U ~.W.!.V v A D Z D Z A Z C B M.;X:X:X:XtXO * mXmXmXmXmXmXmXmXmXmX",
"mXmXmXmXmXmXmXmXmXmX& O -XL.H.K.G.F T / ` >.` ,.` ` V ).~.y.y.V.d n C A D F D D C ^ T T.2X1X,X1X4X  fXmXmXmXmXmXmXmXmXmX",
"mXmXmXmXmXmXmXmXmXmX  | oXoXoXOXZ E / ( ` ` ` ` ` ^ 1././.u.v.u.N.d C Z D F D D D ( ~ T ,X2X2X2XtX: & mXmXmXmXmXmXmXmXmX",
"mXmXmXmXmXmXmXmXmXp   &XoX-XXXM.v F ( _ ` ` ` ` _ S [._._.F.F.v.V.l n Z Z A D D D _ R E I.eXeX2XrXt   dXmXmXmXmXmXmXmXmX",
"mXmXmXmXmXmXmXmXmX% : =X+XXXwXG F _ ` ` ` ` ` _ W U.(.Y.F.N.N.N.C..Xf n C C / / ) _ ` / W rXrXrXrX9X  % mXmXmXmXmXmXmXmX",
"mXmXmXmXmXmXmXmXa   {.+X@X+X%XE E _ / ( W K F >.U.:X'.'.'.Z.Z.Z.J.J.G...Z d V S E _ _ _ / T.uXrXrX8X$   mXmXmXmXmXmXmXmX",
"mXmXmXmXmXmXmXmXu   |.@X@X@XM.F E ^ T S ) I.:X1X:X:XP.;X'.J.H.K.P.P.L.L.oXK.M.G z z / _ R M.zXqXuX6X9   mXmXmXmXmXmXmXmX",
"mXmXmXmXmXmXmXmX%   4X9X9X9X( / / I.,X,X1X1X,X;X;X;X.X.X.XoXOXOX.X.XoX;X;X<X1X1X2XeXM.R / E 7X9X9X&X{.  p mXmXmXmXmXmXmX",
"mXmXmXmXmXmXmXmX  $ 5X0X0XqX) / / ~ rXeXeXeX2X>X>X>XXXXX#X#X#X#X+X+XOX>X>X>XrXeXeXeXj / / R *X0X9X4XjX  y mXmXmXmXmXmXmX",
"mXmXmXmXmXmXmXmX  : 5X0XkX7X/ / ^ S qXuXyXuXyX7X7X7X$X@X#X$X$X4X@X@X#XwXwX8XrXqXyXI.W E ^ E $XkX0X5XjX$ < mXmXmXmXmXmXmX",
"mXmXmXmXmXmXmXmX  6 vXxXcXqXR / ` / V !.h.v.(.Z.K.#X4X4X4X&X&X&X9X9X9XzXiXiXiXzXqXz / _ E F  X&X5X5XjX, o mXmXmXmXmXmXmX",
"mXmXmXmXmXmXmXmX  s vXrX:Xn./ _ ` _ ~ :.h.x.h.5.&.&.0.V.P.$X&X5XkXkX0XzXzXzXxXcXA / _ _ E F }.&X5XhXjX7 o mXmXmXmXmXmXmX",
"mXmXmXmXmXmXmXmX  8 (.E.W.c.~ ` ` ` ` T v.h.h.5.5.5.7.9.9.=.6.Z.;XwXvXxXxXcXcX X^ ` ` ` E F }.jXhXhXhX6 o mXmXmXmXmXmXmX",
"mXmXmXmXmXmXmXmX  q Q.E.Q.b.) / ` ` / E B 0.7.7.7.9.7.7.5.p.p.p.E.^.[.,XeXuX*Xm / / / / Z v }.kX=X.XH.> % mXmXmXmXmXmXmX",
"mXmXmXmXmXmXmXmX  4 Q.E.E.z./ / ` _ ` / d B ;.9.8.7.&.&.=.p.p.p.E.k.R.R.k.^.j ~ ` / ( / C v <.w.7.5.A.= , mXmXmXmXmXmXmX",
"mXmXmXmXmXmXmXmX  # /.R.k.!.~ ~ ` ( ( / C d 9.;.=.7.=.=.=.p.p.p.k.k.k.k.E.4.S / ` / / ^ v v ;.6.8.5.B.@ y mXmXmXmXmXmXmX",
"mXmXmXmXmXmXmXmX& . ~.R.E.!.Y ~ _ D D A v B 9.;.=.=.8.8.8.k.k.k.k.k.k.k.z.4.S E / C Z Z C C 6.&.5.q.M   pXmXmXmXmXmXmXmX",
"mXmXmXmXmXmXmXmXi   u.R.k.E.#.R / A A S C l 1.&.&.=.8.8.:.z.k.l.z.l.k.k.k.4.S E / A A A b V 6.5.5.q.4   mXmXmXmXmXmXmXmX",
"mXmXmXmXmXmXmXmXfX  N E.k.E.b.~ W A A m v l ;.=.*.*.:.a.3.z.l.l.l.l.l.l.z.3.S E ^ A C b b <.5.=.=.h.# o mXmXmXmXmXmXmXmX",
"mXmXmXmXmXmXmXmXmX, > ^.k.k.8.B b k C b v d -.:.=.:.j.j.j.j.j.l.z.l.l.j.x.1.k b A b C k l 6.8.8.8.'.  & mXmXmXmXmXmXmXmX",
"mXmXmXmXmXmXmXmXmXaX  u.x.k.8.1.k k m b b d -.*.*.*.j.j.l.l.b.l.l.j.f.l.f.1.h k m m z j { &.8.8.9.w   gXmXmXmXmXmXmXmXmX",
"mXmXmXmXmXmXmXmXmXmX  8 E.x.=.9.V v l k h l *.:.:.#.2.U I c x Y 2.c.c.g.g.,.h k k b n B 9.=.8.8.t.O u mXmXmXmXmXmXmXmXmX",
"mXmXmXmXmXmXmXmXmXmXa   m.=.%.*.1.V b h k k G L V x L R P Q ] P P L V V >.^ h k k h V -.:.=.x.k.q   mXmXmXmXmXmXmXmXmXmX",
"mXmXmXmXmXmXmXmXmXmXmX  8 t.%.%.%.1.l k k k g K L P ] ] Q Q ' Q Q W W h g h j k h j -.=.:.=.x.).X , mXmXmXmXmXmXmXmXmXmX",
"mXmXmXmXmXmXmXmXmXmXmXi   0 ;.%.%.*.-.l j j c P P Q ' Q ' ' Q Q Q Q R k k j j h l O.*.*.:.:.Y.8   mXmXmXmXmXmXmXmXmXmXmX",
"mXmXmXmXmXmXmXmXmXmXmXmX&   M *.*.@.*.-.] P K P P Q Q Q Q Q Q Q x S x n h h h B -.*.*.*.j.z.> . pXmXmXmXmXmXmXmXmXmXmXmX",
"mXmXmXmXmXmXmXmXmXmXmXmXaX. O 1.*.@.@.%.d.$.K K P P ] ] Q Q Q Q x z z h h l V #.*.@.*.*.j.{   o mXmXmXmXmXmXmXmXmXmXmXmX",
"mXmXmXmXmXmXmXmXmXmXmXmXmXmX  # m.*.@.@.s.g.f.2.Y P P P ] L L T z j j c V ,.@.@.@.*.*.:.<.  2 mXmXmXmXmXmXmXmXmXmXmXmXmX",
"mXmXmXmXmXmXmXmXmXmXmXmXmXmXgX  X H g.3.s.s.s.s.d.c.4.Y Y V I I V U O.$.@.@.@.o.@.g.v.f   < mXmXmXmXmXmXmXmXmXmXmXmXmXmX",
"mXmXmXmXmXmXmXmXmXmXmXmXmXmXmXpX  . H c.g.d.d.s.s.s.d.c.c.4.2.2.+.o.@.$.@.#.o.$.@.b.0 . o mXmXmXmXmXmXmXmXmXmXmXmXmXmXmX",
"mXmXmXmXmXmXmXmXmXmXmXmXmXmXmXmXaX,   4 Y.c.s.d.d.d.d.d.d.2.2.2.$.+.$.$.$.@.o.-.N +   < mXmXmXmXmXmXmXmXmXmXmXmXmXmXmXmX",
"mXmXmXmXmXmXmXmXmXmXmXmXmXmXmXmXmXmXaX  . - { b.f.s.2.2.3.+.+.o.$.$.@.$.o.<.q -   , mXmXmXmXmXmXmXmXmXmXmXmXmXmXmXmXmXmX",
"mXmXmXmXmXmXmXmXmXmXmXmXmXmXmXmXmXmXmXmXpX%   + 3 f <.n.n.,.<.,.<.<.N 5 -     % dXmXmXmXmXmXmXmXmXmXmXmXmXmXmXmXmXmXmXmX",
"mXmXmXmXmXmXmXmXmXmXmXmXmXmXmXmXmXmXmXmXmXmXi     . + ; > 3 4 > > + .     * fXmXmXmXmXmXmXmXmXmXmXmXmXmXmXmXmXmXmXmXmXmX",
"mXmXmXmXmXmXmXmXmXmXmXmXmXmXmXmXmXmXmXmXmXmXmXmXbXdXy % . o o   o , i nXbXmXmXmXmXmXmXmXmXmXmXmXmXmXmXmXmXmXmXmXmXmXmXmX",
"mXmXmXmXmXmXmXmXmXmXmXmXmXmXmXmXmXmXmXmXmXmXmXmXmXmXmXmXmXmXmXmXmXmXmXmXmXmXmXmXmXmXmXmXmXmXmXmXmXmXmXmXmXmXmXmXmXmXmXmX",
"mXmXmXmXmXmXmXmXmXmXmXmXmXmXmXmXmXmXmXmXmXmXmXmXmXmXmXmXmXmXmXmXmXmXmXmXmXmXmXmXmXmXmXmXmXmXmXmXmXmXmXmXmXmXmXmXmXmXmXmX",
"mXmXmXmXmXmXmXmXmXmXmXmXmXmXmXmXmXmXmXmXmXmXmXmXmXmXmXmXmXmXmXmXmXmXmXmXmXmXmXmXmXmXmXmXmXmXmXmXmXmXmXmXmXmXmXmXmXmXmXmX",
"mXmXmXmXmXmXmXmXmXmXmXmXmXmXmXmXmXmXmXmXmXmXmXmXmXmXmXmXmXmXmXmXmXmXmXmXmXmXmXmXmXmXmXmXmXmXmXmXmXmXmXmXmXmXmXmXmXmXmXmX",
"mXmXmXmXmXmXmXmXmXmXmXmXmXmXmXmXmXmXmXmXmXmXmXmXmXmXmXmXmXmXmXmXmXmXmXmXmXmXmXmXmXmXmXmXmXmXmXmXmXmXmXmXmXmXmXmXmXmXmXmX",
"mXmXmXmXmXmXmXmXmXmXmXmXmXmXmXmXmXmXmXmXmXmXmXmXmXmXmXmXmXmXmXmXmXmXmXmXmXmXmXmXmXmXmXmXmXmXmXmXmXmXmXmXmXmXmXmXmXmXmXmX"
};
