/* XPM */
static char *result[] = {
/* columns rows colors chars-per-pixel */
"60 60 166 2 ",
"   c gray3",
".  c #181410",
"X  c #181718",
"o  c #181818",
"O  c #181C18",
"+  c #211008",
"@  c #311408",
"#  c #392010",
"$  c #212421",
"%  c #292829",
"&  c #292C29",
"*  c #2D2E2D",
"=  c #313031",
"-  c #313431",
";  c #631C00",
":  c #4A2818",
">  c #5A2C18",
",  c #7B2400",
"<  c #622D16",
"1  c #602D18",
"2  c #632C18",
"3  c #622E18",
"4  c #602F1B",
"5  c #622F1B",
"6  c #633018",
"7  c #62301C",
"8  c #423021",
"9  c #5A3C26",
"0  c #5A3A29",
"q  c #5A3C29",
"w  c #5D3F29",
"e  c #5E3E29",
"r  c #633C29",
"t  c #733821",
"y  c #7B3C24",
"u  c #7B3C29",
"i  c #7E3F29",
"p  c #5E4029",
"a  c #5A4134",
"s  c #604029",
"d  c #634129",
"f  c #604229",
"g  c #634529",
"h  c #654529",
"j  c #664429",
"k  c #6B4529",
"l  c #684629",
"z  c #68452C",
"x  c #6B4929",
"c  c #6E4829",
"v  c #6E482C",
"b  c #6F4B2D",
"n  c #6E492E",
"m  c #704A2E",
"M  c #734931",
"N  c #734D31",
"B  c #7B5131",
"V  c #7E5231",
"C  c #7F5331",
"Z  c #5A595A",
"A  c #5A5A5A",
"S  c #6B605A",
"D  c #814029",
"F  c #864229",
"G  c #844529",
"H  c #864529",
"J  c #8C4129",
"K  c #8C4229",
"L  c #8C4329",
"P  c #8C4529",
"I  c #8C4929",
"U  c #944929",
"Y  c #944D29",
"T  c #924A2C",
"R  c #944C2C",
"E  c #944D2D",
"W  c #974D2C",
"Q  c #9C4D29",
"!  c #9C4D2C",
"~  c #9C4E2C",
"^  c #9C5129",
"/  c #9C502C",
"(  c #9C512C",
")  c #845531",
"_  c #8C5134",
"`  c #915331",
"'  c #9C5131",
"]  c #9C5531",
"[  c #9A5537",
"{  c #97593A",
"}  c #A04F2D",
"|  c #A55121",
" . c #A55129",
".. c #A55529",
"X. c #A5512E",
"o. c #A4542E",
"O. c #A5552E",
"+. c #A8562E",
"@. c #AD5929",
"#. c #AA5A2E",
"$. c #AD5A2E",
"%. c #A55131",
"&. c #A55531",
"*. c #A95531",
"=. c #AD5531",
"-. c #A55931",
";. c #A55A31",
":. c #A55A34",
">. c #AD5931",
",. c #AD5934",
"<. c #AD5935",
"1. c #AD5A34",
"2. c #AD5939",
"3. c #94614A",
"4. c #A56D52",
"5. c #AD755A",
"6. c #846D60",
"7. c #846E62",
"8. c #A87C63",
"9. c #B88F76",
"0. c #BA8E76",
"q. c #8C8F90",
"w. c #9C9E9F",
"e. c #AD9A8C",
"r. c #ADAA9C",
"t. c #ADAAAD",
"y. c #B0A9A4",
"u. c #ADBABD",
"i. c #B9B4B1",
"p. c #B8B9B8",
"a. c #EFBD81",
"s. c #EFBE84",
"d. c #F7BE84",
"f. c #C8B5B0",
"g. c #F7C583",
"h. c #F2C184",
"j. c #F7C384",
"k. c #F4C484",
"l. c #F7C484",
"z. c #F7C584",
"x. c #CBC5BA",
"c. c #D1C5BA",
"v. c #ADCBD6",
"b. c #ADD3D6",
"n. c #B5D3DE",
"m. c #CBC5C3",
"M. c #CED7D6",
"N. c #E4CCC0",
"B. c #C8E2E4",
"V. c #DEE3E7",
"C. c #DEE7EF",
"Z. c #D6EBEF",
"A. c #DEFBFF",
"S. c #E4E9EC",
"D. c #E6EBEC",
"F. c #E7EFEF",
"G. c #EFF3F7",
"H. c #E7F7FF",
"J. c gray97",
"K. c #F7FBF7",
"L. c #F7FBFF",
"P. c #F7FFFF",
"I. c #FFFBFF",
"U. c #FCFEFF",
"Y. c white",
"T. c None",
/* pixels */
"T.T.T.T.T.T.T.T.T.T.T.T.T.T.T.T.T.T.T.T.T.T.T.T.T.T.T.T.T.T.T.T.T.T.T.T.T.T.T.T.T.T.T.T.T.T.T.T.T.T.T.T.T.T.T.T.T.T.T.T.",
"T.T.T.T.T.T.T.T.T.T.T.T.T.T.T.T.T.T.T.T.T.T.T.T.T.T.T.T.T.T.T.T.T.T.T.T.T.T.T.T.T.T.T.T.T.T.T.T.T.T.T.T.T.T.T.T.T.T.T.T.",
"T.T.T.T.T.T.T.T.T.T.T.T.T.T.T.T.T.T.T.T.T.T.T.T.T.T.T.T.T.T.T.T.T.T.T.T.T.T.T.T.T.T.T.T.T.T.T.T.T.T.T.T.T.T.T.T.T.T.T.T.",
"T.T.T.T.T.T.T.T.T.T.T.T.T.T.T.T.T.T.T.T.T.T.T.T.T.T.T.T.T.T.T.T.T.T.T.T.T.T.T.T.T.T.T.T.T.T.T.T.T.T.T.T.T.T.T.T.T.T.T.T.",
"T.T.T.T.T.T.T.T.T.T.T.T.T.T.T.T.T.T.T.T.T.T.T.T.T.T.T.T.T.T.T.T.T.T.T.T.T.T.T.T.T.T.T.T.T.T.T.T.T.T.T.T.T.T.T.T.T.T.T.T.",
"T.T.T.T.T.T.T.T.T.T.T.T.T.T.T.T.T.T.T.T.T.T.T.T.T.T.T.T.T.T.T.T.<.T.T.T.T.T.T.T.T.T.T.T.T.T.T.T.T.T.T.T.T.T.T.T.T.T.T.T.",
"T.T.T.T.T.T.T.T.T.T.T.T.T.T.T.T.T.T.T.T.T.T.T.T.T.T.T.<.,.,.,.,.,.>.>.<.<.T.T.T.T.T.T.T.T.T.T.T.T.T.T.T.T.T.T.T.T.T.T.T.",
"T.T.T.T.T.T.T.T.T.T.T.T.T.T.T.T.T.T.T.T.T.T.T.T.T.<.<.<.,.,.,.,.,.>.o <.<.<.<.T.T.T.T.T.T.T.T.T.T.T.T.T.T.T.T.T.T.T.T.T.",
"T.T.T.T.T.T.T.T.T.T.T.T.T.T.T.T.T.T.T.% T.T.T.T.<.<.,.,.>.>.>.$ $ % o X X >.>.<.T.T.T.T.T.T.T.T.T.T.T.T.T.T.T.T.T.T.T.T.",
"T.T.T.T.T.T.T.T.T.T.T.T.T.T.T.T.T.T.T.% T.T.T.<.<.<.,.,.>.>.>.$ $ o o X X o >.<.<.T.T.T.T.T.T.T.T.T.T.T.T.T.T.T.T.T.T.T.",
"T.T.T.T.T.T.T.T.T.T.T.T.T.T.T.T.T.T.o = T.T.,.,.,.,.>.>.>.% % O >.,.,.o o o >.>.>.<.T.T.T.T.T.T.T.T.T.T.T.T.T.T.T.T.T.T.",
"T.T.T.T.T.T.T.T.T.T.T.T.T.T.T.T.T.T.o = T.<.,.,.,.,.>.>.% >.>.>.>.,.,.>.>.>.o >.>.<.<.T.T.T.T.T.T.T.T.T.T.T.T.T.T.T.T.T.",
"T.T.T.T.T.T.T.T.T.T.T.T.T.T.T.T.T.T.T.- >.>.>.>.>.>.>.& >.>.>.>.>.>.>.,.,.,.,.,.,.,.,.<.T.T.T.T.T.T.T.T.T.T.T.T.T.T.T.T.",
"T.T.T.T.T.T.T.T.T.T.T.T.T.T.T.T.T.T.T.* $.$.$.$.>.>.& >.#.>.#.$.$.$.>.,.,.,.,.,.,.,.,.<.T.T.T.T.T.T.T.T.T.T.T.T.T.T.T.T.",
"T.T.T.T.T.T.T.T.T.T.T.T.T.T.T.T.T.T.T.* $.$.$.$.>.- >.>.#.#.#.$.$.>.>.,.,.,.,.,.,.,.,.<.T.T.T.T.T.T.T.T.T.T.T.T.T.T.T.T.",
"T.T.T.T.T.T.T.T.T.T.T.T.T.T.T.T.T.T.T.8 @.@.{ { : 7.9.-.@.@.@.$.$.,.,.,.,.,.,.,.,.,.,.,.,.T.T.T.T.T.T.T.T.T.T.T.T.T.T.T.",
"T.T.T.T.T.T.T.T.T.T.T.T.T.T.T.T.T.T.M.8 U @.{ ; K.K.A.x.+.@.@.$.>.,.,.,.,.,.,.,.,.,.,.,.,.<.T.T.T.T.T.T.T.T.T.T.T.T.T.T.",
"T.T.T.T.T.T.T.T.T.T.T.T.T.T.T.T.T.T.J.r ` ` & Y.U.Y.Y.S. .:.:.#.>.,.,.,.,.,.,.,.,.,.,.,.,.<.T.T.T.T.T.T.T.T.T.T.T.T.T.T.",
"T.T.T.T.T.T.T.T.T.T.T.T.T.T.T.T.T.i.J.r ` # p.Y.Y.Y.Y.Y. . .:.>.>.,.,.,.,.,.,.,.,.,.,.,.,.<.<.T.T.T.T.T.T.T.T.T.T.T.T.T.",
"T.T.T.T.T.T.T.T.T.T.T.T.T.T.T.T.T.G., _ a e.Z Z Y.Y.Y.Y.4.;.;.,.,.,.,.,.,.,.,.,.,.,.,.,.,.,.,.T.T.T.T.T.T.T.T.T.T.T.T.T.",
"T.T.T.T.T.T.T.T.T.T.T.T.T.T.T.T.q.q.r._ 6.@ t.t.Y.Y.Y.D.| ;.;.,.,.,.,.,.,.,.,.,.,.,.,.,.,.,.,.<.T.T.T.T.T.T.T.T.T.T.T.T.",
"T.T.T.T.T.T.T.T.T.T.T.T.T.T.T.T.G.& r._ 6.@   I.Y.Y.Y.D.| ;.;.,.,.,.,.,.,.,.,.,.,.,.,.,.,.,.,.<.T.T.T.T.T.T.T.T.T.T.T.T.",
"T.T.T.T.T.T.T.T.T.T.T.T.T.T.T.T.+ + >.>.w.. A Y.Y.Y.C.f.>.>.>.,.,.,.,.,.,.,.,.,.,.,.,.,.,.,.,.<.T.T.T.T.T.T.T.T.T.T.T.T.",
"T.T.T.T.T.T.T.T.T.T.T.T.T.T.T.Y.S S >.[ V.w.Y.Y.Y.Y.C.' >.>.>.,.,.,.,.,.,.,.,.,.,.,.,.,.,.,.,.<.<.T.T.T.T.T.T.T.T.T.T.T.",
"T.T.T.T.T.T.T.T.T.T.T.T.T.T.F.F.c.-.-.-.B.Y.Y.Y.H.H.5.=.,.,.,.,.,.,.,.,.,.,.,.,.,.,.,.,.,.,.,.,.,.T.T.T.T.T.T.T.T.T.T.T.",
"T.T.T.T.T.T.T.T.T.T.T.T.T.<.F.F.-.-.-.-.b.B.Z.Z.m.3.=.=.,.,.,.,.,.,.,.,.,.,.,.,.,.,.,.,.,.,.,.,.,.<.T.T.T.T.T.T.T.T.T.T.",
"T.T.T.T.T.T.T.T.T.T.T.T.T.>.u.&.#.#.>.Q 8.v.n.y.1.o.,.,.,.,.,.,.,.,.,.,.,.,.,.,.,.,.,.,.,.,.,.,.,.<.T.T.T.T.T.T.T.T.T.T.",
"T.T.T.T.T.T.T.T.T.T.T.T.>.>.&.&.#.#.>.>.....&.&.1.1.,.,.,.,.,.,.,.,.,.,.,.,.,.,.,.,.,.,.,.,.,.,.,.<.T.T.T.T.T.T.T.T.T.T.",
"T.T.T.T.T.T.T.T.T.T.T.T.>.>.>.>.>.>.>.>.>.>.>.>.>.>.>.>.,.,.,.,.,.,.,.,.,.,.,.,.,.,.,.,.,.,.,.,.,.<.<.T.T.T.T.T.T.T.T.T.",
"T.T.T.T.T.T.T.T.T.T.T.<.Y.>.>.>.>.>.>.>.>.>.>.>.>.>.Y.>.,.,.,.,.,.,.,.,.,.,.,.,.,.,.,.,.,.,.,.,.,.<.<.T.T.T.T.T.T.T.T.T.",
"T.T.T.T.T.T.T.T.T.T.T.<.Y.>.' ' ' ' ^ ^ ' ' ' >.>.>.Y.Y.,.,.,.,.,.,.,.,.,.,.,.,.,.,.,.,.,.,.,.,.,.<.<.T.T.T.T.T.T.T.T.T.",
"T.T.T.T.T.T.T.T.T.T.T.<.L.L.>.>.>.>.>.>.O.( ~ U ] P.Y.Y.>.>.>.,.,.,.,.,.,.,.,.,.,.,.,.,.,.,.,.,.,.,.,.<.T.T.T.T.T.T.T.T.",
"T.T.T.T.T.T.T.T.T.T.T.<.2.2.>.>.>.>.>.>.>.>.>.>.] 0.N.Y.' >.>.,.,.,.,.,.,.,.,.,.,.,.,.,.,.,.,.,.,.,.,.<.T.T.T.T.T.T.T.T.",
"T.T.T.T.T.T.T.T.T.T.<.<.>.>.>.>.>.>.>.>.>.>.>.>.<.<.>.>.,.,.,.,.,.,.,.>.>.>.>.>.>.,.,.,.,.,.,.>.>.>.>.>.T.T.T.T.T.T.T.T.",
"T.T.T.T.T.T.T.T.T.T.<.<.>.>.>.>.>.>.>.>.>.>.>.>.<.<.>.>.,.,.,.,.,.,.,.>.>.>.>.>.>.,.,.,.,.,.,.>.>.>.>.>.T.T.T.T.T.T.T.T.",
"T.T.T.T.T.T.T.T.T.T.T.&.=.=.=.=.=.=.=.=.=.=.%.%.=.=.=.=.=.=.=.=.=.=.=.=.=.=.=.=.=.=.=.=.=.=.=.=.=.=.=.*.T.T.T.T.T.T.T.T.",
"T.T.T.T.T.T.T.T.T.T.T.E T T U U U U U U U U R R T T W W } } } } } / Y Y Y Y Y ! X.X.X.X.X./ / / Y T T T.T.T.T.T.T.T.T.T.",
"T.T.T.T.T.T.T.T.T.T.T.L P P K K K K K K K K K K K K K K P P P P P P P P P F F H I I I G G G G P P J J T.T.T.T.T.T.T.T.T.",
"T.T.T.T.T.T.T.T.T.T.T.T.u u u u u u u u u u u u u u u u u u u u u u u u u u u u D u u i u u u y y u T.T.T.T.T.T.T.T.T.T.",
"T.T.T.T.T.T.T.T.T.T.T.T.T.u u u u u u u u u u u u u u u u u u u u u u u u u u u u u u u u u u y t T.T.T.T.T.T.T.T.T.T.T.",
"T.T.T.T.T.T.T.T.T.T.T.T.T.T.2 2 3 3 < < 5 5 3 3 6 6 6 6 5 5 5 5 5 5 5 5 5 4 4 1 1 5 5 5 5 7 7 2 T.T.T.T.T.T.T.T.T.T.T.T.",
"T.T.T.T.T.T.T.T.T.T.T.T.T.T.T.T.T.T.< < > > > > 6 s.s.s.> > > > > > > > > > > > > > > > > > T.T.T.T.T.T.T.T.T.T.T.T.T.T.",
"T.T.T.T.T.T.T.T.T.T.T.T.T.T.T.T.T.T.T.T.T.T.T.T.d.l.g.g.z.z.z.k.s.a.a.s.s.s.s.T.T.T.T.T.T.T.T.T.T.T.T.T.T.T.T.T.T.T.T.T.",
"T.T.T.T.T.T.T.T.T.T.T.T.T.T.T.T.T.T.T.T.T.T.T.T.l.l.g.g.z.z.z.k.h.a.a.s.s.s.s.T.T.T.T.T.T.T.T.T.T.T.T.T.T.T.T.T.T.T.T.T.",
"T.T.T.T.T.T.T.T.T.T.T.T.T.T.T.T.T.T.T.T.T.T.T.T.l.l.l.l.l.l.l.g.g.j.j.g.g.g.g.T.T.T.T.T.T.T.T.T.T.T.T.T.T.T.T.T.T.T.T.T.",
"T.T.T.T.T.T.T.T.T.T.T.T.T.T.T.T.T.T.T.T.T.T.T.T.l.l.l.l.l.l.l.g.g.z.z.g.g.g.g.T.T.T.T.T.T.T.T.T.T.T.T.T.T.T.T.T.T.T.T.T.",
"T.T.T.T.T.T.T.T.T.T.T.T.T.T.T.T.T.T.T.T.T.T.T.j.l.l.l.l.l.l.l.l.l.l.l.j.j.j.j.j.T.T.T.T.T.T.T.T.T.T.T.T.T.T.T.T.T.T.T.T.",
"T.T.T.T.T.T.T.T.T.T.T.T.T.T.T.T.T.T.T.T.T.T.T.j.l.l.l.l.l.l.l.l.l.l.l.j.j.j.d q q T.T.T.T.T.T.T.T.T.T.T.T.T.T.T.T.T.T.T.",
"T.T.T.T.T.T.T.T.T.T.T.T.T.T.T.T.T.T.T.T.T.T.N j.l.l.l.l.l.l.l.l.l.l.l.k k d d q q q T.T.T.T.T.T.T.T.T.T.T.T.T.T.T.T.T.T.",
"T.T.T.T.T.T.T.T.T.T.T.T.T.T.T.T.T.T.T.T.T.C x j.j.j.l.l.l.l.l.j.j.B B ) V B N N z q q T.T.T.T.T.T.T.T.T.T.T.T.T.T.T.T.T.",
"T.T.T.T.T.T.T.T.T.T.T.T.T.T.T.T.T.T.T.N B B x x q j.l.l.l.l.l.M M B B N N N N n z e q T.T.T.T.T.T.T.T.T.T.T.T.T.T.T.T.T.",
"T.T.T.T.T.T.T.T.T.T.T.T.T.T.T.T.T.T.T.b N m x s q j.j.j.j.j.j.N N N m c c x x x h q q T.T.T.T.T.T.T.T.T.T.T.T.T.T.T.T.T.",
"T.T.T.T.T.T.T.T.T.T.T.T.T.T.T.T.T.T.T.x m m s s q q q q j.j.q n n v v l l l j s q q q T.T.T.T.T.T.T.T.T.T.T.T.T.T.T.T.T.",
"T.T.T.T.T.T.T.T.T.T.T.T.T.T.T.T.T.T.T.g g f q q 9 9 9 9 q q q g g g g g g f f 0 0 q q T.T.T.T.T.T.T.T.T.T.T.T.T.T.T.T.T.",
"T.T.T.T.T.T.T.T.T.T.T.T.T.T.T.T.T.T.T.p q q q q 9 9 9 9 q q q q q f f f w q q 0 q q T.T.T.T.T.T.T.T.T.T.T.T.T.T.T.T.T.T.",
"T.T.T.T.T.T.T.T.T.T.T.T.T.T.T.T.T.T.T.T.0 0 q q q q q q T.T.T.0 0 0 0 0 0 0 0 q T.T.T.T.T.T.T.T.T.T.T.T.T.T.T.T.T.T.T.T.",
"T.T.T.T.T.T.T.T.T.T.T.T.T.T.T.T.T.T.T.T.0 0 q q q q q T.T.T.T.T.0 0 0 0 q q T.T.T.T.T.T.T.T.T.T.T.T.T.T.T.T.T.T.T.T.T.T.",
"T.T.T.T.T.T.T.T.T.T.T.T.T.T.T.T.T.T.T.T.T.T.T.T.T.T.T.T.T.T.T.T.T.T.T.T.T.T.T.T.T.T.T.T.T.T.T.T.T.T.T.T.T.T.T.T.T.T.T.T.",
"T.T.T.T.T.T.T.T.T.T.T.T.T.T.T.T.T.T.T.T.T.T.T.T.T.T.T.T.T.T.T.T.T.T.T.T.T.T.T.T.T.T.T.T.T.T.T.T.T.T.T.T.T.T.T.T.T.T.T.T.",
"T.T.T.T.T.T.T.T.T.T.T.T.T.T.T.T.T.T.T.T.T.T.T.T.T.T.T.T.T.T.T.T.T.T.T.T.T.T.T.T.T.T.T.T.T.T.T.T.T.T.T.T.T.T.T.T.T.T.T.T."
};
