/* XPM */
static char *_3b7689c461040c0a38ae7821712dd5dTV8odINqTYyJS5xF[] = {
/* columns rows colors chars-per-pixel */
"60 60 41 1 ",
"  c None",
". c #00000D",
"X c #200806",
"o c #3C1600",
"O c #4F1E00",
"+ c #781018",
"@ c #7B1018",
"# c #402006",
"$ c #592806",
"% c #6B3900",
"& c #683806",
"* c #080648",
"= c #3C3F4D",
"- c #302078",
"; c #31217B",
": c #B80808",
"> c #BD0808",
", c #843900",
"< c #F00803",
"1 c #F70800",
"2 c #F00806",
"3 c #8C4900",
"4 c #AD5A00",
"5 c #C67308",
"6 c #C06010",
"7 c #CE8C00",
"8 c #E88038",
"9 c #F7CE00",
"0 c yellow",
"q c #F0A858",
"w c #F7AD5A",
"e c #3040A8",
"r c #3142AD",
"t c #637B8C",
"y c #2036F7",
"u c #425ACE",
"i c #FFD793",
"p c #F8D098",
"a c #B0BEC4",
"s c gray97",
"d c #F8F8F8",
/* pixels */
"                                                            ",
"                                                            ",
"                                                            ",
"                                                            ",
"                                                            ",
"                               2222222                      ",
"                               2222222                      ",
"                            222222222222                    ",
"                          222222222222ssaa                  ",
"                         222222222222saatt                  ",
"                         222222222222att>:+                 ",
"                         222222222222att::@                 ",
"                       >>2222222222:::2222222               ",
"                       >>>222222>>:::22222222<              ",
"                    @@>>>>>>>>>>>>@...:::::++               ",
"                    @@>>>>>>>>>>>>+...:::::+@               ",
"                  @@@@>>>>>>>>>>@@.>::88w                   ",
"                  @@@@@>>>>>>@@@@@8aaswww                   ",
"                  @@@@@@@@@@@@@@88wss=wwi                   ",
"                  @@@@@@@@@@@@@@88wss=wwi                   ",
"                  ++++++++ii@@@#wwpddXpppp                  ",
"                  +@+++++i66i###iipddyppppp                 ",
"                    +@+++iqq6##&##pppppppppp                ",
"                      ###8iiiqq#iii$$iwwiippp               ",
"                      ###8iiiqq#iii$$iwwiippp               ",
"                      ####88qiiiii$..$88wwqqq               ",
"                       #####8qqqii......8888                ",
"                  sssstaa####888qqq$$.....                  ",
"                  sssstaa####888qqq$$.....                  ",
"                 tsssstssa###---88888888                    ",
"              ssstsssstsss::<<<r;;1>>                       ",
"              ssstaasstsss<<<::+rr;11>                      ",
"              ssstaasstsss2<<::+rr;11>                      ",
"              tsssaaaaassa<<:+++uu7rr;                      ",
"            dddaaaaaaaaaaatt++@rrr700r                      ",
"            dddddaaaaaasssssarrruuu99r                      ",
"            dddddaaaaaadssssarrruuu99r                      ",
"               ttttttttttssdarrruuuuur                      ",
"                       ;-rrrrrrrrruuue                      ",
"                       ;;rrrrrrrrrrrr-                      ",
"              ,OOO     ;;;rrrrrrrrr;;-                      ",
"              ,OOO     ;;-rrrrrrrrr;;-                      ",
"            44OOOOOO   -----rrrrrr---***                    ",
"           4OOOOOO-----------------********   ooooo         ",
"         44OOOOOOOrr--------------***********ooooooo        ",
"         44OOOOOOOrr--------------***********ooooooo        ",
"        4OOO%%%OO-rr------------*************ooooooo        ",
"        4OO%%%%%%rrr---------      **********oooooo,        ",
"        5OO%%%3%%r--------            *******oooooo,        ",
"        5OO%%%3%%r--------            *******oooooo,        ",
"        5OO%333%%---                  *****oooooo,,         ",
"         OO%33%%%                       **oooooo,           ",
"           %%%%                         oooooo,,            ",
"                                          ooo,              ",
"                                          ooo,              ",
"                                                            ",
"                                                            ",
"                                                            ",
"                                                            ",
"                                                            "
};
