/* XPM */
static char *result[] = {
/* columns rows colors chars-per-pixel */
"60 60 232 2 ",
"   c #180A06",
".  c #150B19",
"X  c #140E12",
"o  c #3B0A0B",
"O  c #3C1901",
"+  c #351806",
"@  c #291B1A",
"#  c #391715",
"$  c #2A1312",
"%  c #30211C",
"&  c #161629",
"*  c #04043C",
"=  c #181839",
"-  c #3A1A26",
";  c #28143F",
":  c #301B2F",
">  c #28282A",
",  c #372E2C",
"<  c #26283A",
"1  c #3A3B3B",
"2  c #373636",
"3  c #322F31",
"4  c #490909",
"5  c #59060A",
"6  c #560A08",
"7  c #461C01",
"8  c #4B1E02",
"9  c #471605",
"0  c #5A1408",
"q  c #581806",
"w  c #471716",
"e  c #561B19",
"r  c #400710",
"t  c #640808",
"y  c #7A0907",
"u  c #691C09",
"i  c #7A0516",
"p  c #6C0716",
"a  c #4D2102",
"s  c #47230B",
"d  c #532402",
"f  c #5A2601",
"g  c #592909",
"h  c #442614",
"j  c #562817",
"k  c #523315",
"l  c #6A2C03",
"z  c #632A04",
"x  c #743102",
"c  c #7A3405",
"v  c #702F02",
"b  c #441427",
"n  c #452A29",
"m  c #473B37",
"M  c #493827",
"N  c #6B2826",
"B  c #534539",
"V  c #4C4138",
"C  c #6F503A",
"Z  c #03044C",
"A  c #070847",
"S  c #191945",
"D  c #070852",
"F  c #171B5C",
"G  c #373843",
"H  c #34375D",
"J  c #040769",
"K  c #030878",
"L  c #171367",
"P  c #251677",
"I  c #660B53",
"U  c #6B074A",
"Y  c #472541",
"T  c #653A41",
"R  c #5A106A",
"E  c #651B7E",
"W  c #65207C",
"Q  c #5C0855",
"!  c #434444",
"~  c #464A4B",
"^  c #4B4C4D",
"/  c #4D4341",
"(  c #544E4D",
")  c #5B4D49",
"_  c #59514F",
"`  c #4D5151",
"'  c #525353",
"]  c #5C5554",
"[  c #575959",
"{  c #5A5B5B",
"}  c #595758",
"|  c #625C5B",
" . c #565B62",
".. c #605F61",
"X. c #676868",
"o. c #6A6C6C",
"O. c #646465",
"+. c #6A7375",
"@. c #747473",
"#. c #7A7B7B",
"$. c #777776",
"%. c #6D6D6C",
"&. c #8B0A05",
"*. c #870906",
"=. c #950908",
"-. c #88021B",
";. c #98021D",
":. c #A9070A",
">. c #B5050A",
",. c #BB0908",
"<. c #A30319",
"1. c #A60516",
"2. c #B30715",
"3. c #BA1016",
"4. c #BF1004",
"5. c #863904",
"6. c #862210",
"7. c #8F330C",
"8. c #960221",
"9. c #9B062B",
"0. c #84083D",
"q. c #8E0C29",
"w. c #AB132B",
"e. c #9A3C22",
"r. c #A42C2B",
"t. c #C50E03",
"y. c #CB0B04",
"u. c #C30809",
"i. c #CB0A0A",
"p. c #D20C04",
"a. c #DA0D03",
"s. c #D81405",
"d. c #CA0D14",
"f. c #C8140A",
"g. c #E10F02",
"h. c #E31303",
"j. c #EB1503",
"k. c #E91906",
"l. c #F41A03",
"z. c #FB1D03",
"x. c #F41301",
"c. c #FF2104",
"v. c #FA331A",
"b. c #D7362A",
"n. c #994205",
"m. c #83410A",
"M. c #A14605",
"N. c #BD7020",
"B. c #D36511",
"V. c #CD7A22",
"C. c #DA600D",
"Z. c #814549",
"A. c #996073",
"S. c #ED6756",
"D. c #D3726A",
"F. c #CA8437",
"G. c #E29138",
"H. c #A3866C",
"J. c #D29548",
"K. c #040B83",
"L. c #050B88",
"P. c #050D96",
"I. c #040D9A",
"U. c #181584",
"Y. c #2F128F",
"T. c #2C298F",
"R. c #040EA4",
"E. c #040FA8",
"W. c #0511AD",
"Q. c #0913AA",
"!. c #1B14A5",
"~. c #0512B4",
"^. c #0514BB",
"/. c #0B16BC",
"(. c #1719B9",
"). c #291AB2",
"_. c #1E24A5",
"`. c #431493",
"'. c #51188A",
"]. c #55278B",
"[. c #777C9E",
"{. c #636199",
"}. c #0616C3",
"|. c #0719CD",
" X c #0717C7",
".X c #071AD3",
"XX c #0A1DDB",
"oX c #091CD7",
"OX c #161ED6",
"+X c #181AC8",
"@X c #231EC0",
"#X c #0A1EE2",
"$X c #061FEC",
"%X c #051FF0",
"&X c #0C22E5",
"*X c #0D23EA",
"=X c #0721EE",
"-X c #132AEF",
";X c #1025E8",
":X c #0A25F5",
">X c #102FFF",
",X c #142CF2",
"<X c #1D35FD",
"1X c #1931F6",
"2X c #2037FF",
"3X c #2139FF",
"4X c #7D8283",
"5X c #838484",
"6X c #8B8D8D",
"7X c #84898B",
"8X c #8C9193",
"9X c #929393",
"0X c #989A9A",
"qX c #938F8E",
"wX c #A99E9B",
"eX c #9FA0A1",
"rX c #A3A4A4",
"tX c #AAABAB",
"yX c #ADB5B7",
"uX c #B5B6B6",
"iX c #A3ADB1",
"pX c #8582AB",
"aX c #EAB7B0",
"sX c #CBA19B",
"dX c #CAD4D6",
"fX c #CDD4D4",
"gX c #DBE3E3",
"hX c #EDF2F2",
"jX c #F4FCFC",
"kX c #FFFFFF",
"lX c #E1E8E5",
"zX c None",
/* pixels */
"zXzXzXzXzXzXzXzXzXzXzXzXzXzXzXzXzXzXzXzXzXzXzXzXzXzXzXzXzXzXzXzXzXzXzXzXzXzXzXzXzXzXzXzXzXzXzXzXzXzXzXzXzXzXzXzXzXzXzXzX",
"zXzXzXzXzXzXzXzXzXzXzXzXzXzXzXzXzXzXzXzXzXzXzXzXzXzXzXzXzXzXzXzXzXzXzXzXzXzXzXzXzXzXzXzXzXzXzXzXzXzXzXzXzXzXzXzXzXzXzXzX",
"zXzXzXzXzXzXzXzXzXzXzXzXzXzXzXzXzXzXzXzXzXzXzXzXzXzXzXzXzXzXzXzXzXzXzXzXzXzXzXzXzXzXzXzXzXzXzXzXzXzXzXzXzXzXzXzXzXzXzXzX",
"zXzXzXzXzXzXzXzXzXzXzXzXzXzXzXzXzXzXzXzXzXzXzXzXzXzXzXzXzXzXzXzXzXzXzXzXzXzXzXzXzXzXzXzXzXzXzXzXzXzXzXzXzXzXzXzXzXzXzXzX",
"zXzXzXzXzXzXzXzXzXzXzXzXzXzXzXzXzXzXzXzXzXzXzXzXzXzXzXzXzXzXzXzXzXzXzXzXzXzXzXzXzXzXzXzXzXzXzXzXzXzXzXzXzXzXzXzXzXzXzXzX",
"zXzXzXzXzXzXzXzXzXzXzXzXzXzXzXzXzXzXzXzXzXzXzXzXzXzX9X[ 1 1 1 1 1 1 ` 5XzXzXzXzXzXzXzXzXzXzXzXzXzXzXzXzXzXzXzXzXzXzXzXzX",
"zXzXzXzXzXzXzXzXzXzXzXzXzXzXzXzXzXzXzXzXzXzXzXzX9Xo.m w 6 t 5 6 6 6 4 n o.9XuXzXzXzXzXzXzXzXzXzXzXzXzXzXzXzXzXzXzXzXzXzX",
"zXzXzXzXzXzXzXzXzXzXzXzXzXzXzXzXzXzXzXzXzXzX0X} , % 6 &.4.t.t.4.t.t.=.0 @ m ) 9XzXzXzXzXzXzXzXzXzXzXzXzXzXzXzXzXzXzXzXzX",
"zXzXzXzXzXzXzXzXzXzXzXzXzXzXzXzXzXzXzXzXzX] w *.t.s.k.c.c.c.c.c.c.c.l.h.s.4.&.# ( 9XzXzXzXzXzXzXzXzXzXzXzXzXzXzXzXzXzXzX",
"zXzXzXzXzXzXzXzXzXzXzXzXzXzXzXzXzXzXzXzX| n y y.x.c.c.c.c.c.c.c.c.c.c.c.c.l.p.y w ( 6XzXzXzXzXzXzXzXzXzXzXzXzXzXzXzXzXzX",
"zXzXzXzXzXzXzXzXzXzXzXzXzXzXzXzXzXzXrX} # t t.l.c.c.c.c.c.c.c.c.c.c.c.c.c.c.c.p.t # / 9XzXzXzXzXzXzXzXzXzXzXzXzXzXzXzXzX",
"zXzXzXzXzXzXzXzXzXzXzXzXzXzXzXzXzXzXG r =.s.c.c.c.c.c.c.c.c.c.c.c.c.c.c.c.c.c.c.j.<.r m 0XzXzXzXzXzXzXzXzXzXzXzXzXzXzXzX",
"zXzXzXzXzXzXzXzXzXzXzXzXzXzXzXzXzXzX1 6 :.l.c.c.c.c.c.c.c.c.c.c.z.c.c.c.c.c.c.c.l.,.6 m 0XzXzXzXzXzXzXzXzXzXzXzXzXzXzXzX",
"zXzXzXzXzXzXzXzXzXzXzXzXzXzXzXzXzXzX3 6 4.c.c.c.c.c.z.z.k.s.j.a.h.j.z.z.c.c.c.c.c.t.t , 4XzXzXzXzXzXzXzXzXzXzXzXzXzXzXzX",
"zXzXzXzXzXzXzXzXzXzXzXzXzXzXzXzX6X/ w *.s.c.c.c.z.z.j.g.a.p.y.y.y.p.h.l.c.z.c.c.c.k.=.w 2 @.zXzXzXzXzXzXzXzXzXzXzXzXzXzX",
"zXzXzXzXzXzXzXzXzXzXzXzXzXzXzXzX[ # p 2.k.c.c.c.z.l.j.h.g.g.a.a.h.a.j.j.j.l.c.c.c.l.u.p # ! zXzXzXzXzXzXzXzXzXzXzXzXzXzX",
"zXzXzXzXzXzXzXzXzXzXzXzXzXzXzXzX! o =.p.l.c.z.c.z.l.j.l.l.l.l.l.l.l.l.j.l.c.c.c.c.z.s.=.4 , zXzXzXzXzXzXzXzXzXzXzXzXzXzX",
"zXzXzXzXzXzXzXzXzXzXzXzXzXzXzXzX! 9 =.a.x.z.c.c.c.c.c.c.c.c.c.c.c.c.z.c.c.c.c.c.z.x.a.:.9 2 zXzXzXzXzXzXzXzXzXzXzXzXzXzX",
"zXzXzXzXzXzXzXzXzXzXzXzXzXzXzXfX2 o &.i.a.j.z.c.c.c.c.c.c.c.c.c.c.c.c.c.c.c.c.c.x.g.y.*.o 3 zXzXzXzXzXzXzXzXzXzXzXzXzXzX",
"zXzXzXzXzXzXzXzXzXzXzXzXzXzXzXeX> o i 2.i.a.j.z.z.z.c.c.c.c.c.z.c.c.z.z.c.z.l.j.a.p.>.y o > #.zXzXzXzXzXzXzXzXzXzXzXzXzX",
"zXzXzXzXzXzXzXzXzXzXzXzXzXzXtX..B N -.<.2.,.u.s.j.j.l.l.z.z.z.z.z.z.l.l.j.j.s.i.>.2.<.q.N V ' 0XzXzXzXzXzXzXzXzXzXzXzXzX",
"zXzXzXzXzXzXzXzXzXzXzXzXzXzX%.+ J.G.r.i -.8.;.<.:.:.>.u.u.u.u.u.u.u.,.>.>.>.<.8.8.-.i e.F.J.k [ zXzXzXzXzXzXzXzXzXzXzXzX",
"zXzXzXzXzXzXzXzXzXzXzXzXzXzXX.+ V.V.m.u i 8.-.;.;.8.8.8.;.<.<.;.8.<.;.8.8.8.;.-.8.-.t 7.N.V.k [ zXzXzXzXzXzXzXzXzXzXzXzX",
"zXzXzXzXzXzXzXzXzXzXzXzXzXzX@.+ B.C.7.q 4 6 t -.8.8.8.8.8.8.8.8.8.8.8.8.8.;.-.p 5 6 9 c B.B.d ` zXzXzXzXzXzXzXzXzXzXzXzX",
"zXzXzXzXzXzXzXzXzXzXzXzXzXzXzXrXH.) s d x x f q u u u q 0 6 5 0 0 5 0 u u u q d x x d % C H.rXzXzXzXzXzXzXzXzXzXzXzXzXzX",
"zXzXzXzXzXzXzXzXzXzXzXzXzXzXzXzXuX#.m h l x f d d f f 8 9 9 9 7 7 9 8 f f f d f x v h V A.uXzXzXzXzXzXzXzXzXzXzXzXzXzXzX",
"zXzXzXzXzXzXzXzXzXzXzXzXzXzXzXzXzXzX#.B h a 7 d f g d a 8 8 8 8 7 8 8 d f g d 8 a h B #.zXzXzXzXzXzXzXzXzXzXzXzXzXzXzXzX",
"zXzXzXzXzXzXzXzXzXzXzXzXzXzXzXzXzXzXzXzX#.2   q x l d 8 z x x 5.5.f 7 q l x f   3 #.zXzXzXzXzXzXzXzXzXzXzXzXzXzXzXzXzXzX",
"zXzXzXzXzXzXzXzXzXzXzXzXzXzXzXzXzXzXzXzXrX' X $ Y Y b t y 6.6.7.6.y 5 b : Y : X ` uXzXzXzXzXzXzXzXzXzXzXzXzXzXzXzXzXzXzX",
"zXzXzXzXzXzXzXzXzXzXzXzXzXzXzXzXzXzXzXzX8X^ X D Q.W.Y.I q.1.1.1.<.9.I U.~.R.J . 1 0XzXzXzXzXzXzXzXzXzXzXzXzXzXzXzXzXzXzX",
"zXzXzXzXzXzXzXzXzXzXzXzXzXzXzXzXzXzX0X] j *.,.].#X%X%XOX`.0.0.3.9.'.OX$X=XOX'.2.&.e ] 9XzXzXzXzXzXzXzXzXzXzXzXzXzXzXzXzX",
"zXzXzXzXzXzXzXzXzXzXzXzXzXzXzXzXzXqXzXj &.u.2.'.*X%X%X$X+X`.`.'.'.).;X%X%X;XY.<.t.=.e ) 9XzXzXzXzXzXzXzXzXzXzXzXzXzXzXzX",
"zXzXzXzXzXzXzXzXzXzXzXzXzXzXzXzX6X' e =.f.i.U ).;X-X;X*X&XXXXXOXOX&X&X&X:X;X).U f.s.&.e ) 9XzXzXzXzXzXzXzXzXzXzXzXzXzXzX",
"zXzXzXzXzXzXzXzXzXzXzXzXzXzXrX[ # *.s.z.d.I ~.=X3X3X2X,X-X*X&X-X-X*X*X1X3X<X>X|.R d.z.s.*.o ~ eXzXzXzXzXzXzXzXzXzXzXzXzX",
"zXzXzXzXzXzXzXzXzXzXzXzXzXrX^   =.h.z.h.w.R .X>X3X3X2X1X1X<X<X1X2X2X<X2X3X<X>X&XY.9.g.z.g.:.o 1 0XzXzXzXzXzXzXzXzXzXzXzX",
"zXzXzXzXzXzXzXzXzXzXzXzXuX| w t h.l.l.3.I !.#X>X3X3X3X3X2X3X3X3X3X3X3X3X3X<X>X-XY.R w.l.z.h.&.o ( zXzXzXzXzXzXzXzXzXzXzX",
"zXzXzXzXzXzXzXzXzXzXzXzXO.> N D.v.l.d.U Y..X*X1X3X3X2X2X2X2X2X2X2X2X<X3X3X3X<X*XoX!.I 3.j.v.S.) . [ { zXzXzXzXzXzXzXzXzX",
"zXzXzXzXzXzXzXzXzXzXzX9X` ~ 9XaXS.v.r.E !.|.XX:X2X3X3X2X2X2X2X2X2X3X3X3X3X3X1X#X.X!.E 0.b.S.aXwX! ~ ! 7XzXzXzXzXzXzXzXzX",
"zXzXzXzXzXzXzXzXzXzXzX{ ' 7XfXjXaXH.A.{._.^.}.#X-X<X2X2X2X2X2X2X2X3X3X3X<X1X;X|.^.!.].A.D.aXhXlX8X` ` { zXzXzXzXzXzXzXzX",
"zXzXzXzXzXzXzXzXzXzXzX^ 4XgXkXkXkXjXfXpXT.L.R.~. X#X;X-X,X2X2X2X2X1X,X-X&X}.~.Q.L.T.{.dXhXkXkXkXhX4X4X^ zXzXzXzXzXzXzXzX",
"zXzXzXzXzXzXzXzXzXzXzX~ 4XgXjXkXkXkXgX8XH J P.W.W.}.|.oX*X1X1X2X>X&X.X|.}.~.E.R.J L [.dXkXkXkXkXjX7X7X^ zXzXzXzXzXzXzXzX",
"zXzXzXzXzXzXzXzXzXzXzX! X.dXjXkXhXgXyX+.< D I.~.W.~.~.~. XXXXX;XXX X~.~.~.~.~.E.Z = X.yXgXhXkXkXdX+.+.~ zXzXzXzXzXzXzXzX",
"zXzXzXzXzXzXzXzXzXzXzX{ ~ 4XfXjXlXyX+.1 & Z P.^.W.W.W.I.L.K.K.K L.L.P.R.E.~.~.W.Z . 3 +.iXfXjXdX7X' ' ..zXzXzXzXzXzXzXzX",
"zXzXzXzXzXzXzXzXzXzXzXzX5X^ ~ +. .! ! > & Z P.^.W.I.K A G o.o.5X@.G A K P.E.^.W.Z . > G ~  .+.[ ~ #.#.zXzXzXzXzXzXzXzXzX",
"zXzXzXzXzXzXzXzXzXzXzXzXzX6X` > > } $.[ & A I.}.R.K Z & ' zXzXzXzX .= Z K W.}.W.D & ^ X.[ > > ` 5XzXzXzXzXzXzXzXzXzXzXzX",
"zXzXzXzXzXzXzXzXzXzXzXzXzXzXzXzXzXzXzXO.> * I.^.R.K * & ..zXzXzXzXo.& * J R.^.W.D & { zXzXzXzXzXzXzXzXzXzXzXzXzXzXzXzXzX",
"zXzXzXzXzXzXzXzXzXzXzXzXzXzXzXzXzXzXO.F I.^.~.~.R.K.Z & { zXzXzXzXX.& A K Q.~.~.}.P.F  .zXzXzXzXzXzXzXzXzXzXzXzXzXzXzXzX",
"zXzXzXzXzXzXzXzXzXzXzXzXzXzXzXzXzXzX3 * K /.|..X|.~.K = [ zXzXzXzXo.= K W.|.oX.X(.U.A G 5XzXzXzXzXzXzXzXzXzXzXzXzXzXzXzX",
"zXzXzXzXzXzXzXzXzXzXzXzXzXzXzXzXzX%.@ X S P /.oX+X XK.S } zXzXzXzXo.S K }.OX.X|.T.; X @  .uXzXzXzXzXzXzXzXzXzXzXzXzXzXzX",
"zXzXzXzXzXzXzXzXzXzXzXzXzXzXzXzX} @ a f d 9 - - - , @ @ } zXzXzXzXO.> @ b - - - # d z 8 + 1 zXzXzXzXzXzXzXzXzXzXzXzXzXzX",
"zXzXzXzXzXzXzXzXzXzXzXzXzXzXzXzX2 s c 5.f O O O a z a @ ' zXzXzXzX[ @ 7 f d O O O f 5.5.s > zXzXzXzXzXzXzXzXzXzXzXzXzXzX",
"zXzXzXzXzXzXzXzXzXzXzXzXzXzXzXzX! s n.n.x a a 8 f v f M X.zXzXzXzX@.n d l f 8 a 8 l n.5.g ! zXzXzXzXzXzXzXzXzXzXzXzXzXzX",
"zXzXzXzXzXzXzXzXzXzXzXzXzXzXzXzXzX5Xm k 5.n.5.c 8 M A.zXzXzXzXzXzXzXzX5Xm g v 5.M.5.g B $.zXzXzXzXzXzXzXzXzXzXzXzXzXzXzX",
"zXzXzXzXzXzXzXzXzXzXzXzXzXzXzXzXzXzX5X) k s s O M #.zXzXzXzXzXzXzXzXzXzXqXB + O a j ) 5XzXzXzXzXzXzXzXzXzXzXzXzXzXzXzXzX",
"zXzXzXzXzXzXzXzXzXzXzXzXzXzXzXzXzXzXzX6XX._ ' _ @.zXzXzXzXzXzXzXzXzXzXzXzX6X] ] ] O.9XzXzXzXzXzXzXzXzXzXzXzXzXzXzXzXzXzX",
"zXzXzXzXzXzXzXzXzXzXzXzXzXzXzXzXzXzXzXzXzXzXzXzXzXzXzXzXzXzXzXzXzXzXzXzXzXzXzXzXzXzXzXzXzXzXzXzXzXzXzXzXzXzXzXzXzXzXzXzX",
"zXzXzXzXzXzXzXzXzXzXzXzXzXzXzXzXzXzXzXzXzXzXzXzXzXzXzXzXzXzXzXzXzXzXzXzXzXzXzXzXzXzXzXzXzXzXzXzXzXzXzXzXzXzXzXzXzXzXzXzX",
"zXzXzXzXzXzXzXzXzXzXzXzXzXzXzXzXzXzXzXzXzXzXzXzXzXzXzXzXzXzXzXzXzXzXzXzXzXzXzXzXzXzXzXzXzXzXzXzXzXzXzXzXzXzXzXzXzXzXzXzX",
"zXzXzXzXzXzXzXzXzXzXzXzXzXzXzXzXzXzXzXzXzXzXzXzXzXzXzXzXzXzXzXzXzXzXzXzXzXzXzXzXzXzXzXzXzXzXzXzXzXzXzXzXzXzXzXzXzXzXzXzX",
"zXzXzXzXzXzXzXzXzXzXzXzXzXzXzXzXzXzXzXzXzXzXzXzXzXzXzXzXzXzXzXzXzXzXzXzXzXzXzXzXzXzXzXzXzXzXzXzXzXzXzXzXzXzXzXzXzXzXzXzX"
};
