/* XPM */
static char *result[] = {
/* columns rows colors chars-per-pixel */
"60 60 242 2 ",
"   c #080607",
".  c #170802",
"X  c #181517",
"o  c #120D13",
"O  c #240D02",
"+  c #280907",
"@  c #360C09",
"#  c #26130A",
"$  c #3D1A02",
"%  c #351504",
"&  c #251715",
"*  c #391015",
"=  c #35251B",
"-  c #070726",
";  c #131525",
":  c #060738",
">  c #131933",
",  c #261531",
"<  c #1E2020",
"1  c #282526",
"2  c #362A27",
"3  c #26263B",
"4  c #393737",
"5  c #32302F",
"6  c #480907",
"7  c #580807",
"8  c #431C02",
"9  c #4A1807",
"0  c #591209",
"q  c #511613",
"w  c #4A0A11",
"e  c #670806",
"r  c #79070A",
"t  c #62180B",
"y  c #730514",
"u  c #71130E",
"i  c #4E2302",
"p  c #44230C",
"a  c #4B260B",
"s  c #562401",
"d  c #562706",
"f  c #482818",
"g  c #533415",
"h  c #632902",
"j  c #6C2E02",
"k  c #692806",
"l  c #712B03",
"z  c #713103",
"x  c #793505",
"c  c #6D320A",
"v  c #5D0720",
"b  c #75092D",
"n  c #462D28",
"m  c #543A27",
"M  c #443D3B",
"N  c #473734",
"B  c #492F29",
"V  c #7D491A",
"C  c #5B452E",
"Z  c #724C25",
"A  c #050649",
"S  c #131143",
"D  c #050553",
"F  c #383942",
"G  c #2B3743",
"H  c #060A68",
"J  c #030774",
"K  c #121675",
"L  c #2F266E",
"P  c #2E166C",
"I  c #422848",
"U  c #520E6E",
"Y  c #6C1568",
"T  c #650A5D",
"R  c #33475E",
"E  c #484748",
"W  c #525354",
"Q  c #5C5D5D",
"!  c #595756",
"~  c #59504F",
"^  c #635750",
"/  c #63605C",
"(  c #5F6060",
")  c #636464",
"_  c #6A6A6B",
"`  c #6A6867",
"'  c #6F7071",
"]  c #747474",
"[  c #7B7C7C",
"{  c #757878",
"}  c #860906",
"|  c #940A05",
" . c #990707",
".. c #860417",
"X. c #960518",
"o. c #8F120F",
"O. c #A80905",
"+. c #BA0708",
"@. c #A70415",
"#. c #B60611",
"$. c #873B05",
"%. c #8D052C",
"&. c #B11532",
"*. c #AD2E17",
"=. c #C70A07",
"-. c #DC0E02",
";. c #D20C04",
":. c #DA1605",
">. c #C71204",
",. c #E40E02",
"<. c #EE1603",
"1. c #E61503",
"2. c #F31602",
"3. c #F41B04",
"4. c #FB1C03",
"5. c #FC1500",
"6. c #CD3113",
"7. c #FF2104",
"8. c #FB2B0D",
"9. c #FB2612",
"0. c #C31722",
"q. c #994306",
"w. c #88521C",
"e. c #9A5A1B",
"r. c #8E4C13",
"t. c #BA540B",
"y. c #B04E0B",
"u. c #96611E",
"i. c #AC631B",
"p. c #8B4F21",
"a. c #92672F",
"s. c #B07531",
"d. c #D84912",
"f. c #CD6C1A",
"g. c #F65338",
"h. c #EC4C31",
"j. c #DC6729",
"k. c #A53D5F",
"l. c #802751",
"z. c #92754E",
"x. c #A57C57",
"c. c #F46351",
"v. c #BA823B",
"b. c #BAAD3A",
"n. c #DB8328",
"m. c #D78E39",
"M. c #F7922D",
"N. c #E99539",
"B. c #EE8C30",
"V. c #FCA53E",
"C. c #AF8C4C",
"Z. c #A98E6B",
"A. c #CE954C",
"S. c #EAA14B",
"D. c #FAAA46",
"F. c #FAB657",
"G. c #EFAD56",
"H. c #CEAA72",
"J. c #ECB769",
"K. c #E3AF61",
"L. c #FEC05F",
"P. c #FEC367",
"I. c #FDCC74",
"U. c #FED27C",
"Y. c #EEC074",
"T. c #030B8B",
"R. c #040E98",
"E. c #211E8B",
"W. c #362F91",
"Q. c #040FA3",
"!. c #0512AD",
"~. c #0A12A9",
"^. c #0513B3",
"/. c #0917BD",
"(. c #1515B5",
"). c #1119A4",
"_. c #381AA8",
"`. c #301AB5",
"'. c #3331B3",
"]. c #1820B5",
"[. c #551688",
"{. c #4A1B99",
"}. c #4B52B1",
"|. c #5E6598",
" X c #0618C9",
".X c #161DC7",
"XX c #081CDB",
"oX c #101ED6",
"OX c #211FC3",
"+X c #1327DC",
"@X c #293AD8",
"#X c #071EE9",
"$X c #111FE3",
"%X c #0D23E9",
"&X c #0825F9",
"*X c #142EF7",
"=X c #172EEF",
"-X c #2A3FE3",
";X c #3745C7",
":X c #4C5BC9",
">X c #6579D2",
",X c #5665C4",
"<X c #827EA4",
"1X c #7E8588",
"2X c #618A98",
"3X c #778BB4",
"4X c #7A88CD",
"5X c #838484",
"6X c #888A88",
"7X c #969696",
"8X c #8B9498",
"9X c #98A4A9",
"0X c #A6A7A7",
"qX c #ADB3B4",
"wX c #A59386",
"eX c #D39B90",
"rX c #CBBAAB",
"tX c #E4AA93",
"yX c #FFDA8A",
"uX c #FCD787",
"iX c #E5C98C",
"pX c #FEE298",
"aX c #D0C5AD",
"sX c #EEC3B3",
"dX c #FDE8A6",
"fX c #FDEEB9",
"gX c #8997D0",
"hX c #B0BBCC",
"jX c #9DACD9",
"kX c #B0C6CC",
"lX c #BDCAED",
"zX c #D2DBDC",
"xX c #CED5CD",
"cX c #E8D5CD",
"vX c #FEF3C6",
"bX c #F9F1D1",
"nX c #EDF1F0",
"mX c #FFFFFF",
"MX c #F7FBF8",
"NX c #F4F4E7",
"BX c #D0DBE8",
"VX c None",
/* pixels */
"VXVXVXVXVXVXVXVXVXVXVXVXVXVXVXVXVXVXVXVXVXVXVXVXVXVXVXVXVXVXVXVXVXVXVXVXVXVXVXVXVXVXVXVXVXVXVXVXVXVXVXVXVXVXVXVXVXVXVXVX",
"VXVXVXVXVXVXVXVXVXVXVXVXVXVXVXVXVXVXVXVXVXVXVXVXVXVXVXVXVXVXVXVXVXVXVXVXVXVXVXVXVXVXVXVXVXVXVXVXVXVXVXVXVXVXVXVXVXVXVXVX",
"VXVXVXVXVXVXVXVXVXVXVXVXVXVXVXVXVXVXVXVXVXVXVXVXVXVXVXVXVXVXVXVXVXVXVXVXVXVXVXVXVXVXVXVXVXVXVXVXVXVXVXVXVXVXVXVXVXVXVXVX",
"VXVXVXVXVXVXVXVXVXVXVXVXVXVXVXVXVXVXVXVXVXVXVXVXVXVXVXVXVXVXVXVXVXVXVXVXVXVXVXVXVXVXVXVXVXVXVXVXVXVXVXVXVXVXVXVXVXVXVXVX",
"VXVXVXVXVXVXVXVXVXVXVXVXVXVXVXVXVXVXVXVXVXVXVXVXVXVXVXVXVXVXVXVXVXVXVXVXVXVXVXVXVXVXVXVXVXVXVXVXVXVXVXVXVXVXVXVXVXVXVXVX",
"VXVXVXVXVXVXVXVXVXVXVXVXVXVXVXVXVXVXVXVXVXVXVXVXVXVX7 7 7 7 6 2 ` VXVXVXVXVXVXVXVXVXVXVXVXVXVXVXVXVXVXVXVXVXVXVXVXVXVXVX",
"VXVXVXVXVXVXVXVXVXVXVXVXVXVXVXVXVXVXVXVXVXVXE * | ;.:.:.:.:.+.7 & 1 C { VXVXVXVXVXVXVXVXVXVXVXVXVXVXVXVXVXVXVXVXVXVXVXVX",
"VXVXVXVXVXVXVXVXVXVXVXVXVXVXVXVXVXVXVXVXVXQ G C 6.3.4.4.4.4.3.O.} t w N ' VXVXVXVXVXVXVXVXVXVXVXVXVXVXVXVXVXVXVXVXVXVXVX",
"VXVXVXVXVXVXVXVXVXVXVXVXVXVXVXVXVXVXVXVX` < <XrXc.9.4.4.7.7.7.7.7.3.>.| 0 5 |.VXVXVXVXVXVXVXVXVXVXVXVXVXVXVXVXVXVXVXVXVX",
"VXVXVXVXVXVXVXVXVXVXVXVXVXVXVXVXVXVXVX6X4 & 9XcXc.9.4.7.7.7.7.7.7.7.4.1.O.% F Z.VXVXVXVXVXVXVXVXVXVXVXVXVXVXVXVXVXVXVXVX",
"VXVXVXVXVXVXVXVXVXVXVXVXVXVXVXVXVXVX6XI X 1 9XcXc.9.3.7.7.7.7.7.7.7.7.4.:.} 6 M 5XVXVXVXVXVXVXVXVXVXVXVXVXVXVXVXVXVXVXVX",
"VXVXVXVXVXVXVXVXVXVXVXVXVXVXVXVXVX6XM # 6 c wXtXh.0.<.4.7.7.7.7.7.7.7.7.5.-.e # M ] VXVXVXVXVXVXVXVXVXVXVXVXVXVXVXVXVXVX",
"VXVXVXVXVXVXVXVXVXVXVXVXVXVX{ { N t  .-.2.4.4.=.r 7 e | ;.5.7.7.7.7.7.7.7.7.<.+.} e 0 q N N VXVXVXVXVXVXVXVXVXVXVXVXVXVX",
"VXVXVXVXVXVXVXVXVXVXVXVXVXVXQ Q f } =.1.<.4.4.=.7 + + 7 O.-.4.7.7.7.7.7.7.7.7.<.1.:.>. .q q E VXVXVXVXVXVXVXVXVXVXVXVXVX",
"VXVXVXVXVXVXVXVXVXVXVXVXVXVX6X6X^ u } | O.;.9.6.t 8 s l o.O.-.2.4.7.7.7.7.7.7.7.7.7.3.:.| | q ~ VXVXVXVXVXVXVXVXVXVXVXVX",
"VXVXVXVXVXVXVXVXVXVXVXVXVXVXVXVXVX7X_ E 1 w t.N.H.H.J.N.t.|  .@.+.;.1.<.3.7.7.7.7.7.7.7.7.7. .+ VXVXVXVXVXVXVXVXVXVXVXVX",
"VXVXVXVXVXVXVXVXVXVXVXVXVXVXVXVXVXVXVXVXW X r.G.sXcXbXU.N.d.X... .O.=.,.<.4.4.7.7.7.7.7.7.7. .@ VXVXVXVXVXVXVXVXVXVXVXVX",
"VXVXVXVXVXVXVXVXVXVXVXVXVXVXVXVXVXVXVXVX[ < a.A.Z.7XaXfXuXN.d.o.e r @.=.;.-.,.2.4.7.7.7.4.4.| & VXVXVXVXVXVXVXVXVXVXVXVX",
"VXVXVXVXVXVXVXVXVXVXVXVXVXVXVXVX|.W E C N c N.C.f E qXMXvXuXS.w.p 6 9 t r X.X.@.+.;.;.=.@.#.e # VXVXVXVXVXVXVXVXVXVXVXVX",
"VXVXVXVXVXVXVXVXVXVXVXVXVXVX{ [ ~ W ( _ z.v.F.v.$ E qXMXvXU.m.r.i 8 h w.p...r ..X.#.#.@.y y @ M VXVXVXVXVXVXVXVXVXVXVXVX",
"VXVXVXVXVXVXVXVXVXVXVXVXVX6XN N C Z.rXxXaXiXU.C.Z / qXNXfXJ.i.c h j e.s.A.p.k q y X.X.r * w 5 { VXVXVXVXVXVXVXVXVXVXVXVX",
"VXVXVXVXVXVXVXVXVXVXVXVX0XE C m C.iXfXNXbXdXdXH.C.Z.aXvXdXA.x s l $.f.B.D.C.Z $ q 7 7 w 5 5 ] VXVXVXVXVXVXVXVXVXVXVXVXVX",
"VXVXVXVXVXVXVXVXVXVXVXVX] + N.N.Y.uXpXpXdXdXpXP.Z.a.s.K.yXiXs.c $.f.M.D.I.yXv.a % O . 1 VXVXVXVXVXVXVXVXVXVXVXVXVXVXVXVX",
"VXVXVXVXVXVXVXVXVXVXVXVX6X& u.u.m.L.U.pXdXyXL.i.a # f s.J.pXF.s.f.n.F.uXyXF.e.i % O & E VXVXVXVXVXVXVXVXVXVXVXVXVXVXVXVX",
"VXVXVXVXVXVXVXVXVXVXVXVXVXQ = f V m.L.I.I.F.n.$.O   # Z K.U.I.G.S.F.P.P.D.j.q.$ O & E 6XVXVXVXVXVXVXVXVXVXVXVXVXVXVXVXVX",
"VXVXVXVXVXVXVXVXVXVXVXVXVXVX8X7X! C g m g p % .   . $ w.A.U.L.F.D.M.f.y.c j d i O 5 5XVXVXVXVXVXVXVXVXVXVXVXVXVXVXVXVXVX",
"VXVXVXVXVXVXVXVXVXVXVXVXVXVXVXVX7X' W 5 o     . $ d w.s.V.L.V.B.j.d.*.l $ i d d $ 2 _ 0XVXVXVXVXVXVXVXVXVXVXVXVXVXVXVXVX",
"VXVXVXVXVXVXVXVXVXVXVXVXVXVXVXVXVXVXVX[ M o   $ j r.i.n.M.M.j.6.*.o.} 6 # % i i i p n ) VXVXVXVXVXVXVXVXVXVXVXVXVXVXVXVX",
"VXVXVXVXVXVXVXVXVXVXVXVXVXVXVXVXVXVXVXVXVXVX_ X   . + 6 y X.%.P !.^.J -     o X X 5 Q VXVXVXVXVXVXVXVXVXVXVXVXVXVXVXVXVX",
"VXVXVXVXVXVXVXVXVXVXVXVXVXVXVXVXVXVXVXVXVXVXVX! X + 6 v U {.`.oX%X%XR.: X W { VXVXVXVXVXVXVXVXVXVXVXVXVXVXVXVXVXVXVXVXVX",
"VXVXVXVXVXVXVXVXVXVXVXVXVXVXVXVXVXVXVXVXVXVXVX! = w b Y `.%XoX(.OX.X!.H 3 ( VXVXVXVXVXVXVXVXVXVXVXVXVXVXVXVXVXVXVXVXVXVX",
"VXVXVXVXVXVXVXVXVXVXVXVXVXVXVXVXVXVXVXVXVXVXVXN t b Y `.%X&X(.U U `. X^.K 4 VXVXVXVXVXVXVXVXVXVXVXVXVXVXVXVXVXVXVXVXVXVX",
"VXVXVXVXVXVXVXVXVXVXVXVXVXVXVXVXVXVXVXVXVXVXM a i.C.}.&X&X_.b ;.&.[.$X$XQ.- I 9XVXVXVXVXVXVXVXVXVXVXVXVXVXVXVXVXVXVXVXVX",
"VXVXVXVXVXVXVXVXVXVXVXVXVXVXVXVXVXVXVXVXVX' m Z b.1X:X*X$X[.#.,.0.Y _.oX!.D 3 ' VXVXVXVXVXVXVXVXVXVXVXVXVXVXVXVXVXVXVXVX",
"VXVXVXVXVXVXVXVXVXVXVXVXVXVXVXVXVXVXVXVXVXN a.b.1X-X*X&X$X[.-.5.2.0.l.`.XXQ.D G 7XVXVXVXVXVXVXVXVXVXVXVXVXVXVXVXVXVXVXVX",
"VXVXVXVXVXVXVXVXVXVXVXVXVXVXVXVXVXVXVXVXVX1 u.C.:X*X&X*X(.T 4.4.5.2.&._.&X#XJ 3 5XVXVXVXVXVXVXVXVXVXVXVXVXVXVXVXVXVXVXVX",
"VXVXVXVXVXVXVXVXVXVXVXVXVXVXVXVXVXVXVXVXVX& I }.@X*X&XXX~.T 4.4.4.3.&._.&X&XJ 3 5XVXVXVXVXVXVXVXVXVXVXVXVXVXVXVXVXVXVXVX",
"VXVXVXVXVXVXVXVXVXVXVXVXVXVXVXVXVXVXVXVXVX; K +X%X%X%X+X}.Y 5.4.4.5.0.{.&X#XJ 3 5XVXVXVXVXVXVXVXVXVXVXVXVXVXVXVXVXVXVXVX",
"VXVXVXVXVXVXVXVXVXVXVXVXVXVXVXVXVXVXVXVXVX4 A R. X%X-X>X0XeXg.g.g.h.k.`.XXR.A F 7XVXVXVXVXVXVXVXVXVXVXVXVXVXVXVXVXVXVXVX",
"VXVXVXVXVXVXVXVXVXVXVXVXVXVXVXVXVXVXVXVXVX' 1 D ^.@X>XhXzXcXsXsXsXeX<X@X^.A 5 ] VXVXVXVXVXVXVXVXVXVXVXVXVXVXVXVXVXVXVXVX",
"VXVXVXVXVXVXVXVXVXVXVXVXVXVXVXVXVXVXVXVXVXVX4 : R.:XjXzXnXMXmXmXmXBXgX@XT.- W qXVXVXVXVXVXVXVXVXVXVXVXVXVXVXVXVXVXVXVXVX",
"VXVXVXVXVXVXVXVXVXVXVXVXVXVXVXVXVXVXVXVXVXVX/ - H '.4XzXMXmXmXmXmXMXlX,XH o { VXVXVXVXVXVXVXVXVXVXVXVXVXVXVXVXVXVXVXVXVX",
"VXVXVXVXVXVXVXVXVXVXVXVXVXVXVXVXVXVXVXVXVXVXVX] G S L ,XhXnXmXmXMXzX1XF 3 [ VXVXVXVXVXVXVXVXVXVXVXVXVXVXVXVXVXVXVXVXVXVX",
"VXVXVXVXVXVXVXVXVXVXVXVXVXVXVXVXVXVXVXVXVXVXVXVX' G : L 2XkXnXnXlXgX|.G 4 VXVXVXVXVXVXVXVXVXVXVXVXVXVXVXVXVXVXVXVXVXVXVX",
"VXVXVXVXVXVXVXVXVXVXVXVXVXVXVXVXVXVXVXVXVXVXVXVXVX` 1 > R 3XkXhX4X}.K > W VXVXVXVXVXVXVXVXVXVXVXVXVXVXVXVXVXVXVXVXVXVXVX",
"VXVXVXVXVXVXVXVXVXVXVXVXVXVXVXVXVXVXVXVXVXVXVXVXVXVXE : T.^.^./.Q.T.D ; W VXVXVXVXVXVXVXVXVXVXVXVXVXVXVXVXVXVXVXVXVXVXVX",
"VXVXVXVXVXVXVXVXVXVXVXVXVXVXVXVXVXVXVXVXVXVXVXVXVXVXR : T. X!.!.Q.J A - W VXVXVXVXVXVXVXVXVXVXVXVXVXVXVXVXVXVXVXVXVXVXVX",
"VXVXVXVXVXVXVXVXVXVXVXVXVXVXVXVXVXVXVXVXVXVXVXVXVXVXG A ^.%XXX/.Q.J A ; ! VXVXVXVXVXVXVXVXVXVXVXVXVXVXVXVXVXVXVXVXVXVXVX",
"VXVXVXVXVXVXVXVXVXVXVXVXVXVXVXVXVXVXVXVXVXVXVXVX' 4 & , L W._./. XQ.H ; F VXVXVXVXVXVXVXVXVXVXVXVXVXVXVXVXVXVXVXVXVXVXVX",
"VXVXVXVXVXVXVXVXVXVXVXVXVXVXVXVXVXVXVXVXVXVXVX] 5 # 8 d B B N E.].).H - 5 5XVXVXVXVXVXVXVXVXVXVXVXVXVXVXVXVXVXVXVXVXVXVX",
"VXVXVXVXVXVXVXVXVXVXVXVXVXVXVXVXVXVXVXVXVXVX8X4 # 8 h z l s 9 I L P , # # 4 0XVXVXVXVXVXVXVXVXVXVXVXVXVXVXVXVXVXVXVXVXVX",
"VXVXVXVXVXVXVXVXVXVXVXVXVXVXVXVXVXVXVXVXVXVX/ O i l $.z t s s i 9 8 $ p % . 5XVXVXVXVXVXVXVXVXVXVXVXVXVXVXVXVXVXVXVXVXVX",
"VXVXVXVXVXVXVXVXVXVXVXVXVXVXVXVXVXVXVXVXVXVX[ f x q.q.$.$.$.x j h h h d 8 2 7XVXVXVXVXVXVXVXVXVXVXVXVXVXVXVXVXVXVXVXVXVX",
"VXVXVXVXVXVXVXVXVXVXVXVXVXVXVXVXVXVXVXVXVXVXVX/ n k q.t.t.y.q.q.q.$.h $ 1 ` VXVXVXVXVXVXVXVXVXVXVXVXVXVXVXVXVXVXVXVXVXVX",
"VXVXVXVXVXVXVXVXVXVXVXVXVXVXVXVXVXVXVXVXVXVXVXVX! B l $.$.x z z l h i n ) VXVXVXVXVXVXVXVXVXVXVXVXVXVXVXVXVXVXVXVXVXVXVX",
"VXVXVXVXVXVXVXVXVXVXVXVXVXVXVXVXVXVXVXVXVXVXVXVXVXVX[ ` ` ) _ _ _ ` 1XVXVXVXVXVXVXVXVXVXVXVXVXVXVXVXVXVXVXVXVXVXVXVXVXVX",
"VXVXVXVXVXVXVXVXVXVXVXVXVXVXVXVXVXVXVXVXVXVXVXVXVXVXVXVXVXVXVXVXVXVXVXVXVXVXVXVXVXVXVXVXVXVXVXVXVXVXVXVXVXVXVXVXVXVXVXVX",
"VXVXVXVXVXVXVXVXVXVXVXVXVXVXVXVXVXVXVXVXVXVXVXVXVXVXVXVXVXVXVXVXVXVXVXVXVXVXVXVXVXVXVXVXVXVXVXVXVXVXVXVXVXVXVXVXVXVXVXVX",
"VXVXVXVXVXVXVXVXVXVXVXVXVXVXVXVXVXVXVXVXVXVXVXVXVXVXVXVXVXVXVXVXVXVXVXVXVXVXVXVXVXVXVXVXVXVXVXVXVXVXVXVXVXVXVXVXVXVXVXVX",
"VXVXVXVXVXVXVXVXVXVXVXVXVXVXVXVXVXVXVXVXVXVXVXVXVXVXVXVXVXVXVXVXVXVXVXVXVXVXVXVXVXVXVXVXVXVXVXVXVXVXVXVXVXVXVXVXVXVXVXVX"
};
