/* XPM */
static char *result[] = {
/* columns rows colors chars-per-pixel */
"60 60 199 2 ",
"   c #201D16",
".  c #3E391A",
"X  c #30311D",
"o  c #2F2D16",
"O  c #292B23",
"+  c #37272B",
"@  c #2C302A",
"#  c #3C3523",
"$  c #3A3729",
"%  c #3C3937",
"&  c #26353D",
"*  c #433C1B",
"=  c #4A2E35",
"-  c #493830",
";  c #77313B",
":  c #4D451E",
">  c #4E481D",
",  c #45401B",
"<  c #514B1D",
"1  c #5E551E",
"2  c #454225",
"3  c #4B4427",
"4  c #5B4E22",
"5  c #5A5425",
"6  c #444234",
"7  c #574D36",
"8  c #5A5534",
"9  c #6A5D24",
"0  c #645B23",
"q  c #645A34",
"w  c #6F5228",
"e  c #6C6227",
"r  c #716523",
"t  c #7A6D24",
"y  c #786B27",
"u  c #493B41",
"i  c #593948",
"p  c #63374B",
"a  c #6D3C53",
"s  c #733B54",
"d  c #7D3F5A",
"f  c #7D3040",
"g  c #31434B",
"h  c #4A4745",
"j  c #514E46",
"k  c #53444A",
"l  c #55484B",
"z  c #5B4A52",
"x  c #5A5756",
"c  c #4E5449",
"v  c #645E46",
"b  c #664B56",
"n  c #76465B",
"m  c #67575D",
"M  c #63615E",
"N  c #696758",
"B  c #63614D",
"V  c #415E70",
"C  c #794860",
"Z  c #685B62",
"A  c #765865",
"S  c #41667D",
"D  c #646663",
"F  c #6B6C6A",
"G  c #6A6961",
"H  c #7A626C",
"J  c #726666",
"K  c #7A6B72",
"L  c #7D7C7B",
"P  c #777575",
"I  c #6F6F71",
"U  c #873B3F",
"Y  c #855B32",
"T  c #85682A",
"R  c #8B7D27",
"E  c #867729",
"W  c #977A2C",
"Q  c #AC375E",
"!  c #B63861",
"~  c #82435F",
"^  c #844562",
"/  c #8A4565",
"(  c #8A4B67",
")  c #964B6D",
"_  c #9A4B6F",
"`  c #924769",
"'  c #89566D",
"]  c #92556F",
"[  c #9D4D71",
"{  c #8B5A71",
"}  c #995272",
"|  c #A25276",
" . c #AC527B",
".. c #A95278",
"X. c #8A6977",
"o. c #936E7E",
"O. c #817A79",
"+. c #857469",
"@. c #8E802B",
"#. c #93842A",
"$. c #9A8A28",
"%. c #958630",
"&. c #A5942C",
"*. c #AA972D",
"=. c #A48731",
"-. c #B59436",
";. c #A69633",
":. c #BBA62F",
">. c #BAA731",
",. c #C49C38",
"<. c #C5AB35",
"1. c #D5AC3B",
"2. c #CBB433",
"3. c #CCB734",
"4. c #D3BC35",
"5. c #DBC336",
"6. c #DDC638",
"7. c #E3CA37",
"8. c #E5CC39",
"9. c #E8CF3C",
"0. c #ECD33B",
"q. c #F0D63C",
"w. c #F3D93D",
"e. c #CDAA41",
"r. c #22658D",
"t. c #2676A9",
"y. c #B65682",
"u. c #BA5985",
"i. c #BE5988",
"p. c #B75783",
"a. c #857E82",
"s. c #957281",
"d. c #9B7383",
"f. c #9F7989",
"g. c #9D7986",
"h. c #A37B8C",
"j. c #AB7D90",
"k. c #C35C8B",
"l. c #C95F8F",
"z. c #CA5E91",
"x. c #C26688",
"c. c #CB6191",
"v. c #D26395",
"b. c #DE669E",
"n. c #D5649A",
"m. c #E0669F",
"M. c #DF66A0",
"N. c #E167A0",
"B. c #898587",
"V. c #948E92",
"C. c #9C9B9B",
"Z. c #979696",
"A. c #AB8294",
"S. c #B18799",
"D. c #B88B9D",
"F. c #B28798",
"G. c #A09D9D",
"H. c #A48F80",
"J. c #BF91A4",
"K. c #AF96A1",
"L. c #A3A4A3",
"P. c #ACABAC",
"I. c #AAA7A7",
"U. c #B2B2B2",
"Y. c #BDBCBC",
"T. c #B0AFB2",
"R. c #C28197",
"E. c #C293A6",
"W. c #C696AA",
"Q. c #CD99AE",
"!. c #C997AB",
"~. c #CE9CB1",
"^. c #D29EB4",
"/. c #D5A0B6",
"(. c #D7A2B8",
"). c #DCA5BB",
"_. c #DFA8BF",
"`. c #C0BCBE",
"'. c #E1A9BF",
"]. c #BBBFC2",
"[. c #DFA8C0",
"{. c #E3ABC2",
"}. c #E9AFC8",
"|. c #E8ADC5",
" X c #EDB2CB",
".X c #F1B4CD",
"XX c #F4B7D1",
"oX c #F5B8D2",
"OX c #C4C3C3",
"+X c #CDCCCC",
"@X c #C7C8C7",
"#X c #D0CDCE",
"$X c #D4D4D4",
"%X c #DDDDDD",
"&X c #D8D5D6",
"*X c #E0DFDF",
"=X c #DFE1E0",
"-X c #E1E1E1",
";X c None",
/* pixels */
";X;X;X;X;X;X;X;X;X;X;X;X;X;X;X;X;X;X;X;X;X;X;X;X;X;X;X;X;X;X;X;X;X;X;X;X;X;X;X;X;X;X;X;X;X;X;X;X;X;X;X;X;X;X;X;X;X;X;X;X",
";X;X;X;X;X;X;X;X;X;X;X;X;X;X;X;X;X;X;X;X;X;X;X;X;X;X;X;X;X;X;X;X;X;X;X;X;X;X;X;X;X;X;X;X;X;X;X;X;X;X;X;X;X;X;X;X;X;X;X;X",
";X;X;X;X;X;X;X;X;X;X;X;X;X;X;X;X;X;X;X;X;X;X;X;X;XP.OX;X;X;X;X+XG j U.;X;X;X;X;X;X;X;X;X;X;X;X;X;X;X;X;X;X;X;X;X;X;X;X;X",
";X;X;X;X;X;X;X;X;X;X;X;X;X;X;X;X;X;X;X;X;X;X;X;X;Xx 8 L +X;XG.v -.-.v OX*X*XC.;X;X;X;X;X;X;X;X;X;X;X;X;X;X;X;X;X;X;X;X;X",
";X;X;X;X;X;X;X;X;X;X;X;X;X;X;X;X;X;X;X;X;X;X;X;X=XN -.=.q v T e.e.<.-.q 7 j h *X;X;X;X;X;X;X;X;X;X;X;X;X;X;X;X;X;X;X;X;X",
";X;X;X;X;X;X;X;X;X;X;X;X;X;X;X;X;X;X;X;X;X;X;X%XS t.g ,.1.1.1.Y x.x.U -.%.=.& T.;X;X;X;X;X;X;X;X;X;X;X;X;X;X;X;X;X;X;X;X",
";X;X;X;X;X;X;X;X;X;X;X;X;X;X;X;X;X;X;X;X;X;X;X$XV r.& r T T W w Q ! U T 0 4 g OX;X;X;X;X;X;X;X;X;X;X;X;X;X;X;X;X;X;X;X;X",
";X;X;X;X;X;X;X;X;X;X;X;X;X;X;X;X;X;X;X;X=XC.C.M @ @ X * * * 9 T ; ; Y -.: 3 g Y.;X;X;X;X;X;X;X;X;X;X;X;X;X;X;X;X;X;X;X;X",
";X;X;X;X;X;X;X;X;X;X;X;X;X;X;X;X;X%XD , $.6.6.0.w.w.w.w.w.w.0.3.y * e >.6.6.8.3.y G =X;X;X;X;X;X;X;X;X;X;X;X;X;X;X;X;X;X",
";X;X;X;X;X;X;X;X;X;X;X;X$XD P.$XP.c 0 5.w.w.w.w.w.w.w.w.w.w.w.w.0.6.0.w.w.w.w.w.0.@.N %X;X;X;X;X;X;X;X;X;X;X;X;X;X;X;X;X",
";X;X;X;X;X;X;X;X;X;X;X;X@X@ # 6 2 E 5.w.w.w.w.w.w.w.w.w.w.w.w.w.w.w.w.w.w.w.w.w.w.9.R D OX;X;XY.;X;X;X;X;X;X;X;X;X;X;X;X",
";X;X;X;X;X;X;X;X;X;X;X;X+X% &.<.3.9.w.w.w.w.w.w.w.w.w.w.w.w.w.w.w.w.w.w.w.w.w.w.w.w.9.E 6 x c 6 $X;X;X;X;X;X;X;X;X;X;X;X",
";X;X;X;X;X;X;X;X;X;X;X;X;XF 1 7.w.w.w.w.w.w.w.w.w.w.w.w.w.w.w.w.w.w.w.w.w.w.w.w.w.w.w.w.w.q.&.c ;X;X;X;X;X;X;X;X;X;X;X;X",
";X;X;X;X;X;X;X;X;X;X;X;XL.O < #.0.w.w.w.w.w.w.w.w.w.w.w.w.w.w.w.w.w.w.w.w.w.w.w.w.w.w.w.w.0.t L ;X;X;X;X;X;X;X;X;X;X;X;X",
";X;X;X;X;X;X;X;X;X;X;X;XU.@ >.6.q.w.w.w.w.w.w.w.w.w.w.w.w.w.w.w.w.w.w.w.w.w.w.w.w.w.w.w.q.5.4 Z.;X;X;X;X;X;X;X;X;X;X;X;X",
";X;X;X;X;X;X;X;X;X;X;X;X;XD y 0.w.w.w.w.w.w.w.w.w.w.w.w.w.w.w.w.w.w.w.w.w.w.w.w.w.w.w.3.:.3.> F ;X;X;X;X;X;X;X;X;X;X;X;X",
";X;X;X;X;X;X;X;X;X;X;X;X;XU.. 2.w.w.w.w.w.w.w.w.w.w.w.w.w.w.w.w.w.w.w.w.w.w.w.w.w.w.w.2.E #.6 @X;X;X;X;X;X;X;X;X;X;X;X;X",
";X;X;X;X;X;X;X;X;X;X;X;X;X;Xx e 7.w.w.w.w.w.w.w.w.w.w.w.w.w.w.w.w.w.w.w.w.w.w.w.w.q.q.2.. 6 T.;X;X;X;X;X;X;X;X;X;X;X;X;X",
";X;X;X;X;X;X;X;X;X;X;X;X;X;X;X$XG t 7.w.w.w.w.w.w.w.w.w.w.w.w.w.w.w.w.w.w.w.w.w.w.w.q.3.2 %X;X;X;X;X;X;X;X;X;X;X;X;X;X;X",
";X;X;X;X;X;X;X;X;X;X;X;X;X;X;X;X+X8 4.w.w.w.w.w.w.w.w.w.w.w.w.w.w.w.w.w.w.w.w.w.w.w.w.5.< ].;X;X;X;X;X;X;X;X;X;X;X;X;X;X",
";X;X;X;X;X;X;X;X;X;X;X;X;X;X;X;XC.e 8.w.w.w.w.w.w.w.w.w.w.w.w.w.w.w.w.w.w.w.w.w.w.w.w.0.t L ;X;X;X;X;X;X;X;X;X;X;X;X;X;X",
";X;X;X;X;X;X;X;X;X;X;X;X;X;X-XL.8 <.w.w.w.w.w.w.w.w.w.w.w.w.w.w.w.w.w.w.w.w.w.w.w.w.w.w.5.8 I.;X;X;X;X;X;X;X;X;X;X;X;X;X",
";X;X;X;X;X;X;X;X;X;X;X;X;X;XL 4 2.8.w.w.w.w.w.w.w.w.w.w.w.w.w.w.w.w.w.w.w.w.w.w.w.w.7.2.w.0.R Z.;X;X;X;X;X;X;X;X;X;X;X;X",
";X;X;X;X;X;X;X;X;X;X;X;X;X;X%XF 3 e 2.w.w.w.w.w.w.w.w.w.w.w.w.w.w.w.w.w.w.w.w.w.w.w.9.*.9.;.N %X;X;X;X;X;X;X;X;X;X;X;X;X",
";X;X;X;X;X;X;X;X;X;X;X;X;X;X;X;XU.h >.w.w.w.w.w.w.w.w.w.w.w.w.w.w.w.w.w.w.w.w.w.w.w.0.%.E v OX;X;X;X;X;X;X;X;X;X;X;X;X;X",
";X;X;X;X;X;X;X;X;X;X;X;X;X;X;X;X;XD R w.w.w.w.w.w.w.w.w.w.w.w.w.w.w.w.w.w.w.w.w.w.w.0.e L.;X;X;X;X;X;X;X;X;X;X;X;X;X;X;X",
";X;X;X;X;X;X;X;X;X;X;X;X;X;X;X;XP.h < 0.w.w.w.w.w.w.w.w.w.w.w.w.w.w.w.w.w.w.w.w.w.w.0.e T.;X;X;X;X;X;X;X;X;X;X;X;X;X;X;X",
";X;X;X;X;X;X;X;X;X;X;X;X;X;X;XV.A A # 2.w.w.w.w.w.w.w.w.w.w.w.w.w.w.w.w.w.w.w.w.w.w.7.8 OX;X;X;X;X;X;X;X;X;X;X;X;X;X;X;X",
";X;X;X;X;X;X;X;X;X;X;X;X;X;XJ /.oXoXg.1 8.w.w.w.w.w.w.w.w.w.w.w.w.w.w.w.w.w.w.w.w.6.5 Z.;X;X;X;X;X;X;X;X;X;X;X;X;X;X;X;X",
";X;X;X;X;X;X;X;X;X;X;X;X;X@XX. XoXoXA.: 5.w.w.w.w.w.w.w.w.w.w.w.w.w.w.w.w.w.w.w.w.*.c ;X;X;X;X;X;X;X;X;X;X;X;X;X;X;X;X;X",
";X;X;X;X;X;X;X;X;X;X;X;X;XI.A.oXXXXXs.> 6.w.w.w.w.w.w.w.w.w.w.w.w.w.w.w.w.w.w.w.0.r G ;X;X;X;X;X;X;X;X;X;X;X;X;X;X;X;X;X",
";X;X;X;X;X;X;X;X;X;X;X;X;XC.D. X.X{.x R 0.w.w.w.w.w.w.w.w.w.w.w.w.w.w.w.w.w.w.w.0.&.6 B.T.;X;X;X;X;X;X;X;X;X;X;X;X;X;X;X",
";X;X;X;X;X;X;X;X;X;X;X;X;X=XH X.l % # 3 # #.%.w.w.w.w.w.w.w.w.w.w.w.w.w.w.w.w.w.w.w.:.2 L.;X;X;X;X;X;X;X;X;X;X;X;X;X;X;X",
";X;X;X;X;X;X;X;X;X;X;X;X;X;XY.I % i b u + R @.w.q.3.0.w.w.w.w.w.w.w.w.w.w.w.w.7.#.t 2 L ;X;X;X;X;X;X;X;X;X;X;X;X;X;X;X;X",
";X;X;X;X;X;X;X;X;X;X;X;X;X;X;X;X+Xx +.H.K r r w.4.r 6.w.w.w.w.w.w.w.w.q.q.q.w.2.$ I U.;X;X;X;X;X;X;X;X;X;X;X;X;X;X;X;X;X",
";X;X;X;X;X;X;X;X;X;X;X;X;X;X;X;X;XP L Y.#Xj j r 7 = 9 8.w.w.w.w.w.w.w.4.@.R 0.t B.;X;X;X;X;X;X;X;X;X;X;X;X;X;X;X;X;X;X;X",
";X;X;X;X;X;X;X;X;X;X;X;X;X;X;X;X;XL.I.-Xa.i i + s  .= r 4.q.q.q.w.w.w.&.* , :.* x %X;X;X;X;X;X;X;X;X;X;X;X;X;X;X;X;X;X;X",
";X;X;X;X;X;X;X;X;X;X;X;X;X;X;X;X;X&XL a.a a a i s _ ` = * $.7.q.w.w.8.9     > = a H &X;X;X;X;X;X;X;X;X;X;X;X;X;X;X;X;X;X",
";X;X;X;X;X;X;X;X;X;X;X;X;X;X;X;X;X+Xl [ k.k.k.u. ._ ~ ~ ~ ` = . 2.2.7 D.F.F.i } ) s k $X;X;X;X;X;X;X;X;X;X;X;X;X;X;X;X;X",
";X;X;X;X;X;X;X;X;X;X;X;X;X;X;X;XU.n ) / ~ ~ ^ ^ / |  .v.l.| b - o * h..XXXXXW.C | l...K ;X;X;X;X;X;X;X;X;X;X;X;X;X;X;X;X",
";X;X;X;X;X;X;X;X;X;X;X;X;X;X;X;XA y.v.c.c.c.c.c.v.v.v.p.C H ~.!.k o. XoXXXXXoX~.A / x.' [.;X;X;X;X;X;X;X;X;X;X;X;X;X;X;X",
";X;X;X;X;X;X;X;X;X;X;X;X;X;X;XI.( z.c.c.c.c.z.x.i.| ^ C j.{.XXXX{. X.XoXXXXXoXoX'.X.C / L.;X;X;X;X;X;X;X;X;X;X;X;X;X;X;X",
";X;X;X;X;X;X;X;X;X;X;X;X;X;X;XP l W.Q.!.!.~.~.(.{. XXXXXoXoXXXXXXXXXoX.XXXXXXX.X.X.X{.z C.;X;X;X;X;X;X;X;X;X;X;X;X;X;X;X",
";X;X;X;X;X;X;X;X;X;X;X;X;X;X$Xh A.XXXX{.A. X XoXXXXXoXXX(.}.XXXXXXXXXXXXXXXXoX'.F..XXXj.x ;X;X;X;X;X;X;X;X;X;X;X;X;X;X;X",
";X;X;X;X;X;X;X;X;X;X;X;X;X;XL.u ).XXXXW.f..XXXXXXXXXXX}.f.[.oXXXXXXXXXXXXXXXoX Xo./.oX).l U.;X;X;X;X;X;X;X;X;X;X;X;X;X;X",
";X;X;X;X;X;X;X;X;X;X;X;X;X;X% A.XXXX}.s.[.XXXXXXXXXXXX(.h. XoXoXXXXXXXXXXXXXXXXX_.s.{.oX{.l ].;X;X;X;X;X;X;X;X;X;X;X;X;X",
";X;X;X;X;X;X;X;X;X;X;X;X;XT.u (.oXoX).s. XoXXXXXXXoXXXQ.h.XXXXXXXXXXXXXXXXXXoXoX Xf.W.oXoXH B.;X;X;X;X;X;X;X;X;X;X;X;X;X",
";X;X;X;X;X;X;X;X;X;X;X;X;XP A }.oXoXD.S.XXXXXXXXXXoXoXJ.S.XXXXXXXXXXXXXXXXXXoXoXoXW.f.XXXXD.x ;X;X;X;X;X;X;X;X;X;X;X;X;X",
";X;X;X;X;X;X;X;X;X;X;X;X@X% ^.oXXX|.o.}.XXXXXXXXXXXXXXA.J.XXXXXXXXXXoXXXXXXXXXXXXXXXh.E.XX XX.L ;X;X;X;X;X;X;X;X;X;X;X;X",
";X;X;X;X;X;X;X;X;X;X;X;XL.k }.XXXX(.s.XXXXXXXXXXXXXXXXj.!.XXXXXXXXXXXXXXXXXXXXXXXXXXQ.h..XXXD.x ;X;X;X;X;X;X;X;X;X;X;X;X",
";X;X;X;X;X;X;X;X;X;X;X;Xa.Z XXXXXXE.A.oXXXXXXXXXXXXXoXh.~.oXXXXXXXXXXXXXXXXXXXXXXXXX|.s.|.XX_.z @X;X;X;X;X;X;X;X;X;X;X;X",
";X;X;X;X;X;X;X;X;X;X;X;XM s.XXXXXXS.J.XXXXXXXXXXoXoXoXd.(.oXXXXXXXXXXXXXXXXXXXXXXXXX.Xh.~.XXXXA Z.;X;X;X;X;X;X;X;X;X;X;X",
";X;X;X;X;X;X;X;X;X;X;X+Xu ~.XXXX Xf.(.XXXXXXXXXXXXXXXXs.).XXXXXXXXXXXXXXXXXXXXXXXXXXXXQ.h.XXXX~.Z ;X;X;X;X;X;X;X;X;X;X;X",
";X;X;X;X;X;X;X;X;X;X;XU.l '.XXXX|.f.[.oXXXXXXXXXXXXXXXs.).XXXXXXXXXXXXXXXXXXXXXXXXXXXX[.o. XXX{.Z $X;X;X;X;X;X;X;X;X;X;X",
";X;X;X;X;X;X;X;X;X;X;XK i d.!.).~.s.{.oXXXoXXXXXXXXXoXd.).XXXXXXXXXXXXXXXXXXXXXXXXXXXX}.o./.{.!.z C.;X;X;X;X;X;X;X;X;X;X",
";X;X;X;X;X;X;X;X;X;Xa./ N.N.b.n.p./ p. .} ] ] ] ] ] ] i ( ] s.h.F.D.D.j.h.h.d.X.{ ] | p.) _ n.n.M._ B.;X;X;X;X;X;X;X;X;X",
";X;X;X;X;X;X;X;X;X;XU.m n [ k.z.y._ b.b.N.N.N.m.b.N.N./ z.n.k.y. . . . .y.y.k.z.b.b.M.M.i.` b.n.i.^ K ;X;X;X;X;X;X;X;X;X",
";X;X;X;X;X;X;X;X;X;X;X&XL.K b b p s i.b.N.N.N.M.M.b.N./ z.m.N.b.N.m.m.m.b.m.M.M.b.M.M.b.i.p / s b B.*X;X;X;X;X;X;X;X;X;X",
";X;X;X;X;X;X;X;X;X;X;X;X;X;X;X;X;X;X;XOXL.B.a.O.K K A Z Z b d ~ / / / / ^ ^ C C A X.V.].;X;X;X;X;X;X;X;X;X;X;X;X;X;X;X;X",
";X;X;X;X;X;X;X;X;X;X;X;X;X;X;X;X;X;X;X;X;X;X;X;X;X;X;X;X*X+XY.P.G.Z.Z.G.P.I.].#X;X;X;X;X;X;X;X;X;X;X;X;X;X;X;X;X;X;X;X;X"
};
