/* XPM */
static char *result[] = {
/* columns rows colors chars-per-pixel */
"60 60 224 2 ",
"   c #171412",
".  c #292718",
"X  c #38341A",
"o  c #2C2824",
"O  c #373629",
"+  c #3B3335",
"@  c #3C3B3B",
"#  c #383634",
"$  c #302B2B",
"%  c #23262D",
"&  c #443926",
"*  c #472B38",
"=  c #423837",
"-  c #502930",
";  c #44361F",
":  c #3A4339",
">  c #4D461C",
",  c #574E1D",
"<  c #494428",
"1  c #554C26",
"2  c #5B5324",
"3  c #494636",
"4  c #574E39",
"5  c #5D5735",
"6  c #665A24",
"7  c #75562C",
"8  c #756924",
"9  c #766934",
"0  c #72692E",
"q  c #493F43",
"w  c #573444",
"e  c #532E40",
"r  c #65364B",
"t  c #6D3951",
"y  c #753A55",
"u  c #7C3D5B",
"i  c #275167",
"p  c #36616F",
"a  c #3E5D58",
"s  c #4B4345",
"d  c #4C4C4B",
"f  c #484545",
"g  c #584949",
"h  c #555249",
"j  c #534E50",
"k  c #545454",
"l  c #5C5656",
"z  c #5B5A5A",
"x  c #5B5857",
"c  c #4B5553",
"v  c #6A5D46",
"b  c #784058",
"n  c #66595A",
"m  c #724E56",
"M  c #526258",
"N  c #776C4A",
"B  c #786857",
"V  c #6A6C4E",
"C  c #785B66",
"Z  c #6D5962",
"A  c #536367",
"S  c #646463",
"D  c #6C6C6C",
"F  c #696767",
"G  c #796566",
"H  c #716F70",
"J  c #757474",
"K  c #7C7C7B",
"L  c #797877",
"P  c #75716B",
"I  c #5B5D60",
"U  c #865036",
"Y  c #87752A",
"T  c #8D7339",
"R  c #823F5E",
"E  c #9F3252",
"W  c #A53055",
"Q  c #84415E",
"!  c #914F54",
"~  c #8A794A",
"^  c #8E7143",
"/  c #8C4565",
"(  c #884A65",
")  c #934B6C",
"_  c #98496B",
"`  c #8A5169",
"'  c #86566B",
"]  c #9C4C71",
"[  c #8E5A72",
"{  c #985574",
"}  c #99506E",
"|  c #A34E75",
" . c #AA537A",
".. c #A45277",
"X. c #B1557D",
"o. c #A34D6E",
"O. c #84656D",
"+. c #85766A",
"@. c #8D6C7A",
"#. c #886573",
"$. c #946A7C",
"%. c #92747B",
"&. c #8C7C71",
"*. c #A3767A",
"=. c #7F817F",
"-. c #94842B",
";. c #9C8A2B",
":. c #998833",
">. c #8E802F",
",. c #A4922D",
"<. c #AA972E",
"1. c #B29F2E",
"2. c #A88A34",
"3. c #AC9A32",
"4. c #B79735",
"5. c #B9A42F",
"6. c #BAA532",
"7. c #BCA831",
"8. c #ACA137",
"9. c #C3AE32",
"0. c #C7AA3A",
"q. c #D3A93B",
"w. c #CAB435",
"e. c #C7B236",
"r. c #D1BA35",
"t. c #D1BB39",
"y. c #DCC439",
"u. c #DCC337",
"i. c #E3CA37",
"p. c #E5CC3A",
"a. c #E8CF3A",
"s. c #EDD33B",
"d. c #F1D63B",
"f. c #F3D93D",
"g. c #9D854B",
"h. c #AB8E48",
"j. c #998679",
"k. c #8B8470",
"l. c #A58C7C",
"z. c #A9957C",
"x. c #27688C",
"c. c #32749A",
"v. c #2A7BAE",
"b. c #BC5B87",
"n. c #B85984",
"m. c #9A7585",
"M. c #987483",
"N. c #A37B8C",
"B. c #A6778A",
"V. c #AB7F92",
"C. c #C35D8C",
"Z. c #C85F8D",
"A. c #C85F90",
"S. c #CD6292",
"D. c #C76091",
"F. c #D26394",
"G. c #D9649B",
"H. c #CB608F",
"J. c #3688B4",
"K. c #5391B5",
"L. c #7998A5",
"P. c #848383",
"I. c #8C8A8A",
"U. c #939493",
"Y. c #9B9B9B",
"T. c #908E90",
"R. c #A9838A",
"E. c #B39989",
"W. c #AB8394",
"Q. c #B4899A",
"!. c #B98B9E",
"~. c #B38699",
"^. c #B3948C",
"/. c #BBA392",
"(. c #BB8EA1",
"). c #BD91A4",
"_. c #A4A4A4",
"`. c #ACADAC",
"'. c #A6A8A6",
"]. c #B3B3B3",
"[. c #BABAB9",
"{. c #B0AFAF",
"}. c #99A9B0",
"|. c #C3AA97",
" X c #CDB49F",
".X c #C292A4",
"XX c #CC9BAD",
"oX c #C996AB",
"OX c #CE9CB1",
"+X c #D29EB3",
"@X c #C28FA2",
"#X c #CCB3A1",
"$X c #DABDAB",
"%X c #D4B9A7",
"&X c #D4A0B6",
"*X c #DBA5BB",
"=X c #D8A3B8",
"-X c #C0BEBD",
";X c #E1A7BE",
":X c #C29E95",
">X c #DCC1AD",
",X c #E6C9B4",
"<X c #F2D3BD",
"1X c #EED1BB",
"2X c #E4ABC3",
"3X c #E9AEC6",
"4X c #E9AFC8",
"5X c #EEB2CB",
"6X c #F2B5CE",
"7X c #F4B7D1",
"8X c #F5B8D2",
"9X c #C4C5C4",
"0X c #CBCCCB",
"qX c #C8C7C7",
"wX c #D0CECD",
"eX c #D4D4D4",
"rX c #DDDCDB",
"tX c #D8D5D4",
"yX c #D2CFD0",
"uX c #E2DFDE",
"iX c #EDEAE8",
"pX c #F2EEED",
"aX c gray96",
"sX c None",
/* pixels */
"sXsXsXsXsXsXsXsXsXsXsXsXsXsXsXsXsXsXsXsXsXsXsXsXsXsXsXsXsXsXsXsXsXsXsXsXsXsXsXsXsXsXsXsXsXsXsXsXsXsXsXsXsXsXsXsXsXsXsXsX",
"sXsXsXsXsXsXsXsXsXsXsXsXsXsXsXsXsXsXsXsXsXsXsXsXsXsXsXsXsXqXsXsXsXsXsXsXsXsXsXsXsXsXsXsXsXsXsXsXsXsXsXsXsXsXsXsXsXsXsXsX",
"sXsXsXsXsXsXsXsXsXsXsXsXsXsXsXsXsXsXsXsXsXsXsXsXsX# # x 6 4.Y & U.sXrX-X_.Y.sXsXsXsXsXsXsXsXsXsXsXsXsXsXsXsXsXsXsXsXsXsX",
"sXsXsXsXsXsXsXsXsXsXsXsXsXsXsXsXsXsXsXsXsXsXsXsXrX3 > 6 T T q.4.< d d 3 < : eXsXsXsXsXsXsXsXsXsXsXsXsXsXsXsXsXsXsXsXsXsX",
"sXsXsXsXsXsXsXsXsXsXsXsXsXsXsXsXsXsXsXsXsXsXsXeXj X 4.Y *._ U q.q.2.4.0.-.I sXsXsXsXsXsXsXsXsXsXsXsXsXsXsXsXsXsXsXsXsXsX",
"sXsXsXsXsXsXsXsXsXsXsXsXsXsXsXsXsXsXsXsXsXsXsXL i = 2.U W W U 4.6.2.4 x.x.I sXsXsXsXsXsXsXsXsXsXsXsXsXsXsXsXsXsXsXsXsXsX",
"sXsXsXsXsXsXsXsXsXsXsXsXsXsXsXsXsXsXsXsXsX`.D O o X , 7 - - ; 6 2 8 : c.x.z sXsXsXsXsXsXsXsXsXsXsXsXsXsXsXsXsXsXsXsXsXsX",
"sXsXsXsXsXsXsXsXsXsXsXsXsXsXsXsXsXsXsXeXS O 8 <.9.5.Y > 8 -.1.1.,.8 < % % P.sXsXsXsXsXsXsXsXsXsXsXsXsXsXsXsXsXsXsXsXsXsX",
"sXsXsXsXsXsXsXsXsXsXsXsXsXrXI.sXsXsX].@ 2 9.f.f.f.f.s.i.d.f.f.f.f.f.s.7.8 3 Y.sXsXsXsXsXsXsXsXsXsXsXsXsXsXsXsXsXsXsXsXsX",
"sXsXsXsXsXsXsXsXsXsXsXsXsX`.o 8 2 , -.i.f.f.f.f.f.f.f.f.f.f.f.f.f.f.f.f.f.s.9.> J uXsXsXsXsXsXsXsXsXsXsXsXsXsXsXsXsXsXsX",
"sXsXsXsXsXsXsXsXsXsXsXsXsX].o r.a.a.f.f.f.f.f.f.f.f.f.f.f.f.f.f.f.f.f.f.f.f.f.w.1 S qXsXsXsX'.{.sXsXsXsXsXsXsXsXsXsXsXsX",
"sXsXsXsXsXsXsXsXsXsXsXsXsX9XO 5.f.f.f.f.f.f.f.f.f.f.f.f.f.f.f.f.f.f.f.f.f.f.f.s.r.8 3 M F h o =.sXsXsXsXsXsXsXsXsXsXsXsX",
"sXsXsXsXsXsXsXsXsXsXsXsXsX].$ . ,.s.f.f.w.s.f.f.f.f.f.f.f.f.f.s.d.f.f.f.f.f.f.f.f.f.f.f.s.;.4 sXsXsXsXsXsXsXsXsXsXsXsXsX",
"sXsXsXsXsXsXsXsXsXsXsXsXsXY.X 8 -.s.f.d.,.y.f.f.f.f.f.f.f.f.s.,.i.f.f.f.f.f.f.f.f.f.f.s.<.: {.sXsXsXsXsXsXsXsXsXsXsXsXsX",
"sXsXsXsXsXsXsXsXsXsXsXsXsX].1 a.d.f.f.f.<.<.d.f.f.f.f.f.f.f.9.> u.f.f.s.f.f.f.f.f.f.y.-.< I.sXsXsXsXsXsXsXsXsXsXsXsXsXsX",
"sXsXsXsXsXsXsXsXsXsXsXsXsXeXh u.f.f.f.f.3.1 t.f.f.f.f.f.d.e.9 O ,.f.f.f.f.f.f.f.f.f.9.X @ H rXsXsXsXsXsXsXsXsXsXsXsXsXsX",
"sXsXsXsXsXsXsXsXsXsXsXsXsXsX0X5 7.f.f.w.v  Xz.9 ;.Y 9 N z.>X<X>X< ;.f.f.f.f.f.f.f.f.f.f.;.z sXsXsXsXsXsXsXsXsXsXsXsXsXsX",
"sXsXsXsXsXsXsXsXsXsXsXsXsXsXsX'.O 6 Y , B E.j.E.E.#X>X>X>X,X<X<XE.1 7.f.f.f.f.f.f.f.f.r.1 `.sXsXsXsXsXsXsXsXsXsXsXsXsXsX",
"sXsXsXsXsXsXsXsXsXsXsXsXsXsXsXsXI 2 5.5.B l.o |.<X<X<XE.4 /.<X<X>XP 2 7.f.f.f.f.f.f.w.2 =.sXsXsXsXsXsXsXsXsXsXsXsXsXsXsX",
"sXsXsXsXsXsXsXsXsXsXsXsXsXsXsXsXsX4 5.r.B &.o |.<X<X<Xj.  &.<X<X1Xz.u.i.6 V N 6 8 > J sXsXsXsXsXsXsXsXsXsXsXsXsXsXsXsXsX",
"sXsXsXsXsXsXsXsXsXsXsXsXsXsXsXsXrX4 1.r.V /.+.,X<X<X1X^.. ^.<X<X,Xk.u.p.T z.U.:.a.,.S sXsXsXsXsXsXsXsXsXsXsXsXsXsXsXsXsX",
"sXsXsXsXsXsXsXsXsXsXsXsXsXsXqXS 3 8 i.u.v >X<X$Xl.R.,X,X|.,X<X<X|.:.e.~ c =.~ y.f.u.1 K U.d H sXsXsXsXsXsXsXsXsXsXsXsXsX",
"sXsXsXsXsXsXsXsXsXsXsXsXsXsX`.. -.a.f.s.9 /.tX^.o.o.:X<X<X1X<X%Xg.8.0 L.K.p >.s.f.f.5.8 6 X P sXsXsXsXsXsXsXsXsXsXsXsXsX",
"sXsXsXsXsXsXsXsXsXsXsXsXsXsXsX9XS O 0 s.a.>.~ :X*.*.$X<X<X1X$X&.X X i J.J.J.V s.f.f.f.s.;.o -XsXsXsXsXsXsXsXsXsXsXsXsXsX",
"sXsXsXsXsXsXsXsXsXsXsXsXsXsXsXsXsX=.8 d.f.a.-.v l.%X,X,X#Xj.g o Y 5.5 p x.a 8.d.f.f.a.-.. . [.sXsXsXsXsXsXsXsXsXsXsXsXsX",
"sXsXsXsXsXsXsXsXsXsXsXsXsXsXsXsXsXk.8 9.1.1.9.;.& g v 4 s g C C & 5 h g s 1 ,.a.f.f.7.> < . ].sXsXsXsXsXsXsXsXsXsXsXsXsX",
"sXsXsXsXsXsXsXsXsXsXsXsXsXsXsXsX].j N.2X3X$.j v v M g.*.2X7XW.C 5X6X7X7X7X7X2Xm <.f.f.w.. k sXsXsXsXsXsXsXsXsXsXsXsXsXsX",
"sXsXsXsXsXsXsXsXsXsXsXsXsXsXsX9Xl Q.6X7X~.Z O.V }.c.M h.OX6X#.!.7X7X7X7X7X7X7X(.0 i.f.w.. I.sXsXsXsXsXsXsXsXsXsXsXsXsXsX",
"sXsXsXsXsXsXsXsXsXsXsXsXsXsXsXJ m.5X8X7X@.B.B A K.v.A h..X5XO.oX7X7X7X7X7X7X7X*XB r.d.i.X L sXsXsXsXsXsXsXsXsXsXsXsXsXsX",
"sXsXsXsXsXsXsXsXsXsXsXsXsXsXsXZ oX4X7X7X#.W.B A J.x.V h.+X5XO.XX7X7X7X7X7X7X7XQ.O.w.f.i.X P.sXsXsXsXsXsXsXsXsXsXsXsXsXsX",
"sXsXsXsXsXsXsXsXsXsXsXsXsXsXsXT.s n G N.B.@.:X~ g.h.g.XX7X7XW.G 5X7X8X5X5XOXB |.%XN 1.Y # 0XsXsXsXsXsXsXsXsXsXsXsXsXsXsX",
"sXsXsXsXsXsXsXsXsXsXsXsXsXsXqXS v $X#XG R.' ;X:Xl.z.oX7X7X7X2X#.M.3X8X5XOX@.j.1X,XP h < @ 9XsXsXsXsXsXsXsXsXsXsXsXsXsXsX",
"sXsXsXsXsXsXsXsXsXsXsXsXsXU.d k G $X1Xj.M.#.!.7X5X5X7X7X7X7X7X2XG Z !.+XOXG P >Xj.k.tXqXF j {.sXsXsXsXsXsXsXsXsXsXsXsXsX",
"sXsXsXsXsXsXsXsXsXsXsXsXU.d `.uX_.+.j.3 j g C 5X7X7X7X7X8X8X6X3XoX4 9 T ^ -.-.N S eXpXpXrXI.f U.sXsXsXsXsXsXsXsXsXsXsXsX",
"sXsXsXsXsXsXsXsXsXsXK d >XpXpXpXuXH L 9Xq e } ' oX+XB.' ( ..b.H.F.C./ T 9.f.f.d.T k.qXiXpXpXpXyXJ z z z z k f P.sXsXsXsX",
"sXsXsXsXsX{.U.=.D k k [.iXpXpX0XJ k _.I w n.F. .b C { C.S.F.F.F.F.F.F. .! 6.d.f.a.3.N P.yXpXpXpXiXrXrXrXrXrXK k sXsXsXsX",
"sXsXsXqXx k H P.Y.{.eXiXiXrX}.j D `.I + ..A.A.) #.' b.F.F.F.F.F.F.H.H.H.b.m T i.d.f.y.<.5 J [.iXpXpXpXpXiXqXd I.sXsXsXsX",
"sXsXsXeXz L eXiXiXiXpX0Xc K 0XaXY.w ..} ] ] [ 2X7X3XB.) A.n.)  .C.A.C.b.C.Z.A.X.^ w.6.6 : U.K l qXI.d f j U.sXsXsXsXsXsX",
"sXsXsXsXeXD k J P.P.wXM.S sXsX9Xd w / ] { [ 2X7X7X7X6XB.) C.b.) Q / ]  .X.n.X.| y & . f -XsXsXH j L @ {.sXsXsXsXsXsXsXsX",
"sXsXsXsXsXsX'.P.c d P.d [.sXsXS r n.b.) M.*X7X7X7X7X6X3XN.( b.S.C. .o.) / ! / ) _ R $ J sXsXsXsXT.@ f uXsXsXsXsXsXsXsXsX",
"sXsXsXsXsXsXsXsX`.@ k [.sXsX9X* n.n.' N.4X7X7X7X7X7X7X7X7XoX' ] b.A.F.F.F.D.S.F.F.F._ = eXsXsXsXsXrXeXsXsXsXsXsXsXsXsXsX",
"sXsXsXsXsXsXsXsXsXsXsXsXsXsX].$ C =X7X7X7X7X7X7X7X7X7X7X7X7X7X6X2XoXV.#.' ` ` ' ` ( ( $ U.sXsXsXsXsXsXsXsXsXsXsXsXsXsXsX",
"sXsXsXsXsXsXsXsXsXsXsXsXsXsXqX+ ).7X5X4X7X7X7X7X7X7X7X7X7X7X4X6X8X8X8X5X4X&XQ.&X=X=X).= U.sXsXsXsXsXsXsXsXsXsXsXsXsXsXsX",
"sXsXsXsXsXsXsXsXsXsXsXsXsXsXM.n 2X7XOX(.7X7X7X7X7X7X7X7X7X7X(.OX7X7X7X8X8X4Xm.=X8X8X6X$.j sXsXsXsXsXsXsXsXsXsXsXsXsXsXsX",
"sXsXsXsXsXsXsXsXsXsXsXsXsX_.s 3X7X4Xm.*X7X7X7X7X7X7X7X7X7X7X+XM.7X7X7X7X7X7X5XM.&X8X7X8XM.k sXsXsXsXsXsXsXsXsXsXsXsXsXsX",
"sXsXsXsXsXsXsXsXsXsXsXsXsXD O.7X7X+Xm.5X7X7X7X7X7X7X7X7X7X7X4XM.4X7X7X7X7X7X8X).N.5X7X7X+Xq {.sXsXsXsXsXsXsXsXsXsXsXsXsX",
"sXsXsXsXsXsXsXsXsXsXsXsXrXs !.7X7X).W.7X7X7X7X7X7X7X7X7X7X7X6XB.OX7X7X7X7X7X7X2XM.*X8X7X5X' F sXsXsXsXsXsXsXsXsXsXsXsXsX",
"sXsXsXsXsXsXsXsXsXsXsXsX{.s *X7X7XN.oX7X7X7X7X7X7X7X7X7X7X7X7X@XV.8X7X7X7X7X7X5XW.).8X8X8X(.f eXsXsXsXsXsXsXsXsXsXsXsXsX",
"sXsXsXsXsXsXsXsXsXsXsXsXz N.7X7X&Xm.6X7X7X7X7X7X7X7X7X7X7X7X7X6X$.2X7X7X7X7X7X7X4XM.=X7X7X7X@.S sXsXsXsXsXsXsXsXsXsXsXsX",
"sXsXsXsXsXsXsXsXsXsXsXeXf OX7X7X(.~.8X7X7X7X7X7X7X8X7X7X7X7X7X8Xm.OX7X7X7X7X7X7X7X(.~.7X7X7XoXs eXsXsXsXsXsXsXsXsXsXsXsX",
"sXsXsXsXsXsXsXsXsXsXsX[.j 3X7X7XN.OX7X7X7X7X7X7X8X8X8X8X7X7X7X8XW.).7X8X7X8X7X7X7X*XM.5X7X7X2Xg `.sXsXsXsXsXsXsXsXsXsXsX",
"sXsXsXsXsXsXsXsXsXsXsXP.$.8X7X*Xm.4X7X7X7X7X7X7X8X8X8X8X7X7X7X7XOXW.5X8X7X7X7X7X7X7XW..X7X7X7XN.z sXsXsXsXsXsXsXsXsXsXsX",
"sXsXsXsXsXsXsXsXsXsXsXz M.4X2X~.@.2X6X6X8X8X8X8X7X7X8X8X7X7X7X2XQ.' +X4X7X7X7X7X7X4XV.@.+X2X2XW.+ qXsXsXsXsXsXsXsXsXsXsX",
"sXsXsXsXsXsXsXsXsXsXU.* / ` ` u t ( { M.V.~.!.@X@X(.V.V.B.$.[ ` ) r / ` ' $.$.{ [ ` b r ) ` ` ) y z sXsXsXsXsXsXsXsXsXsX",
"sXsXsXsXsXsXsXsXsXsXq / G.F.G. .| F.A.b.n. . .| | | | n.n.b.A.G.F./ F.F.A.A.C.A.A.G.F./ G.G.G.G.S.w {.sXsXsXsXsXsXsXsXsX",
"sXsXsXsXsXsXsXsXsXM.o y R u y * r R / _ _ ] o. .| | ] ] _ / R u r + * t y u R R R y t * e t y y y * d sXsXsXsXsXsXsXsXsX",
"sXsXsXsXsXsXsXsXsX].J z l z S H F I j s q @ + + + + + @ = f j I D M.L.F F n z x x z D L P.K J F D K _.sXsXsXsXsXsXsXsXsX",
"sXsXsXsXsXsXsXsXsXsXsXsXsXsXsXsXsXsXsXsXsXsXsXsXsXsXsXsXsXsXsXsXsXsXsXsXsXsXsXsXsXsXsXsXsXsXsXsXsXsXsXsXsXsXsXsXsXsXsXsX",
"sXsXsXsXsXsXsXsXsXsXsXsXsXsXsXsXsXsXsXsXsXsXsXsXsXsXsXsXsXsXsXsXsXsXsXsXsXsXsXsXsXsXsXsXsXsXsXsXsXsXsXsXsXsXsXsXsXsXsXsX",
"sXsXsXsXsXsXsXsXsXsXsXsXsXsXsXsXsXsXsXsXsXsXsXsXsXsXsXsXsXsXsXsXsXsXsXsXsXsXsXsXsXsXsXsXsXsXsXsXsXsXsXsXsXsXsXsXsXsXsXsX"
};
