/* XPM */
static char *result[] = {
/* columns rows colors chars-per-pixel */
"60 60 230 2 ",
"   c #030101",
".  c #090200",
"X  c #0C0C0B",
"o  c #090907",
"O  c #130A00",
"+  c #1D0C00",
"@  c #120600",
"#  c #1E1500",
"$  c #111111",
"%  c #1A1B1B",
"&  c #241500",
"*  c #2A1A00",
"=  c #311D00",
"-  c #332100",
";  c #3C2500",
":  c #332F0C",
">  c #242424",
",  c gray18",
"<  c #353534",
"1  c #3E3E3E",
"2  c #4E3304",
"3  c #4F3D00",
"4  c #533402",
"5  c #563A07",
"6  c #462F00",
"7  c #643F00",
"8  c #5E400C",
"9  c #62410D",
"0  c #724F0D",
"q  c #764C02",
"w  c #79540A",
"e  c #685206",
"r  c #7A6510",
"t  c #59542E",
"y  c #71693A",
"u  c #444444",
"i  c #474748",
"p  c #595959",
"a  c #787042",
"s  c #646464",
"d  c DimGray",
"f  c #737373",
"g  c #7C7C7C",
"h  c #8D4809",
"j  c #914A0C",
"k  c #974B05",
"l  c #955A03",
"z  c #9A5D04",
"x  c #975903",
"c  c #9B5111",
"v  c #91560C",
"b  c #A44F07",
"n  c #AB5504",
"m  c #AC540B",
"M  c #AD590C",
"N  c #A6550A",
"B  c #BC5E0D",
"V  c #B3590C",
"C  c #A65B13",
"Z  c #A95D13",
"A  c #A35412",
"S  c #B25C14",
"D  c #986105",
"F  c #886614",
"G  c #976714",
"H  c #A36302",
"J  c #AB6B04",
"K  c #AD620C",
"L  c #A76B0A",
"P  c #AC6A0E",
"I  c #A46608",
"U  c #B56E04",
"Y  c #BD6B0D",
"T  c #B6640A",
"R  c #AF7304",
"E  c #B47404",
"W  c #B97407",
"Q  c #B47903",
"!  c #BC7906",
"~  c #B2760A",
"^  c #BD730B",
"/  c #BB7B0B",
"(  c #AA6214",
")  c #A96617",
"_  c #B36514",
"`  c #BC6916",
"'  c #B86B1A",
"]  c #AB7113",
"[  c #AC7218",
"{  c #A8781D",
"}  c #B77618",
"|  c #B77A27",
" . c #C4640D",
".. c #C56B0B",
"X. c #CB6B09",
"o. c #C37E0E",
"O. c #C67408",
"+. c #C26211",
"@. c #C76911",
"#. c #C47411",
"$. c #CA7A15",
"%. c #D27A1A",
"&. c #D27309",
"*. c #C07D22",
"=. c #81764F",
"-. c #BC8707",
";. c #B98714",
":. c #A78315",
">. c #9F8325",
",. c #BC8927",
"<. c #B4942A",
"1. c #AF9C26",
"2. c #BEA12B",
"3. c #C48105",
"4. c #CC8406",
"5. c #CF8C06",
"6. c #C6820A",
"7. c #CB830B",
"8. c #C78B09",
"9. c #D08705",
"0. c #D28A05",
"q. c #D38C0A",
"w. c #D6870A",
"e. c #CD930D",
"r. c #CF9807",
"t. c #D3910D",
"y. c #D39C0C",
"u. c #D79809",
"i. c #C58816",
"p. c #D98912",
"a. c #CD941B",
"s. c #CB971A",
"d. c #D59518",
"f. c #E6980B",
"g. c #E49B15",
"h. c #F09F12",
"j. c #E48A1C",
"k. c #D7A60C",
"l. c #CFA31B",
"z. c #D5B21C",
"x. c #D8B010",
"c. c #D9B113",
"v. c #EBA30D",
"b. c #FCBC07",
"n. c #FCB509",
"m. c #FDBA09",
"M. c #FDB207",
"N. c #E5A715",
"B. c #F3AC14",
"V. c #F8AA13",
"C. c #E3BB1E",
"Z. c #FCBB15",
"A. c #FAB316",
"S. c #C38923",
"D. c #C49326",
"F. c #C79635",
"G. c #D9992B",
"H. c #CEA925",
"J. c #D6A92B",
"K. c #CEB12C",
"L. c #D3B527",
"P. c #CFB53E",
"I. c #D4B433",
"U. c #D5B936",
"Y. c #D5B83E",
"T. c #D4AD38",
"R. c #E7AA24",
"E. c #E2BB27",
"W. c #F7BA23",
"Q. c #FCC107",
"!. c #FAC50C",
"~. c #FBC411",
"^. c #FDCE15",
"/. c #FACC1B",
"(. c #FDD21C",
"). c #FBD314",
"_. c #F9D30C",
"`. c #F9C625",
"'. c #FFD823",
"]. c #E5C535",
"[. c #FAD730",
"{. c #EEC72D",
"}. c #FFE336",
"|. c #8E8258",
" X c #B4A56A",
".X c #CAA742",
"XX c #DEAA4D",
"oX c #CEBA43",
"OX c #CEB949",
"+X c #D4B749",
"@X c #D5BB58",
"#X c #E8BD49",
"$X c #E8B859",
"%X c #E3AE52",
"&X c #DAC458",
"*X c #DCC045",
"=X c #E5C649",
"-X c #E8C456",
";X c #F2CB54",
":X c #DDC962",
">X c #DAC872",
",X c #ECD265",
"<X c #FEDD68",
"1X c #FAD879",
"2X c #FDE46A",
"3X c #FEE674",
"4X c #FFEB7B",
"5X c #FFE975",
"6X c #8B8C8B",
"7X c #818282",
"8X c #9C9C9C",
"9X c #929091",
"0X c #A4A4A4",
"qX c #AEAEAE",
"wX c #B6B6B6",
"eX c #B1B1AF",
"rX c #F9D982",
"tX c #FEEB8D",
"yX c #FDE982",
"uX c #FFF58C",
"iX c #FFF59C",
"pX c #FFF497",
"aX c #FFED90",
"sX c #FDF5A6",
"dX c #CCCCCC",
"fX c #C3C3C3",
"gX c #D2D2D2",
"hX c #DDDDDD",
"jX c #CFCFD1",
"kX c None",
/* pixels */
"kXkXkXkXkXkXkXkXkXkXkXkXkXkXkXkXkXkXkXkXkXkXkXkXkXkXkXkXkXkXkXkXkXkXkXkXkXkXkXkXkXkXkXkXkXkXkXkXkXkXkXkXkXkXkXkXkXkXkXkX",
"kXkXkXkXkXkXkXkXkXkXkXkXkXkXkXkXkXkXkXkXkXkXkXkXkXkXkXkXkXkXkXkXkXkXkXkXkXkXkXkXkXkXkXkXkXkXkXkXkXkXkXkXkXkXkXkXkXkXkXkX",
"kXkXkXkXkXkXkXkXkXkXkXkXkXkXkXkXkXkXkXkXkXkXkXkXkXkXkXkXkXkXkXkXkXkXkXkXkXkXkXkXkXkXkXkXkXkXkXkXkXkXkXkXkXkXkXkXkXkXkXkX",
"kXkXkXkXkXkXkXkXkXkXkXkXkXkXkXkXkXkXkXkXkXkXkXkXkXkXkXkXkXkXkXkXkXkXkXkXkXkXkXkXkXkXkXkXkXkXkXkXkXkXkXkXkXkXkXkXkXkXkXkX",
"kXkXkXkXkXkXkXkXkXkXkXkXkXkXkXkXkXkXkXkXkXkXkXkXkXkXkX0X< p s 6X0XkXkXkXkXkXkXkXkXkXkXkXkXkXkXkXkXkXkXkXkXkXkXkXkXkXkXkX",
"kXkXkXkXkXkXkXkXkXkXkXkXkXkXkXkXkXkXkXkXkXkXkXkXkXkXf %       $ % > 8XkXkXkXkXkXkXkXkXkXkXkXkXkXkXkXkXkXkXkXkXkXkXkXkXkX",
"kXkXkXkXkXkXkXkXkXkXkXkXkXkXkXkXkXkXkXkXkXkXkXkXkXs   * 2.:.w 5 2 &   $ kXkXkXkXkXkXkXkXkXkXkXkXkXkXkXkXkXkXkXkXkXkXkXkX",
"kXkXkXkXkXkXkXkXkXkXkXkXkXkXkXkXkXkXkXkXkXkXkXkX9X  - ]._.).'.~ / { +   p kXkXkXkXkXkXkXkXkXkXkXkXkXkXkXkXkXkXkXkXkXkXkX",
"kXkXkXkXkXkXkXkXkXkXkXkXkXkXkXkXkXkXkXkXkXkXkXkX  o [._.^.^.^.e.J J } 2   kXkXkXkXkXkXkXkXkXkXkXkXkXkXkXkXkXkXkXkXkXkXkX",
"kXkXkXkXkXkXkXkXkXkXkXkXkXkXkXkXkXkXkXkXkXkXkXjX  8 ).^./.(.(.L.l z l G   i kXkXkXkXkXkXkXkXkXkXkXkXkXkXkXkXkXkXkXkXkXkX",
"kXkXkXkXkXkXkXkXkXkXkXkXkXkXkXkXkXkXkXkXkXkXkX% # [././.C.E.E.L.;.D D I 2   f kXkXkXkXkXkXkXkXkXkXkXkXkXkXkXkXkXkXkXkXkX",
"kXkXkXkXkXkXkXkXkXkXkXkXkXkXkXkXkXkXkXkXkXkXkXo r '.'.`.d.E.L.z.H.R Q E {   1 kXkXkXkXkXkXkXkXkXkXkXkXkXkXkXkXkXkXkXkXkX",
"kXkXkXkXkXkXkXkXkXkXkXkXkXkXkXkXkXkXkXkXkXkXjX  ].).d.#._ P J.K.I.;.E W / O   kXkXkXkXkXkXkXkXkXkXkXkXkXkXkXkXkXkXkXkXkX",
"kXkXkXkXkXkXkXkXkXkXkXkXkXkXkXkXkXkXkXkXkXkXg . [.{.` @.Z M ] U.Y.H.H L R 2   kXkXkXkXkXkXkXkXkXkXkXkXkXkXkXkXkXkXkXkXkX",
"kXkXkXkXkXkXkXkXkXkXkXkXkXkXkXkXkXkXkXkXkXkX> - }.a.` ' Z ( Z T.U.Y.l l l v . s kXkXkXkXkXkXkXkXkXkXkXkXkXkXkXkXkXkXkXkX",
"kXkXkXkXkXkXkXkXkXkXkXkXkXkXkXkXkXkXkXkXkXjXX w [.#.` ` j ( ) D.oX*Xl l l [ & u kXkXkXkXkXkXkXkXkXkXkXkXkXkXkXkXkXkXkXkX",
"kXkXkXkXkXkXkXkXkXkXkXkXkXkXkXkXkXkXkXkXkX6X  1.l.z I i.j C ' ) +XoX~ J J / 9 o dXkXkXkXkXkXkXkXkXkXkXkXkXkXkXkXkXkXkXkX",
"kXkXkXkXkXkXkXkXkXkXkXkXkXkXkXkXkXkXkXkXkXp   *Xi.C L s.k C _ ( +XOXD.7.4.d.l   8XkXkXkXkXkXkXkXkXkXkXkXkXkXkXkXkXkXkXkX",
"kXkXkXkXkXkXkXkXkXkXkXkXkXkXkXkXkXkXkXkXkX< . =X} Z } z.C c _ ( .XOXJ.o.3.u.i.. p kXkXkXkXkXkXkXkXkXkXkXkXkXkXkXkXkXkXkX",
"kXkXkXkXkXkXkXkXkXkXkXkXkXkXkXkXkXkXkXkXkX% @ ,X' C ;.z.L c ) _ F.+X=X3.4.w.d.. , kXkXkXkXkXkXkXkXkXkXkXkXkXkXkXkXkXkXkX",
"kXkXkXkXkXkXkXkXkXkXkXkXkXkXkXkXkXkXkXkXkX  X +XZ Z s.z.;.j C } F.,X<X7.9.9.G.@   kXkXkXkXkXkXkXkXkXkXkXkXkXkXkXkXkXkXkX",
"kXkXkXkXkXkXkXkXkXkXkXkXkXkXkXkXkXkXkXkXkX  & .XC ) J.L.D.h c #.S.,X3X/ U U o.&   kXkXkXkXkXkXkXkXkXkXkXkXkXkXkXkXkXkXkX",
"kXkXkXkXkXkXkXkXkXkXkXkXkXkXkXkXkXkXkXkXdX  : <.M ( I.K.I.h h S } ,X4XS.U U / =   kXkXkXkXkXkXkXkXkXkXkXkXkXkXkXkXkXkXkX",
"kXkXkXkXkXkXkXkXkXkXkXkXkXkXkXkXkXkXkXkXqX  t ,.Z I U.K.].#X[ A _ <X4XD.U U O.;   hXkXkXkXkXkXkXkXkXkXkXkXkXkXkXkXkXkXkX",
"kXkXkXkXkXkXkXkXkXkXkXkXkXkXkXkXkXkXkXkX8X  y | [ +XP.P.#X=X=X;Xb $XuXF.^ W Y 5   gXkXkXkXkXkXkXkXkXkXkXkXkXkXkXkXkXkXkX",
"kXkXkXkXkXkXkXkXkXkXkXkXkXkXkXkXkXkXkXkX8X  a | +XoXoX+X=X&X=X#Xk $XuX$X4.4.9.0   gXkXkXkXkXkXkXkXkXkXkXkXkXkXkXkXkXkXkX",
"kXkXkXkXkXkXkXkXkXkXkXkXkXkXkXkXkXkXkXkX6X  =.) @X&X@X&X<X2X2XF.b XXpX-Xq.0.0.w   wXkXkXkXkXkXkXkXkXkXkXkXkXkXkXkXkXkXkX",
"kXkXkXkXkXkXkXkXkXkXkXkXkXkXkXkXkXkXkXkX6X  a ) @X:X&X:X3X3X4XS.m %XiX-Xw.0.0.F . qXkXkXkXkXkXkXkXkXkXkXkXkXkXkXkXkXkXkX",
"kXkXkXkXkXkXkXkXkXkXkXkXkXkXkXkXkXkXkXkX6X  |.) s.z.:X>XyXyXuX_ V $XsX1Xw.9.0.F   eXkXkXkXkXkXkXkXkXkXkXkXkXkXkXkXkXkXkX",
"kXkXkXkXkXkXkXkXkXkXkXkXkXkXkXkXkXkXkXkXf    X) i.~.{.3XtXtXaXm T XXsX1X4.E U 0   eXkXkXkXkXkXkXkXkXkXkXkXkXkXkXkXkXkXkX",
"kXkXkXkXkXkXkXkXkXkXkXkXkXkXkXkXkXkXkXkXg . >.P 3.~.Q.~.4XiX1Xm +.$XsXrXU z z 9   qXkXkXkXkXkXkXkXkXkXkXkXkXkXkXkXkXkXkX",
"kXkXkXkXkXkXkXkXkXkXkXkXkXkXkXkXkXkXkXkX7X. >.P W ~.Q.b./.uX%Xm @.$XpX=XU z z 9   eXkXkXkXkXkXkXkXkXkXkXkXkXkXkXkXkXkXkX",
"kXkXkXkXkXkXkXkXkXkXkXkXkXkXkXkXkXkXkXkX7X. <.7.#.A.Q.Q.Q.Z.#.S %.R.c.8.z l l 5   eXkXkXkXkXkXkXkXkXkXkXkXkXkXkXkXkXkXkX",
"kXkXkXkXkXkXkXkXkXkXkXkXkXkXkXkXkXkXkXkX7X  <.$.#.V.b.b.b.Z.Y Z %.f.x.-.z l l 5   kXkXkXkXkXkXkXkXkXkXkXkXkXkXkXkXkXkXkX",
"kXkXkXkXkXkXkXkXkXkXkXkXkXkXkXkXkXkXkXkX8X  F p...B.b.b.b.Z.Y S $.B.x.r./ R ~ 5   kXkXkXkXkXkXkXkXkXkXkXkXkXkXkXkXkXkXkX",
"kXkXkXkXkXkXkXkXkXkXkXkXkXkXkXkXkXkXkXkX8X  F q...V.m.m.m.Z.#._ $.A.x.8.Q E W 5   kXkXkXkXkXkXkXkXkXkXkXkXkXkXkXkXkXkXkX",
"kXkXkXkXkXkXkXkXkXkXkXkXkXkXkXkXkXkXkXkXfX  e g...B.n.m.m.A.Y A ^ N.k.-.R R o.-   kXkXkXkXkXkXkXkXkXkXkXkXkXkXkXkXkXkXkX",
"kXkXkXkXkXkXkXkXkXkXkXkXkXkXkXkXkXkXkXkXdX  4 h.@.v.n.n.M.A.@.A ! N.r.-.R R ;.&   kXkXkXkXkXkXkXkXkXkXkXkXkXkXkXkXkXkXkX",
"kXkXkXkXkXkXkXkXkXkXkXkXkXkXkXkXkXkXkXkXkX  * W.@.h.M.n.M.A...A 6.N.y.H D D ~ O   kXkXkXkXkXkXkXkXkXkXkXkXkXkXkXkXkXkXkX",
"kXkXkXkXkXkXkXkXkXkXkXkXkXkXkXkXkXkXkXkXkX  + W.X.h.V.v.v.g.K j / y.y.l D l G . X kXkXkXkXkXkXkXkXkXkXkXkXkXkXkXkXkXkXkX",
"kXkXkXkXkXkXkXkXkXkXkXkXkXkXkXkXkXkXkXkXkX> . `.X.j.n n p.g._ j 8.r.8.l z z v   u kXkXkXkXkXkXkXkXkXkXkXkXkXkXkXkXkXkXkX",
"kXkXkXkXkXkXkXkXkXkXkXkXkXkXkXkXkXkXkXkXkX< . W.&.@.+.+.Y v.K h e.r.R l z D w   d kXkXkXkXkXkXkXkXkXkXkXkXkXkXkXkXkXkXkX",
"kXkXkXkXkXkXkXkXkXkXkXkXkXkXkXkXkXkXkXkXkXs   l.w. . . .V K N k k.y.E I L i.q   wXkXkXkXkXkXkXkXkXkXkXkXkXkXkXkXkXkXkXkX",
"kXkXkXkXkXkXkXkXkXkXkXkXkXkXkXkXkXkXkXkXkX8X  :.f.B B  .M M A K y.y.R R E i.4 $ gXkXkXkXkXkXkXkXkXkXkXkXkXkXkXkXkXkXkXkX",
"kXkXkXkXkXkXkXkXkXkXkXkXkXkXkXkXkXkXkXkXkXhX$ 4 n.&.B B M V N 7.r.u.J E E i.+ u kXkXkXkXkXkXkXkXkXkXkXkXkXkXkXkXkXkXkXkX",
"kXkXkXkXkXkXkXkXkXkXkXkXkXkXkXkXkXkXkXkXkXkX< + V.O.m n m V n q.r.t.-./ 6.G   6XkXkXkXkXkXkXkXkXkXkXkXkXkXkXkXkXkXkXkXkX",
"kXkXkXkXkXkXkXkXkXkXkXkXkXkXkXkXkXkXkXkXkXkX6X. R.q.n b m b ^ 5.u.Q n D I =   kXkXkXkXkXkXkXkXkXkXkXkXkXkXkXkXkXkXkXkXkX",
"kXkXkXkXkXkXkXkXkXkXkXkXkXkXkXkXkXkXkXkXkXkXkX  ,.0.o.n n T t.q.t.D J H L . o kXkXkXkXkXkXkXkXkXkXkXkXkXkXkXkXkXkXkXkXkX",
"kXkXkXkXkXkXkXkXkXkXkXkXkXkXkXkXkXkXkXkXkXkXkXX 6 d.5.q.7.t.0.u.6.H O.! G   f kXkXkXkXkXkXkXkXkXkXkXkXkXkXkXkXkXkXkXkXkX",
"kXkXkXkXkXkXkXkXkXkXkXkXkXkXkXkXkXkXkXkXkXkXkX< @ { 0.9.q.0.0.f.3.! w.d.; o fXkXkXkXkXkXkXkXkXkXkXkXkXkXkXkXkXkXkXkXkXkX",
"kXkXkXkXkXkXkXkXkXkXkXkXkXkXkXkXkXkXkXkXkXkXkXkX  + e.9.9.9.0.u./ W q.[   0XkXkXkXkXkXkXkXkXkXkXkXkXkXkXkXkXkXkXkXkXkXkX",
"kXkXkXkXkXkXkXkXkXkXkXkXkXkXkXkXkXkXkXkXkXkXkXkX$   ,.5.4.9.0.U H z [ +   kXkXkXkXkXkXkXkXkXkXkXkXkXkXkXkXkXkXkXkXkXkXkX",
"kXkXkXkXkXkXkXkXkXkXkXkXkXkXkXkXkXkXkXkXkXkXkXkXkXX . 0 d.a.;.S.,.F     kXkXkXkXkXkXkXkXkXkXkXkXkXkXkXkXkXkXkXkXkXkXkXkX",
"kXkXkXkXkXkXkXkXkXkXkXkXkXkXkXkXkXkXkXkXkXkXkXkXkX0X    2 ; = & @ .   s kXkXkXkXkXkXkXkXkXkXkXkXkXkXkXkXkXkXkXkXkXkXkXkX",
"kXkXkXkXkXkXkXkXkXkXkXkXkXkXkXkXkXkXkXkXkXkXkXkXkXkXkXs 1 i i p g 6XkXkXkXkXkXkXkXkXkXkXkXkXkXkXkXkXkXkXkXkXkXkXkXkXkXkX",
"kXkXkXkXkXkXkXkXkXkXkXkXkXkXkXkXkXkXkXkXkXkXkXkXkXkXkXkXkXkXkXkXkXkXkXkXkXkXkXkXkXkXkXkXkXkXkXkXkXkXkXkXkXkXkXkXkXkXkXkX",
"kXkXkXkXkXkXkXkXkXkXkXkXkXkXkXkXkXkXkXkXkXkXkXkXkXkXkXkXkXkXkXkXkXkXkXkXkXkXkXkXkXkXkXkXkXkXkXkXkXkXkXkXkXkXkXkXkXkXkXkX",
"kXkXkXkXkXkXkXkXkXkXkXkXkXkXkXkXkXkXkXkXkXkXkXkXkXkXkXkXkXkXkXkXkXkXkXkXkXkXkXkXkXkXkXkXkXkXkXkXkXkXkXkXkXkXkXkXkXkXkXkX",
"kXkXkXkXkXkXkXkXkXkXkXkXkXkXkXkXkXkXkXkXkXkXkXkXkXkXkXkXkXkXkXkXkXkXkXkXkXkXkXkXkXkXkXkXkXkXkXkXkXkXkXkXkXkXkXkXkXkXkXkX",
"kXkXkXkXkXkXkXkXkXkXkXkXkXkXkXkXkXkXkXkXkXkXkXkXkXkXkXkXkXkXkXkXkXkXkXkXkXkXkXkXkXkXkXkXkXkXkXkXkXkXkXkXkXkXkXkXkXkXkXkX"
};
