/* XPM */
static char *result[] = {
/* columns rows colors chars-per-pixel */
"60 60 251 2 ",
"   c #030102",
".  c #090505",
"X  c #1C0A03",
"o  c #130904",
"O  c #070618",
"+  c #131113",
"@  c #191617",
"#  c #0D1119",
"$  c #270B03",
"%  c #3A0809",
"&  c #2C1408",
"*  c #371907",
"=  c #3F0710",
"-  c #261813",
";  c #37181A",
":  c #200E12",
">  c #30221C",
",  c #141327",
"<  c #050534",
"1  c #120B31",
"2  c #30172B",
"3  c #2A2727",
"4  c #372A27",
"5  c #282934",
"6  c #333335",
"7  c #3A3C3C",
"8  c #3B3735",
"9  c #333130",
"0  c #460808",
"q  c #550907",
"w  c #451917",
"e  c #531311",
"r  c #551408",
"t  c #6A0906",
"y  c #7A0904",
"u  c #6A0613",
"i  c #750416",
"p  c #6C1806",
"a  c #4E2303",
"s  c #47270E",
"d  c #542401",
"f  c #5A2804",
"g  c #482C1A",
"h  c #583012",
"j  c #672B03",
"k  c #732907",
"l  c #7B3303",
"z  c #753405",
"x  c #65350D",
"c  c #48342D",
"v  c #553B21",
"b  c #453A38",
"n  c #482929",
"m  c #783339",
"M  c #5D1132",
"N  c #7D4C1A",
"B  c #6D4114",
"V  c #49413E",
"C  c #58422B",
"Z  c #704E28",
"A  c #030545",
"S  c #040658",
"D  c #171050",
"F  c #25184B",
"G  c #39344B",
"H  c #030667",
"J  c #030878",
"K  c #181467",
"L  c #321675",
"P  c #6E1351",
"I  c #4C1072",
"U  c #533373",
"Y  c #6A2E71",
"T  c #3E4244",
"R  c #4C4C4C",
"E  c #464647",
"W  c #554945",
"Q  c #4E5255",
"!  c #575858",
"~  c #4C4B55",
"^  c #716551",
"/  c #595D6A",
"(  c #5C6264",
")  c #636463",
"_  c #676B6B",
"`  c #6C7476",
"'  c #7B7B7B",
"]  c #747676",
"[  c #6C6F77",
"{  c #604E46",
"}  c #880805",
"|  c #990806",
" . c #870C14",
".. c #A60905",
"X. c #B90807",
"o. c #A80415",
"O. c #B50813",
"+. c #AF1810",
"@. c #883A03",
"#. c #933B06",
"$. c #89260A",
"%. c #B7261B",
"&. c #B62F13",
"*. c #8E0A34",
"=. c #A8132E",
"-. c #B22120",
";. c #C70908",
":. c #D80D04",
">. c #D81106",
",. c #C91710",
"<. c #E51303",
"1. c #EB1704",
"2. c #FC1600",
"3. c #F71A03",
"4. c #E80D01",
"5. c #CA2D19",
"6. c #FC2712",
"7. c #F73319",
"8. c #F82109",
"9. c #F43624",
"0. c #8B420B",
"q. c #9A4406",
"w. c #905118",
"e. c #A84907",
"r. c #B55914",
"t. c #B1510F",
"y. c #BA6C1D",
"u. c #AD651F",
"i. c #8D5728",
"p. c #956730",
"a. c #A56B2A",
"s. c #B67430",
"d. c #C75A0D",
"f. c #D14F13",
"g. c #C76A19",
"h. c #D5741E",
"j. c #D76613",
"k. c #E87317",
"l. c #F64832",
"z. c #D17725",
"x. c #E95C10",
"c. c #901549",
"v. c #A33D41",
"b. c #9F354B",
"n. c #90714C",
"m. c #8E7E6A",
"M. c #C95048",
"N. c #F75C49",
"B. c #F76754",
"V. c #EC786B",
"C. c #BB8037",
"Z. c #D98629",
"A. c #C8883B",
"S. c #DA8F3A",
"D. c #E7973A",
"F. c #EE8E2D",
"G. c #CCB02F",
"H. c #FCA138",
"J. c #E4A812",
"K. c #F3D30B",
"L. c #F6E909",
"P. c #D4C62A",
"I. c #B08E55",
"U. c #AFA951",
"Y. c #A29362",
"T. c #D3974B",
"R. c #E49D4B",
"E. c #D2A258",
"W. c #EBAE5A",
"Q. c #FBB04E",
"!. c #F5BB67",
"~. c #E9B970",
"^. c #DD9D69",
"/. c #FCC56A",
"(. c #F6CB7B",
"). c #030A87",
"_. c #040D98",
"`. c #171897",
"'. c #170E8C",
"]. c #2E0F8E",
"[. c #2C288E",
"{. c #272698",
"}. c #2F3C9C",
"|. c #040FA4",
" X c #0411AD",
".X c #0914A6",
"XX c #0512B4",
"oX c #0514BC",
"OX c #0C15B4",
"+X c #1A13A2",
"@X c #2C1FB7",
"#X c #2E26AB",
"$X c #563C8E",
"%X c #374398",
"&X c #524D93",
"*X c #797585",
"=X c #5053AF",
"-X c #6870A6",
";X c #5A67B5",
":X c #0616C4",
">X c #0919CB",
",X c #091CD5",
"<X c #091EE2",
"1X c #0D23E4",
"2X c #0D23EB",
"3X c #1127ED",
"4X c #0C26F6",
"5X c #162EF5",
"6X c #1D35FC",
"7X c #1832FA",
"8X c #2037FF",
"9X c #2239FF",
"0X c #2139F5",
"qX c #1B1FCB",
"wX c #3046E9",
"eX c #3A4BD8",
"rX c #424ECA",
"tX c #7E8485",
"yX c #828383",
"uX c #878B8C",
"iX c #8B9497",
"pX c #989999",
"aX c #928D90",
"sX c #B49B96",
"dX c #8F99A9",
"fX c #97A2A4",
"gX c #9BACB6",
"hX c #AEB4B4",
"jX c #C2B197",
"kX c #CAB5B0",
"lX c #EFA59A",
"zX c #F4D591",
"xX c #FEE49E",
"cX c #E8D5B4",
"vX c #FEE9A8",
"bX c #FEEFB7",
"nX c #BBC6C9",
"mX c #CCD4D4",
"MX c #CAD2D2",
"NX c #F4D9D2",
"BX c #ECCEC8",
"VX c #D9E2DE",
"CX c #FDF4C8",
"ZX c #FDF8D6",
"AX c #F2E8C8",
"SX c #D9E2E3",
"DX c #E6EBE9",
"FX c #FBFEFE",
"GX c #F4F9F9",
"HX c #F7F7EC",
"JX c None",
/* pixels */
"JXJXJXJXJXJXJXJXJXJXJXJXJXJXJXJXJXJXJXJXJXJXJXJXJXJXJXJXJXJXJXJXJXJXJXJXJXJXJXJXJXJXJXJXJXJXJXJXJXJXJXJXJXJXJXJXJXJXJXJX",
"JXJXJXJXJXJXJXJXJXJXJXJXJXJXJXJXJXJXJXJXJXJXJXJXJXJXJXJXJXJXJXJXJXJXJXJXJXJXJXJXJXJXJXJXJXJXJXJXJXJXJXJXJXJXJXJXJXJXJXJX",
"JXJXJXJXJXJXJXJXJXJXJXJXJXJXJXJXJXJXJXJXJXJXJXJXJXJXJXJXJXJXJXJXJXJXJXJXJXJXJXJXJXJXJXJXJXJXJXJXJXJXJXJXJXJXJXJXJXJXJXJX",
"JXJXJXJXJXJXJXJXJXJXJXJXJXJXJXJXJXJXJXJXJXJXJXJXJXJXJXJXJXJXJXJXJXJXJXJXJXJXJXJXJXJXJXJXJXJXJXJXJXJXJXJXJXJXJXJXJXJXJXJX",
"JXJXJXJXJXJXJXJXJXJXJXJXJXJXJXJXJXJXJXJXJXJXJXJXJXJXJXJXJXJXJXJXJXJXJXJXJXJXJXJXJXJXJXJXJXJXJXJXJXJXJXJXJXJXJXJXJXJXJXJX",
"JXJXJXJXJXJXJXJXJXJXJXJXJXJXJXJXJXJXJXJXJXJXJXJXJXtXR R b b b b V V ) yXJXJXJXJXJXJXJXJXJXJXJXJXJXJXJXJXJXJXJXJXJXJXJXJX",
"JXJXJXJXJXJXJXJXJXJXJXJXJXJXJXJXJXJXJXJXJXJX! n w e ....,.5.5.5.X.+.} 0 n c ) ) JXJXJXJXJXJXJXJXJXJXJXJXJXJXJXJXJXJXJXJX",
"JXJXJXJXJXJXJXJXJXJXJXJXJXJXJXJXJXJXJXJXb b e t y ..<.1.l.V.V.B.9.9.>.| t t ; w ! JXJXJXJXJXJXJXJXJXJXJXJXJXJXJXJXJXJXJX",
"JXJXJXJXJXJXJXJXJXJXJXJXJXJXJXJXJXJXJX9 0 0 | :.1.8.7.7.^.NXDXlXB.B.7.1.4.;.t t ; ! JXJXJXJXJXJXJXJXJXJXJXJXJXJXJXJXJXJX",
"JXJXJXJXJXJXJXJXJXJXJXJXJXJXJXJXJXb $ | <.1.1.4.6.N.lXlXNXNXNXNXcXBXlXl.4.4.3.3.;.t ; ~ JXJXJXJXJXJXJXJXJXJXJXJXJXJXJXJX",
"JXJXJXJXJXJXJXJXJXJXJXJXJXJXJXJXQ ; u ;.:.4.;.;.>.7.N.N.B.B.B.B.B.N.l.8.:.;.:.:.:.| q ; ! ! JXJXJXJXJXJXJXJXJXJXJXJXJXJX",
"JXJXJXJXJXJXJXJXJXJXJXJXJXJXJXJX4 q o.;.;.;.;.;.>.3.6.6.6.6.6.6.6.6.6.3.<.;.;.O.;.;.} = 9 6 JXJXJXJXJXJXJXJXJXJXJXJXJXJX",
"JXJXJXJXJXJXJXJXJXJXJXJXJXJX) ) ; u ;.;.O.O.X.;.4.4.2.2.2.2.2.2.2.2.3.1.:.;.o.O.O.;...q 3 3 ] JXJXJXJXJXJXJXJXJXJXJXJXJX",
"JXJXJXJXJXJXJXJXJXJXJXJXJXE ; = i ..;.X.} | q % 0 t ....4.1.1.<.>.;.| q % & t t ..;.;.| u u - ] JXJXJXJXJXJXJXJXJXJXJXJX",
"JXJXJXJXJXJXJXJXJXJXJXJXJX8 0 =  .O.;.| y y j x f a q q | 7.x.5.} y r a x f t t } ..X.O.i i X ) JXJXJXJXJXJXJXJXJXJXJXJX",
"JXJXJXJXJXJXJXJXJXJXJXJXJX9 % 0  .X...y l k d.F.R.p.C v N H.H.s.C B Z C.H.k.q.q.y } ..o.u i X ( JXJXJXJXJXJXJXJXJXJXJXJX",
"JXJXJXJXJXJXJXJXJXJXJXJXJX7 = =  .o.o.-.d.d.k.Q.zXcXhXhXY.Q.Q./.sXjXhXcX(.H.x.j.t.+.o.| u i $ ( JXJXJXJXJXJXJXJXJXJXJXJX",
"JXJXJXJXJXJXJXJXJXJXJXJXJX6 = = i  .k g.!.!.zXkX' ( ) ) I.(./.E.Y.Y.( ) uXzXzXzXR.t.k i u u X _ JXJXJXJXJXJXJXJXJXJXJXJX",
"JXJXJXJXJXJXJXJXJXJXJXJXJX9 % % u  .#.T.zXxXCXhXR # @ @ Z !./.A.C v @ @ ! DXCXCX~.g.#. .q q o ! JXJXJXJXJXJXJXJXJXJXJXJX",
"JXJXJXJXJXJXJXJXJXJXJXJXJX3 & $ r #.d.F.xXxXHXhXT   o o N H.Q.C.s s . + Q DXZXZX~.k.t.$.q q o 7 JXJXJXJXJXJXJXJXJXJXJXJX",
"JXJXJXJXJXJXJXJXJXJXJXJXR v h h l e.x.H.xXxXHXhXT . . . B H.Q.y.s s   @ Q DXZXZX(.F.d.@.x j v 7 _ JXJXJXJXJXJXJXJXJXJXJX",
"JXJXJXJXJXJXJXJXJXJXJX6 ^ E.E.E.p.0.A.Z.D.D.W.R.a.Z n.^ jXbXvX(.Y.I.Z p.n.!.W.W.S.F.y.w.i.a.!.Y.4 m.JXJXJXJXJXJXJXJXJXJX",
"JXJXJXJXJXJXJXJXJXJXJX6 ^ E.T.T.a.y.R.A.r.r.g.h.D.W.zXzXAXZXCXxXzXcX(.W.F.k.r.r.g.S.T.a.a.a.!.Y.3 yXJXJXJXJXJXJXJXJXJXJX",
"JXJXJXJXJXJXJXJXJXJXJX6 Z T.S.D.z.S.W.s.k k j w.D.(.vXvXCXZXbXvXvXvXxX(.Z.l j f w.A.R.z.h.h.Q.p.> uXJXJXJXJXJXJXJXJXJXJX",
"JXJXJXJXJXJXJXJXJXJXJXJXC h 0.q.d.J.D.w.o o   - Z C.W.W.(.(.zX(.~.!.T.s.c   .   s a.F.Z.t.r.l v _ JXJXJXJXJXJXJXJXJXJXJX",
"JXJXJXJXJXJXJXJXJXJXJXJXJXb * s 0.j.F.w.* * o   & x u.u.C.T.T.I.z.s.w.x o   X X h y.k.d.k k & ! JXJXJXJXJXJXJXJXJXJXJXJX",
"JXJXJXJXJXJXJXJXJXJXJXJXJX*X8 8 * @.x.Z.w.u.& . . X * * 4 g 4 g s * & X   . B x y.Z.g.k & & R JXJXJXJXJXJXJXJXJXJXJXJXJX",
"JXJXJXJXJXJXJXJXJXJXJXJXJXJXJXJXV ; B y.h.h.u.B f & .               X * B N y.y.h.t.j ; Q R JXJXJXJXJXJXJXJXJXJXJXJXJXJX",
"JXJXJXJXJXJXJXJXJXJXJXJXJXJXJXJXJXuXV > f f l t.d.d.q.q.0.0.Z i.0.0.e.j.d.w.x x * 4 ) JXJXJXJXJXJXJXJXJXJXJXJXJXJXJXJXJX",
"JXJXJXJXJXJXJXJXJXJXJXJXJXJXJXJXJXJXJX> X $ - M 0.r.f.f.g.g.z.h.j.j.d.r.m 2 : : - JXJXJXJXJXJXJXJXJXJXJXJXJXJXJXJXJXJXJX",
"JXJXJXJXJXJXJXJXJXJXJXJXJXJXJXJXJXJXJX3 O O A K G c.%.%.f.f.f.f.f.5.&.m K S < < @ JXJXJXJXJXJXJXJXJXJXJXJXJXJXJXJXJXJXJX",
"JXJXJXJXJXJXJXJXJXJXJXJXJXJXJXJXJXJXJX4 1 1 J oXOXL *.*.O.,.%.O.o.O.P ].:XOXD D 2 JXJXJXJXJXJXJXJXJXJXJXJXJXJXJXJXJXJXJX",
"JXJXJXJXJXJXJXJXJXJXJXJXJXJXJXJX[ c q X.+.%.Y =X=XU c.c.=.=.-.=.*.*.Y &XrX=Xc.c.O.| e V JXJXJXJXJXJXJXJXJXJXJXJXJXJXJXJX",
"JXJXJXJXJXJXJXJXJXJXJXJXJXJX) _ n t X.;.%.+.u.G.G.Y.$X=XqX@X@X@X@X@X&XU.P.F.%.%.O.;...r 8 8 JXJXJXJXJXJXJXJXJXJXJXJXJXJX",
"JXJXJXJXJXJXJXJXJXJXJXJXJX) n n u X.4.c.m b.G.K.K.U.eXrX4X4X5X4X3X3X=XG.L.J.i.i.P O.;...e e 7 JXJXJXJXJXJXJXJXJXJXJXJXJX",
"JXJXJXJXJXJXJXJXJXJXJXJXJXn p u X.4.:.I U U G.K.K.U.eXrX4X7X7X4X6X6X;XP.L.K.^ ^ U *.>.>.+...w E JXJXJXJXJXJXJXJXJXJXJXJX",
"JXJXJXJXJXJXJXJXJXJX] 4 t X.1.1.3.>.P '.{.{.n.G.P.Y.eXeX4X6X9X7X0X0X;XU.P.G./ / '.I *.:.8.8.1.} w W JXJXJXJXJXJXJXJXJXJX",
"JXJXJXJXJXJXJXJXJXJX8 0 ..1.8.8.<.=.I _.{.`.&X] tX;XwXwX7X6X9X7X6X0XeX-XY.*X{.{.|.'.P O.3.3.8.>.y w ! ! JXJXJXJXJXJXJXJX",
"JXJXJXJXJXJXJXJX) ) . y :.1.3.2.,.P +XXXXXXX>X2X7X6X6X9X6X6X6X9X9X9X9X9X4X<X:X:XoX X].c.4.4.2.3.O.r 4 9 tXJXJXJXJXJXJXJX",
"JXJXJXJXJXJXJX_ 7 7 ( gXlXV.M.M.b.I  XXX:XoX,X2X4X7X9X9X9X9X9X9X9X9X8X5X7X2X:X:XXX X].Y v.v.M.lXhXuX! Q R ' JXJXJXJXJXJX",
"JXJXJXJXJXJXJXE _ ) nXSXDXBXkXkXdX=X.X.XoXoX,X1X3X5X6X6X8X9X9X9X9X9X6X3X2X<X:X:X X X#X-XsXsXkXBXSXVXfXfX! T JXJXJXJXJXJX",
"JXJXJXJXJXJXJX7 uXuXHXFXFXHXDXSXnX-X|._.XXXX:X,X1X2X5X5X5X5X5X5X5X5X5X2X,X>XoXoX X|.}.dXSXSXDXGXFXGXnXMX_ 6 JXJXJXJXJXJX",
"JXJXJXJXJXJXJX7 iXiXFXFXFXGXGXGXSXdX).).XX XXX:X,X1X1X1X1X3X4X2X1X1X2X<X,XoX XXX_.J %XgXGXGXGXFXFXFXmXmX` 5 JXJXJXJXJXJX",
"JXJXJXJXJXJXJXT ` ` SXGXDXmXmXmXhX_ # S  X XXXXX X XXXXX:X,X,X:XoXoX X X X XXXoX).A 5 tXmXMXMXSXGXGXhXhX/ G JXJXJXJXJXJX",
"JXJXJXJXJXJXJX! T T *XnXSXnXtXiX/ 3   S  X XXXXX X|.)._.J H H H J J _.|. XXXoXoX).A # 7 ` ` fXmXmXfX( ( T _ JXJXJXJXJXJX",
"JXJXJXJXJXJXJXpXT T , _ iXtXQ Q 6 +   J  X XXXXX|.).S S D 6 6 5 1 F S ).|.oX:XoX_.A O + 3 3 ! fXuXQ 7 7 ( JXJXJXJXJXJXJX",
"JXJXJXJXJXJXJXJXJXJXQ 6 7 6 T T Q 7 O H  X XXX|.).A 1 1 Q JXJXJXJXJX< H ). X:XoX_.A , 8 R R 7 G 9 T _ _ JXJXJXJXJXJXJXJX",
"JXJXJXJXJXJXJXJXJXJXJXJXJXJXJXJXJX! O H oXoXXX|.H < + + JXJXJXJXJXJXO < ). X:X:X_.A 5 ( JXJXJXJXJXJXJXJXJXJXJXJXJXJXJXJX",
"JXJXJXJXJXJXJXJXJXJXJXJXJXJXJXJXJXG H .X,X,X>X XJ < + + JXJXJXJXJXJXO A _.:X,X,X:X).K ~ JXJXJXJXJXJXJXJXJXJXJXJXJXJXJXJX",
"JXJXJXJXJXJXJXJXJXJXJXJXJXJXJXJXT D .X,X,X,X,XOX).< + + JXJXJXJXJXJXO A _.>X,X,XqX:X`.F Q Q JXJXJXJXJXJXJXJXJXJXJXJXJXJX",
"JXJXJXJXJXJXJXJXJXJXJXJXJXJXtX] 5 A {.[.[.[.[.`._.H , 1 JXJXJXJXJXJX< ). X`.{.[.[.[.K < 3 3 pXJXJXJXJXJXJXJXJXJXJXJXJXJX",
"JXJXJXJXJXJXJXJXJXJXJXJXJX! > 3 - f l z f f d n F 1 , , JXJXJXJXJXJX, F 2 a d d f l j a & & 4 uXJXJXJXJXJXJXJXJXJXJXJXJX",
"JXJXJXJXJXJXJXJXJXJXJXJXJX8 * * j l l j d d d d s & @ + JXJXJXJXJXJXX ; h a a d f j l @.f j $ _ JXJXJXJXJXJXJXJXJXJXJXJX",
"JXJXJXJXJXJXJXJXJXJXJXJXJX8 a d @.q.z j d d d f j a : - JXJXJXJXJXJX& d k a a a f j @.q.@.@.% _ JXJXJXJXJXJXJXJXJXJXJXJX",
"JXJXJXJXJXJXJXJXJXJXJXJXJXyXW V h l e.e.q.q.l f g { JXJXJXJXJXJXJXJXJXE a j #.#.e.e.q.z g g ! JXJXJXJXJXJXJXJXJXJXJXJXJX",
"JXJXJXJXJXJXJXJXJXJXJXJXJXJX] ] b h @.0.l l j g W aXJXJXJXJXJXJXJXJXJXm.c d z z @.#.z s E E pXJXJXJXJXJXJXJXJXJXJXJXJXJX",
"JXJXJXJXJXJXJXJXJXJXJXJXJXJXJXJXtXE $ $ X X X W pXJXJXJXJXJXJXJXJXJXJXJXaX- X X $ o 3 ! fXfXJXJXJXJXJXJXJXJXJXJXJXJXJXJX",
"JXJXJXJXJXJXJXJXJXJXJXJXJXJXJXJXJXpX' ' ] ' ' JXJXJXJXJXJXJXJXJXJXJXJXJXJXpXuXyXY.*XaXhXJXJXJXJXJXJXJXJXJXJXJXJXJXJXJXJX",
"JXJXJXJXJXJXJXJXJXJXJXJXJXJXJXJXJXJXJXJXJXJXJXJXJXJXJXJXJXJXJXJXJXJXJXJXJXJXJXJXJXJXJXJXJXJXJXJXJXJXJXJXJXJXJXJXJXJXJXJX",
"JXJXJXJXJXJXJXJXJXJXJXJXJXJXJXJXJXJXJXJXJXJXJXJXJXJXJXJXJXJXJXJXJXJXJXJXJXJXJXJXJXJXJXJXJXJXJXJXJXJXJXJXJXJXJXJXJXJXJXJX"
};
