/* XPM */
static char *result[] = {
/* columns rows colors chars-per-pixel */
"60 60 247 2 ",
"   c #060302",
".  c #1C0A02",
"X  c #140703",
"o  c #0B0913",
"O  c #191416",
"+  c #1E0916",
"@  c #250C02",
"#  c #260B03",
"$  c #390804",
"%  c #25120C",
"&  c #2A1204",
"*  c #331501",
"=  c #3C1704",
"-  c #271A17",
";  c #371817",
":  c #300B19",
">  c #35241B",
",  c #38231B",
"<  c #2B221F",
"1  c #0E0C2D",
"2  c #090939",
"3  c #181937",
"4  c #16162B",
"5  c #281536",
"6  c #282628",
"7  c #372A29",
"8  c #2A2B35",
"9  c #302E31",
"0  c #343233",
"q  c #3B3B3C",
"w  c #3B3736",
"e  c #490B09",
"r  c #580B07",
"t  c #431C02",
"y  c #4D1508",
"u  c #511A01",
"i  c #471B15",
"p  c #4D0314",
"a  c #640908",
"s  c #770A08",
"d  c #770417",
"f  c #650F14",
"g  c #4C2204",
"h  c #4A240A",
"j  c #522503",
"k  c #5B2601",
"l  c #5B2905",
"z  c #46291B",
"x  c #553819",
"c  c #4F321F",
"v  c #642A02",
"b  c #692C02",
"n  c #6C290A",
"m  c #712F02",
"M  c #773304",
"N  c #663F14",
"B  c #452B29",
"V  c #443C36",
"C  c #46362A",
"Z  c #57052E",
"A  c #7A4819",
"S  c #724115",
"D  c #4A403C",
"F  c #51422F",
"G  c #624123",
"H  c #090943",
"J  c #040653",
"K  c #0D114B",
"L  c #322D4A",
"P  c #050866",
"I  c #030879",
"U  c #1C1974",
"Y  c #11156D",
"T  c #2A2663",
"R  c #510A4F",
"E  c #480B68",
"W  c #5A0E6D",
"Q  c #681065",
"!  c #27424B",
"~  c #454545",
"^  c #4C4B4A",
"/  c #4F4643",
"(  c #524A47",
")  c #545455",
"_  c #5A595A",
"`  c #494D53",
"'  c #665D53",
"]  c #676767",
"[  c #6D6F71",
"{  c #727373",
"}  c #7A7B7C",
"|  c #787977",
" . c #6E7070",
".. c #5E6571",
"X. c #990806",
"o. c #870519",
"O. c #891715",
"+. c #910610",
"@. c #A50905",
"#. c #B90A06",
"$. c #A70516",
"%. c #B90711",
"&. c #B61B17",
"*. c #863904",
"=. c #963C06",
"-. c #8D2909",
";. c #960324",
":. c #8D1232",
">. c #B81431",
",. c #A30D33",
"<. c #B42F2B",
"1. c #AF3711",
"2. c #C30C04",
"3. c #C40909",
"4. c #C90B04",
"5. c #D50C04",
"6. c #DC0E03",
"7. c #D81509",
"8. c #C21A0E",
"9. c #E51302",
"0. c #EB1402",
"q. c #EE1804",
"w. c #FE1500",
"e. c #F31A03",
"r. c #FC1D02",
"t. c #F51502",
"y. c #FF2004",
"u. c #FD240F",
"i. c #FA2815",
"p. c #D23626",
"a. c #D3350D",
"s. c #9A4305",
"d. c #8D531B",
"f. c #9B5819",
"g. c #8C470D",
"h. c #A55B1A",
"j. c #B05915",
"k. c #B14D08",
"l. c #BA6518",
"z. c #8F6630",
"x. c #BA762D",
"c. c #A77439",
"v. c #AC7431",
"b. c #D75616",
"n. c #E25A13",
"m. c #D47017",
"M. c #F17E1D",
"N. c #E66F15",
"B. c #CC4E30",
"V. c #CE7928",
"C. c #F94E3C",
"Z. c #A53F5F",
"A. c #8A1554",
"S. c #985F64",
"D. c #93765F",
"F. c #F75E4C",
"G. c #F26756",
"H. c #F57D6C",
"J. c #CF8D3D",
"K. c #FA952D",
"L. c #EC8B2E",
"P. c #C4B830",
"I. c #DDCC21",
"U. c #B78957",
"Y. c #B48C51",
"T. c #8D807F",
"R. c #BA9560",
"E. c #D59A4D",
"W. c #C78E45",
"Q. c #E79C41",
"!. c #FBAC49",
"~. c #E8A755",
"^. c #FDB954",
"/. c #F2A84C",
"(. c #D7B173",
"). c #E8B975",
"_. c #F1B762",
"`. c #E69164",
"'. c #FDC66A",
"]. c #F7C672",
"[. c #FED27D",
"{. c #030A87",
"}. c #091097",
"|. c #2F1088",
" X c #2B2994",
".X c #0512A9",
"XX c #1714AA",
"oX c #0613B3",
"OX c #0816B9",
"+X c #1617B1",
"@X c #040EA4",
"#X c #321AAA",
"$X c #3332A5",
"%X c #541991",
"&X c #4D1489",
"*X c #5D3A9B",
"=X c #401BA4",
"-X c #576D89",
";X c #717E8F",
":X c #5455B7",
">X c #5154B3",
",X c #5F5EA8",
"<X c #0918C9",
"1X c #191CC8",
"2X c #081CD7",
"3X c #1B1DD4",
"4X c #1525DC",
"5X c #2A3AD5",
"6X c #061DE6",
"7X c #031FF2",
"8X c #131EE2",
"9X c #0A22EB",
"0X c #0A20E6",
"qX c #1932EC",
"wX c #0B29FB",
"eX c #172EF2",
"rX c #1429EB",
"tX c #2137ED",
"yX c #4652C9",
"uX c #6371CD",
"iX c #877884",
"pX c #858686",
"aX c #939495",
"sX c #A8AEB0",
"dX c #9881AA",
"fX c #D4AF92",
"gX c #E0A79E",
"hX c #FBD789",
"jX c #F4D189",
"kX c #FCE39B",
"lX c #DDCDBE",
"zX c #FBC5B5",
"xX c #EAD2B4",
"cX c #FEEAA8",
"vX c #FEEEB8",
"bX c #98A7DA",
"nX c #97A4D2",
"mX c #CDD2D1",
"MX c #E2D9D1",
"NX c #F4ECCE",
"BX c #E8ECE8",
"VX c #FAF9EC",
"CX c #FEFFFF",
"ZX c #FCFBF4",
"AX c #EDF2F2",
"SX c #DDE4E9",
"DX c None",
/* pixels */
"DXDXDXDXDXDXDXDXDXDXDXDXDXDXDXDXDXDXDXDXDXDXDXDXDXDXDXDXDXDXDXDXDXDXDXDXDXDXDXDXDXDXDXDXDXDXDXDXDXDXDXDXDXDXDXDXDXDXDXDX",
"DXDXDXDXDXDXDXDXDXDXDXDXDXDXDXDXDXDXDXDXDXDXDXDXDXDXDXDXDXDXDXDXDXDXDXDXDXDXDXDXDXDXDXDXDXDXDXDXDXDXDXDXDXDXDXDXDXDXDXDX",
"DXDXDXDXDXDXDXDXDXDXDXDXDXDXDXDXDXDXDXDXDXDXDXDXDXDXDXDXDXDXDXDXDXDXDXDXDXDXDXDXDXDXDXDXDXDXDXDXDXDXDXDXDXDXDXDXDXDXDXDX",
"DXDXDXDXDXDXDXDXDXDXDXDXDXDXDXDXDXDXDXDXDXDXDXDXDXDXDXDXDXDXDXDXDXDXDXDXDXDXDXDXDXDXDXDXDXDXDXDXDXDXDXDXDXDXDXDXDXDXDXDX",
"DXDXDXDXDXDXDXDXDXDXDXDXDXDXDXDXDXDXDXDXDXDXDXDXDXDXDXDXDXDXDXDXDXDXDXDXDXDXDXDXDXDXDXDXDXDXDXDXDXDXDXDXDXDXDXDXDXDXDXDX",
"DXDXDXDXDXDXDXDXDXDXDXDXDXDXDXDXDXDXDXDXDXDXDXDXDXDXDXDXDX{ { ( ( / / ( ) ] DXDXDXDXDXDXDXDXDXDXDXDXDXDXDXDXDXDXDXDXDXDX",
"DXDXDXDXDXDXDXDXDXDXDXDXDXDXDXDXDXDXDXDXDXDXDXDXDXDXDXDX_ B B e u r r r r i _ DXDXDXDXDXDXDXDXDXDXDXDXDXDXDXDXDXDXDXDXDX",
"DXDXDXDXDXDXDXDXDXDXDXDXDXDXDXDXDXDXDXDXDXDXDXDXDX} ( B ; a r #.#.2.2.8.#.s < ..DXDXDXDXDXDXDXDXDXDXDXDXDXDXDXDXDXDXDXDX",
"DXDXDXDXDXDXDXDXDXDXDXDXDXDXDXDXDXDXDXDXDXDXDX[ 7 y X.4.9.e.e.r.y.y.y.r.u.F.D.L L DXDXDXDXDXDXDXDXDXDXDXDXDXDXDXDXDXDXDX",
"DXDXDXDXDXDXDXDXDXDXDXDXDXDXDXDXDXDXDXDXDXDX] 7 f @.6.r.r.y.y.y.y.y.r.w.i.H.MX[ 0  .DXDXDXDXDXDXDXDXDXDXDXDXDXDXDXDXDXDX",
"DXDXDXDXDXDXDXDXDXDXDXDXDXDXDXDXDXDXDXDXDX{ 7 r @.9.e.y.y.y.y.y.y.y.r.r.i.`.BXiX6 q DXDXDXDXDXDXDXDXDXDXDXDXDXDXDXDXDXDX",
"DXDXDXDXDXDXDXDXDXDXDXDXDXDXDXDXDXDXDXDX{ 0 y X.9.r.y.y.y.y.y.y.y.r.r.w.i.G.MXiX> - ^ DXDXDXDXDXDXDXDXDXDXDXDXDXDXDXDXDX",
"DXDXDXDXDXDXDXDXDXDXDXDXDXDXDXDXDXDXV 7 ; d 4.e.y.y.y.y.y.y.y.y.y.e.7.#.%.>.B.p.8.@.s z ( DXDXDXDXDXDXDXDXDXDXDXDXDXDXDX",
"DXDXDXDXDXDXDXDXDXDXDXDXDXDXDXDXD i e a s %.e.y.y.y.y.y.y.y.y.y.y.5.X.a f o.6.r.y.e.2.s e D DXDXDXDXDXDXDXDXDXDXDXDXDXDX",
"DXDXDXDXDXDXDXDXDXDXDXDXDXDXDX0 e X.3.5.7.e.y.y.y.y.y.y.y.y.y.y.0.@.e X . a 9.r.y.y.e.4.X.; } DXDXDXDXDXDXDXDXDXDXDXDXDX",
"DXDXDXDXDXDXDXDXDXDXDXDXDXDX& X.9.t.y.y.y.y.y.y.y.r.t.e.9.5.5.@.s -.k.l.f.f.n.p.O.e - > ) DXDXDXDXDXDXDXDXDXDXDXDXDXDXDX",
"DXDXDXDXDXDXDXDXDXDXDXDXDXDX# #.e.y.y.y.y.y.y.r.e.q.6.5.%.$.$.@.-.l.Q.).gX(.L.=.i 7 _ pXDXDXDXDXDXDXDXDXDXDXDXDXDXDXDXDX",
"DXDXDXDXDXDXDXDXDXDXDXDXDXDX# 3.e.y.y.y.y.r.e.q.9.6.2.$.+.O.O.&.m.K.jXxXlXfX/.A > _ DXDXDXDXDXDXDXDXDXDXDXDXDXDXDXDXDXDX",
"DXDXDXDXDXDXDXDXDXDXDXDXDXDX@ X.9.e.e.q.9.7.#.%.@.X.s r y g.=.K.[.vXNXsX) x E.z.C { DXDXDXDXDXDXDXDXDXDXDXDXDXDXDXDXDXDX",
"DXDXDXDXDXDXDXDXDXDXDXDXDXDX. o.#.5.5.5.2.$.$.o.s r e $ t f.f.^.hXNXBXsXD g E.J.S D ) ) ] aXDXDXDXDXDXDXDXDXDXDXDXDXDXDX",
"DXDXDXDXDXDXDXDXDXDXDXDXDXDX- p o.$.#.#.X.d d O.S S h t h d.d.~.].NXVXsXq h E.~.c.' ) ` q ~ aXDXDXDXDXDXDXDXDXDXDXDXDXDX",
"DXDXDXDXDXDXDXDXDXDXDXDXDXDXDX6 e d ;.o.f y v h.J.V.f.b k M m V.(.vXBXsX^ c ~.hXkXNXMXxXR.> q aXDXDXDXDXDXDXDXDXDXDXDXDX",
"DXDXDXDXDXDXDXDXDXDXDXDXDXDXDXDX_ - # $ $ j Y.]./.K.N.k.m u u d.(.jXjX).(.(.jXkXcXvXvXcXkX).z.> DXDXDXDXDXDXDXDXDXDXDXDX",
"DXDXDXDXDXDXDXDXDXDXDXDXDXDXDXDXDX6 X # = l R.jX].!.L.b.*.A M Y.jXjXE.c.D.R._.hXcXcXkXhXhX'.z.- DXDXDXDXDXDXDXDXDXDXDXDX",
"DXDXDXDXDXDXDXDXDXDXDXDXDXDXDXDXDX^ O @ * j x.].hX'.!.m.h.x.x.].hX].c.x > x L._.hXkXhX[.^.J.d.7 DXDXDXDXDXDXDXDXDXDXDXDX",
"DXDXDXDXDXDXDXDXDXDXDXDXDXDXDXDXDXDXDX- X g M k.m.L.^.^.'.'.'.'.[.W.c     X v h.x.W.E.J.f.z q DXDXDXDXDXDXDXDXDXDXDXDXDX",
"DXDXDXDXDXDXDXDXDXDXDXDXDXDXDXDXDXDXDX0 . j b l b s.N.K.!.!.^.'.].W.G .     X & * ; ; ; 7 ) DXDXDXDXDXDXDXDXDXDXDXDXDXDX",
"DXDXDXDXDXDXDXDXDXDXDXDXDXDXDXDXDXDXDX7 g l k t = n 1.b.n.M.L.!.^.Q.x.g.k = .     O 9 )  .DXDXDXDXDXDXDXDXDXDXDXDXDXDXDX",
"DXDXDXDXDXDXDXDXDXDXDXDXDXDXDXDXDXDX> & = * @ . . : R E R :.:.a.b.B.h.g.M g & q DXDXDXDXDXDXDXDXDXDXDXDXDXDXDXDXDXDXDXDX",
"DXDXDXDXDXDXDXDXDXDXDXDXDXDXDXDXDXDXDXC 7 7 < O   1 Y XXXXE E :.,.:.n = & % - DXDXDXDXDXDXDXDXDXDXDXDXDXDXDXDXDXDXDXDXDX",
"DXDXDXDXDXDXDXDXDXDXDXDXDXDXDXDXDXDXDXDXDXDXDXDXO H @X6X6XXXXX|.&XE Z $ X O ^ DXDXDXDXDXDXDXDXDXDXDXDXDXDXDXDXDXDXDXDXDX",
"DXDXDXDXDXDXDXDXDXDXDXDXDXDXDXDXDXDXDXDXDXDXDXDX4 J oX8X3X<X<X8X2X#XQ d e 6 { DXDXDXDXDXDXDXDXDXDXDXDXDXDXDXDXDXDXDXDXDX",
"DXDXDXDXDXDXDXDXDXDXDXDXDXDXDXDXDXDXDXDXDXDXDX2 .X9X4X&X$.;.;.|.2X7XrX*X<.-.X } DXDXDXDXDXDXDXDXDXDXDXDXDXDXDXDXDXDXDXDX",
"DXDXDXDXDXDXDXDXDXDXDXDXDXDXDXDXDXDXDXDXDXDX9 H .X9X4XW %.3.3.R #X6XtX,XY.h.& ^ DXDXDXDXDXDXDXDXDXDXDXDXDXDXDXDXDXDXDXDX",
"DXDXDXDXDXDXDXDXDXDXDXDXDXDXDXDXDXDXDXDXDX_ 3 P OX2X=XA.7.9.q.;.%X8XwXyX} Y.A F | DXDXDXDXDXDXDXDXDXDXDXDXDXDXDXDXDXDXDX",
"DXDXDXDXDXDXDXDXDXDXDXDXDXDXDXDXDXDXDXDXDXo {.6X6X&X,.0.r.y.y.7.&X3XwXwXqX;XI.z.F DXDXDXDXDXDXDXDXDXDXDXDXDXDXDXDXDXDXDX",
"DXDXDXDXDXDXDXDXDXDXDXDXDXDXDXDXDXDXDXDXDXo {.7X7X%X>.t.r.y.y.7.Q 1X9XwXqX,XP.A V DXDXDXDXDXDXDXDXDXDXDXDXDXDXDXDXDXDXDX",
"DXDXDXDXDXDXDXDXDXDXDXDXDXDXDXDXDXDXDXDXDXO }.wX6X%X>.r.r.y.y.7.W +X8XeXtXyX..B w DXDXDXDXDXDXDXDXDXDXDXDXDXDXDXDXDXDXDX",
"DXDXDXDXDXDXDXDXDXDXDXDXDXDXDXDXDXDXDXDXDXo I 2X8X%X>.w.w.w.w.7.S.>X3X9X9X6X2XP 8 DXDXDXDXDXDXDXDXDXDXDXDXDXDXDXDXDXDXDX",
"DXDXDXDXDXDXDXDXDXDXDXDXDXDXDXDXDXDXDXDXDX9 K .X2X$XZ.C.F.F.F.G.fXsXuX5X9X<X{.H ` DXDXDXDXDXDXDXDXDXDXDXDXDXDXDXDXDXDXDX",
"DXDXDXDXDXDXDXDXDXDXDXDXDXDXDXDXDXDXDXDXDX .3 J <XyXiXgXzXzXzXzXMXmXnXuX4XoX2 L ;XDXDXDXDXDXDXDXDXDXDXDXDXDXDXDXDXDXDXDX",
"DXDXDXDXDXDXDXDXDXDXDXDXDXDXDXDXDXDXDXDXDXDX0 2 @XyXbXSXZXZXZXZXZXBXmXnX5X{.o ) DXDXDXDXDXDXDXDXDXDXDXDXDXDXDXDXDXDXDXDX",
"DXDXDXDXDXDXDXDXDXDXDXDXDXDXDXDXDXDXDXDXDXDXpX8 J -XmXCXCXCXCXCXCXSXbX:XU 2 w DXDXDXDXDXDXDXDXDXDXDXDXDXDXDXDXDXDXDXDXDX",
"DXDXDXDXDXDXDXDXDXDXDXDXDXDXDXDXDXDXDXDXDXDXDX) 8 ` sXAXCXCXCXCXAXbX:XU 2 6 DXDXDXDXDXDXDXDXDXDXDXDXDXDXDXDXDXDXDXDXDXDX",
"DXDXDXDXDXDXDXDXDXDXDXDXDXDXDXDXDXDXDXDXDXDXDXaX0 L ,XnXSXVXVXBXsX-X! 2 q DXDXDXDXDXDXDXDXDXDXDXDXDXDXDXDXDXDXDXDXDXDXDX",
"DXDXDXDXDXDXDXDXDXDXDXDXDXDXDXDXDXDXDXDXDXDXDXDX~ 1 J }.$X:X:X>X$XY 4 ! DXDXDXDXDXDXDXDXDXDXDXDXDXDXDXDXDXDXDXDXDXDXDXDX",
"DXDXDXDXDXDXDXDXDXDXDXDXDXDXDXDXDXDXDXDXDXDXDXDXD 1 J {.@X+X+X+XoX{.2 ^ DXDXDXDXDXDXDXDXDXDXDXDXDXDXDXDXDXDXDXDXDXDXDXDX",
"DXDXDXDXDXDXDXDXDXDXDXDXDXDXDXDXDXDXDXDXDXDXDXDX~ 1 J {.@XoXoXoXOX{.3 ^ DXDXDXDXDXDXDXDXDXDXDXDXDXDXDXDXDXDXDXDXDXDXDXDX",
"DXDXDXDXDXDXDXDXDXDXDXDXDXDXDXDXDXDXDXDXDXDXDXDX^ 1 J {.oX2X2XrXeXoXK 9 | DXDXDXDXDXDXDXDXDXDXDXDXDXDXDXDXDXDXDXDXDXDXDX",
"DXDXDXDXDXDXDXDXDXDXDXDXDXDXDXDXDXDXDXDXDXDXDXDX0 1 P oX2XOXOX X$XT 5 - q } DXDXDXDXDXDXDXDXDXDXDXDXDXDXDXDXDXDXDXDXDXDX",
"DXDXDXDXDXDXDXDXDXDXDXDXDXDXDXDXDXDXDXDXDXDXDX .< 2 P oXOXU U i h l j = % 9 } DXDXDXDXDXDXDXDXDXDXDXDXDXDXDXDXDXDXDXDXDX",
"DXDXDXDXDXDXDXDXDXDXDXDXDXDXDXDXDXDXDXDXDXDXpXV + + 5 T T B 7 y l b m n t % w DXDXDXDXDXDXDXDXDXDXDXDXDXDXDXDXDXDXDXDXDX",
"DXDXDXDXDXDXDXDXDXDXDXDXDXDXDXDXDXDXDXDXDXDX_ % j k j t t j j l l l b *.s.M X DXDXDXDXDXDXDXDXDXDXDXDXDXDXDXDXDXDXDXDXDX",
"DXDXDXDXDXDXDXDXDXDXDXDXDXDXDXDXDXDXDXDXDXDX{ ; g k v k v b b M M M *.s.s.m 6 DXDXDXDXDXDXDXDXDXDXDXDXDXDXDXDXDXDXDXDXDX",
"DXDXDXDXDXDXDXDXDXDXDXDXDXDXDXDXDXDXDXDXDXDXDX) > t v *.=.s.s.s.k.k.k.s.m z _ DXDXDXDXDXDXDXDXDXDXDXDXDXDXDXDXDXDXDXDXDX",
"DXDXDXDXDXDXDXDXDXDXDXDXDXDXDXDXDXDXDXDXDXDXDXDXDX' 6 . . X . . @ @ % 6 ] DXDXDXDXDXDXDXDXDXDXDXDXDXDXDXDXDXDXDXDXDXDXDX",
"DXDXDXDXDXDXDXDXDXDXDXDXDXDXDXDXDXDXDXDXDXDXDXDXDXDXDXDXDXDXDXDXDXDXDXDXDXDXDXDXDXDXDXDXDXDXDXDXDXDXDXDXDXDXDXDXDXDXDXDX",
"DXDXDXDXDXDXDXDXDXDXDXDXDXDXDXDXDXDXDXDXDXDXDXDXDXDXDXDXDXDXDXDXDXDXDXDXDXDXDXDXDXDXDXDXDXDXDXDXDXDXDXDXDXDXDXDXDXDXDXDX",
"DXDXDXDXDXDXDXDXDXDXDXDXDXDXDXDXDXDXDXDXDXDXDXDXDXDXDXDXDXDXDXDXDXDXDXDXDXDXDXDXDXDXDXDXDXDXDXDXDXDXDXDXDXDXDXDXDXDXDXDX",
"DXDXDXDXDXDXDXDXDXDXDXDXDXDXDXDXDXDXDXDXDXDXDXDXDXDXDXDXDXDXDXDXDXDXDXDXDXDXDXDXDXDXDXDXDXDXDXDXDXDXDXDXDXDXDXDXDXDXDXDX"
};
