/* XPM */
static char *_aa5b7ff706b4e9799b7c4195aa11a4faPoLnslIDZi5SIkG[] = {
/* columns rows colors chars-per-pixel */
"60 60 5 1 ",
"  c #33B033",
". c #2DA32D",
"X c #208E20",
"o c #0E700E",
"O c #49D549",
/* pixels */
"    .      X                        .      X                ",
"           Xo           O                  Xo           O   ",
"  O    XXXXX                      O    XXXXX                ",
"        oXXo                            oXXo                ",
"        oXXX                 .          oXXX                ",
"         o o  .               .          o o  .             ",
"               .               .               .            ",
"                .                               .           ",
"          O          O     X              O          O     X",
"                       X  XX                           X  XX",
"  O                    XXXXo      O                    XXXXo",
"                      oXXXo                           oXXXo ",
"             O        oXXXo                  O        oXXXo ",
"                       XoX                             XoX  ",
"     O                 o o           O                 o o  ",
"O        .                      O        .                  ",
"          .                               .                 ",
" .                O              .                O         ",
"  .     X              .    O     .     X              .    ",
"       XX               .              XX               .   ",
"  XX XXXo                .        XX XXXo                .  ",
"  oX oXX           O              oX oXX           O        ",
"  oXXXXo                          oXXXXo                    ",
"   oXXo         .                  oXXo         .           ",
"    oo           .                  oo           .          ",
"O          O              O     O          O              O ",
"                                                            ",
"                                                            ",
"  O        .          .           O        .          .     ",
"            .          .                    .          .    ",
"       O         O      .   O          O         O      .   ",
"   .                               .                        ",
"    .      X                        .      X                ",
"           Xo           O                  Xo           O   ",
"  O    XXXXX                      O    XXXXX                ",
"        oXXo                            oXXo                ",
"        oXXX                 .          oXXX                ",
"         o o  .               .          o o  .             ",
"               .               .               .            ",
"                .                               .           ",
"          O          O     X              O          O     X",
"                       X  XX                           X  XX",
"  O                    XXXXo      O                    XXXXo",
"                      oXXXo                           oXXXo ",
"             O        oXXXo                  O        oXXXo ",
"                       XoX                             XoX  ",
"     O                 o o           O                 o o  ",
"O        .                      O        .                  ",
"          .                               .                 ",
" .                O              .                O         ",
"  .     X              .    O     .     X              .    ",
"       XX               .              XX               .   ",
"  XX XXXo                .        XX XXXo                .  ",
"  oX oXX           O              oX oXX           O        ",
"  oXXXXo                          oXXXXo                    ",
"   oXXo         .                  oXXo         .           ",
"    oo           .                  oo           .          ",
"O          O              O     O          O              O ",
"                                                            ",
"                                                            "
};
