/* XPM */
static char *f42cd64d8a2448e7d5b7587a0ac335bbWvDprc051cMUYB2A[] = {
/* columns rows colors chars-per-pixel */
"60 60 223 2 ",
"   c #551F03",
".  c #581F03",
"X  c #4E240C",
"o  c #55230B",
"O  c #5B250A",
"+  c #5A2606",
"@  c #522611",
"#  c #5A2614",
"$  c #552A13",
"%  c #5B2C13",
"&  c #552C1B",
"*  c #5C2C1B",
"=  c #56251D",
"-  c #5C3219",
";  c #4D2412",
":  c #642D09",
">  c #6B330B",
",  c #72380E",
"<  c #632C19",
"1  c #633416",
"2  c #65341B",
"3  c #66391C",
"4  c #6B3B1A",
"5  c #6C3616",
"6  c #733B13",
"7  c #763C17",
"8  c #552C24",
"9  c #592D21",
"0  c #5B3224",
"q  c #573022",
"w  c #673C22",
"e  c #6A3B21",
"r  c #653624",
"t  c #773C28",
"y  c #7F4116",
"u  c #7D411D",
"i  c #78441C",
"p  c #764324",
"a  c #7C4323",
"s  c #7D442C",
"d  c #794728",
"f  c #6A4030",
"g  c #7F4A31",
"h  c #784633",
"j  c #814216",
"k  c #88471B",
"l  c #914E1C",
"z  c #914F15",
"x  c #8F511C",
"c  c #9B541C",
"v  c #965419",
"b  c #A2581E",
"n  c #AF721F",
"m  c #824522",
"M  c #834B25",
"N  c #8F4A23",
"B  c #83442A",
"V  c #834D2D",
"C  c #8C4D2C",
"Z  c #924D24",
"A  c #934E2B",
"S  c #984F24",
"D  c #8D5125",
"F  c #8C532B",
"G  c #885628",
"H  c #945425",
"J  c #9A5524",
"K  c #9E5C25",
"L  c #93522C",
"P  c #995529",
"I  c #945A2C",
"U  c #9B5B2D",
"Y  c #945D24",
"T  c #8D4E31",
"R  c #834F30",
"E  c #914F30",
"W  c #8D5333",
"Q  c #8E5A34",
"!  c #8E5839",
"~  c #855335",
"^  c #925631",
"/  c #955B34",
"(  c #995E33",
")  c #985F3A",
"_  c #A15D25",
"`  c #A45F2C",
"'  c #A85E2C",
"]  c #A95C24",
"[  c #A05B30",
"{  c #9E6025",
"}  c #9D632E",
"|  c #9C6135",
" . c #9C623A",
".. c #9A673C",
"X. c #A36127",
"o. c #AA6127",
"O. c #AF6E25",
"+. c #A6612C",
"@. c #A9622B",
"#. c #AC6C2A",
"$. c #A56A2E",
"%. c #B26F27",
"&. c #B26E2A",
"*. c #B4652C",
"=. c #AF7123",
"-. c #B37326",
";. c #B87421",
":. c #B4732A",
">. c #B8772D",
",. c #B6792C",
"<. c #BD7B2E",
"1. c #A46333",
"2. c #A96532",
"3. c #A66C35",
"4. c #AB6B34",
"5. c #A46639",
"6. c #A8673A",
"7. c #B26D32",
"8. c #B36E3A",
"9. c #A87537",
"0. c #B57334",
"q. c #BA7534",
"w. c #B57A34",
"e. c #BE7B33",
"r. c #B5743C",
"t. c #BB753B",
"y. c #B57A3A",
"u. c #BD7D3B",
"i. c #C47D2C",
"p. c #C97F2F",
"a. c #C87F27",
"s. c #C37D35",
"d. c #C27E39",
"f. c #A56C43",
"g. c #B06F40",
"h. c #AC7543",
"j. c #AB7643",
"k. c #BA7643",
"l. c #B57A42",
"z. c #BD7D44",
"x. c #B37B49",
"c. c #B77644",
"v. c #C17E43",
"b. c #BC8234",
"n. c #BE813C",
"m. c #B68437",
"M. c #C98024",
"N. c #C5812B",
"B. c #C8802D",
"V. c #C68327",
"C. c #C38134",
"Z. c #C4823B",
"A. c #C9843C",
"S. c #CC8A3E",
"D. c #C7883A",
"F. c #CE903E",
"G. c #BE8143",
"H. c #B8824C",
"J. c #B28150",
"K. c #C28242",
"L. c #CA8742",
"P. c #C78A40",
"I. c #CD8C43",
"U. c #C4844C",
"Y. c #CA864C",
"T. c #CE8D4B",
"R. c #C0884C",
"E. c #D28E46",
"W. c #D28F49",
"Q. c #CF9145",
"!. c #CD914B",
"~. c #D19046",
"^. c #D2914A",
"/. c #D9984F",
"(. c #C48C56",
"). c #CD8C53",
"_. c #C48552",
"`. c #D18E53",
"'. c #CE9F5F",
"]. c #D39355",
"[. c #D5955A",
"{. c #D89959",
"}. c #DCA45F",
"|. c #CA8A62",
" X c #CE9B6B",
".X c #CA9666",
"XX c #D39D6C",
"oX c #D99B6B",
"OX c #D69A75",
"+X c #DAA16C",
"@X c #DBA066",
"#X c #D6A375",
"$X c #DAA573",
"%X c #DEAA75",
"&X c #DDAB7C",
"*X c #E5A46B",
"=X c #E8A86B",
"-X c #E1AD7B",
";X c #E6AD77",
":X c #ECB379",
">X c #F9BC7A",
",X c #DBA582",
"<X c #E4B385",
"1X c #EDBB86",
"2X c #E9B68A",
"3X c #EDBA8B",
"4X c #E9B487",
"5X c #F3BD8B",
"6X c #F9BB85",
"7X c #EEBF92",
"8X c #FABF97",
"9X c #E6AD83",
"0X c #FBC289",
"qX c #F5C393",
"wX c #FAC594",
"eX c #FBC59A",
"rX c #FDC99C",
"tX c #F8C796",
"yX c #FFD19C",
"uX c #FFCEA9",
"iX c #FECDA2",
"pX c #FFD4A8",
"aX c #FFDBB3",
/* pixels */
"F F I U } | $.3.4.3.3.3.3.3.4.` { { X.$.0.u.u.u.u.u.u.z.v._.x.e & q q 3 V 8.v.G.n.P.n.n.Z.Z.G.Z.n.Z.G.K.K.v.G.G.H.J.R - ",
"z.K.G.Z.Z.d.d.Z.d.A.d.Z.d.d.d.d.Z.d.Z.Z.d.Z.n.b.s.b.b.G.Z.u.z.~ ; 0 @ R 6.c q./.:.C.C.<.<.i.i.<.<.i.i.a.i.i.e.u.l.l...% ",
"Z.Z.d.Z.Z.d.d.Z.d.d.d.d.A.d.d.v.d.d.d.d.C.C.n.C.e.e.n.y.U.d.` ~ ; & 2  .2.@.X.;X:X:.<.N.a.B.i.p.B.p.i.s.B.C.C.q.U.v.I - ",
"u.s.u.s.s.s.s.s.s.s.s.s.p.s.p.p.p.s.p.s.s.s.s.e.b.u.u.).*X&.+./ % & p 6.@.' +.+.wX0X0.:.-.&.&.#.:.%.&.>.Z.n.0.).:Xy.} w ",
",.e.u.n.q.,.:.e.i.i.i.a.i.a.a.i.p.p.i.i.i.i.N.Z.u.$.+X6Xr._ @.^ 1 $ g 5.@.@.' ] r.uXaX2X4X2X3X7X<X#X#XH.x.j..XpX|.x  .w ",
">X0X0X>X>X=X{.b.q.:.&.&.&.%.&.%.%.&.:.,.>.>.q.K.H.-XiXU.c &.@.) 1 % V 1.o.@.o.*.z ,XaXtX3X2X4X4X1XqXtXwXwXtXaXOXD 3.| w ",
"=X{.!.!.].}.=X;X-X&X#XOX#X#X#X4X4X3X5XqXeXeXrXtX0XpXXXv &.o.@.5.4 O ~ 6.@.@.@.] 8.6X XZ.0.O.O.&.:.&.:.T.{.+X;X| | X.| w ",
"w.w.w.w.w.w.m.(.%X3X3X3X3X3X2X4X9X-X#XOX X.X.XH.j.&X_._ o.] @.5.7 + / 1.o.@.@.c {.=XY.F.N.N.p.p.B.i.i.<.e.#.).1.$.o.1.3 ",
"Z.u.n.e.d.s.d.s.-.-.:.:.%.:.:.&.:.:.:.:.:.0.0.y.y.'.).' ' ' ` 1.y + | 1.@.$._ @.*XE.E.E.s.p.p.d.s.s.s.s.d.v.).+.+.@.1.w ",
"u.C.d.C.d.s.s.i.a.i.a.i.i.a.a.a.a.i.a.a.a.s.s.C.s.].U.' ' ' @.2.k + | } o.o.` 4.*XE.E.v.s.s.d.s.s.s.s.s.d.z.).@.+.1. .3 ",
"C.s.s.s.s.s.d.p.i.s.s.i.p.s.s.s.s.s.s.i.s.s.s.d.e.Y.v.' ` @.@.1.D :  .1.@.$._ r.{.E.E.p.s.s.d.s.s.s.s.s.d.d.).` +.1.1.3 ",
"s.s.s.s.s.s.s.s.s.s.s.s.s.s.s.s.s.s.s.s.s.s.C.s.t.v.8.' +.@.@.+.H :  .+.X.@._ z.[.L.E.v.v.d.p.p.s.s.s.s.d.v.).' +.+. .3 ",
"s.s.s.s.s.s.s.s.s.s.s.s.s.s.s.s.s.s.s.s.s.s.C.s.d.t.2.` ` ` @.@.P , | +.o.+.{ U.].E.E.E.E.d.p.d.s.s.s.s.s.v.`.' @.2.1.2 ",
"s.A.A.A.s.s.s.s.s.s.s.s.s.s.s.s.s.s.s.s.s.s.s.Z.d.t.@.' +.@.@.X.` 6 ( +.$.+._ _.].E.E.E.E.E.d.p.s.s.s.s.s.v.`.' ' ' 1.3 ",
"E.E.E.E.s.s.s.s.s.s.s.s.s.d.s.s.s.s.s.s.s.s.s.Z.d.t.+.1.` @.X.@.` 7 ( +.o.$._ Y.[.I.E.E.W.E.d.d.s.s.s.s.s.d.v.' +.2.[ 3 ",
"E.E.E.E.d.p.s.s.s.s.s.s.s.p.s.s.s.s.s.s.s.Z.s.d.d.t.+.` +.X.@._ ` j U @.X.o._ U.[.I.I.I.E.E.d.p.s.s.s.s.d.v.`.' +.@.5.3 ",
"E.E.E.E.s.s.s.s.s.s.s.s.s.s.s.s.s.s.s.s.p.d.d.p.v.t.+.` 2.@.X.` ` y / +.$.@.{ R.].I.Q.I.E.L.d.d.s.s.d.d.Z.u.Y.@.+.@.1.4 ",
"W.E.W.W.d.s.d.s.s.s.s.s.s.s.s.s.s.s.s.s.v.p.p.d.d.7.@.` ' ' X.@.+.y U +.X.@.K G.].Q.Q.^.E.E.s.p.s.s.d.d.S.d.L.@.@.@.| i ",
"E.W.W.d.d.s.s.s.s.s.s.s.s.s.s.s.s.s.s.A.E.E.W.d.d.q.' ' ' X.' X.` y U 2.o.@.K z.].Q.~.~.^.S.s.s.s.s.Z.E.L.d.L.o.' @.[ a ",
"E.E.W.d.s.d.s.s.s.s.s.s.s.s.s.s.s.s.s.A.E.E.E.p.d.8.' ' +.@.@._ +.y ( +.@.$.{ n.!.Q.~.^.~.I.e.s.s.A.E.E.I.d.d.o.+.@.1.M ",
"W.E.E.d.d.s.s.s.s.s.s.s.s.s.s.s.s.s.s.d.E.E.E.E.d.7.' ' +.+.X.@.+.y / +.o.$.{ z.!.Q.Q.^.~.S.s.s.Z.E.E.W.S.d.d.o.' ' 1.M ",
"E.W.E.L.s.d.d.s.s.s.s.s.s.s.s.s.s.s.p.E.E.E.E.E.d.7.+.2.' +.@.` +.y U +.X.X._ n.].I.Q.Q.E.I.s.Z.I.W.E.E.Z.Z.q.o.' @.+.C ",
"E.W.W.E.E.A.s.s.s.s.s.p.s.s.s.s.s.s.d.E.E.E.E.L.d.4.+.` ` @.X._ ` y U +.o.o.K n.!.Q.Q.Q.~.I.s.I.E.E.E.L.s.d.q.o.' o.+.F ",
"E.E.E.E.E.E.W.s.d.s.s.s.C.s.s.s.s.s.A.E.E.E.E.p.d.7.+.+.` X.@.@.` y ( @.o.$.K K.].P.Q.Q.~.E.C.W.E.E.W.L.e.d.q.o.o.' 1.F ",
"E.E.~./.E.E.E.A.s.s.s.s.C.S.~.A.s.s.E.E.E.E.s.C.u.&.@.+.' @.@._ ` y U +.o.o.K z.].I.Q.~.~.E.E.^.E.E.W.L.s.s.q.o.' o.2./ ",
"E.W.~.~.E.E.E.A.s.s.Z.A.E.E.~.E.D.E.E.E.E.s.s.s.d.7.+.+.1.' @.X.1.y ( +.o.+.` v.].T.I.E.~.E.W.W.W.E.W.L.d.s.q.o.@.' ` / ",
"E.E.E.~.E.E.E.S.p.A.E.~.E.E.E.E.E.E.E.E.s.s.s.Z.d.7.o.' X.' @.` ` y U 1.$.o._ K.].!.~.~.~.E.W.W.W.E.W.L.s.d.>.' ' o.` ( ",
"E.E.~.~.~.E.E.F.F.E.~.~.E.E.E.E.E.E.E.A.C.e.s.C.u.0.o.1.' ` @.X.` y U +.' o.` z.].T.E.E.~.~.E.W.W.E.W.L.s.s.>.o.' ' 1.) ",
"/.~.~.~.~.~.~.~.~.~.~.~.E.E.E.E.E.E.E.A.s.s.s.s.d.q.X.` +.' X.` X.j I ' o.@._ z.].T.I.~.~.~.W.W.W.E.W.L.d.d.:.' ' @.2.) ",
"E.~.~.~.~.~.~.~.~.~.~.~.~.E.E.E.E.E.E.A.s.s.C.s.d.q.o.@.1.' @.X.@.7 I 2.@.@._ r.].T.~.Q.~.E.W.^.E.W.E.L.d.s.&.o.@.' '  .",
"E.E.~.~.~.~.~.E.~.~.~.~.~.~.E.E.E.E.E.F.E.A.s.s.s.t.X.' +.' X.+.` 6 I 1.' @._ 4.].^.I.~.~.E.E.W.W.W.E.Z.Z.d.&.o.' o.1. .",
"E.E.~.~.~.~.~.~.E.~.~.E.E.E.E.E.E.E.E.E.E.E.A.d.s.u.@.' 1.+.` +.` , I +.X.@.] 2.].T.I.~.~.~.W.W.T.E.E.S.d.d.&.o.o.' @. .",
"~.~.~.~.~.~.~.~.~.~.~.~.~.~.~.~.E.E.~.E.~.E.E.p.d.d.' ' ` ' 1.1.3.> ^ 1.@.o.+.2.v.`.T.W.W.^.~.^.E.W.I.T.d.q.o.@.o.o.2. .",
"~.~.~.~.~.Q.Q.T.Q.~.Q.E.~.~.~.~.~.~.~.~.E.~.E.A.d.d.' ' 2.` ` 1.I : Q 1.@.' +.K 8.].T.W.T.T.T.W.).T.W.[.Y.t.K ] 1.@.2.) ",
"^.^.~.~.Q.E.Q.~.~.Q.~.^.~.~.~.~.~.~.E.E./.E.E.A.d.8.' ' 2.' 1.5.a + Q +.@.2.2.2.[ t.`.`.].].].[.`.).Y.k.1.P c P ` ` 1.! ",
"z q.^.^.~.Q.~.Q.Q.~.Q.E.Q.~.~.E.~.~.E.E.E.E.E.S.d.8.' ` [ ` 1. .i o ! 1.1.' ' J Z l [ 2.2.2.2.1.' [ A N Z Z N H L P ^ R ",
"l K ).E.~.Q.~.~.~.I.~.E.Q.Q.~.~.~.~.~.E.W.W.W.W.*.P [ 6.1.' f.R - X ~ f.U Z Z Z Z S S Z Z Z l N Z N N Z Z A Z Z L L V % ",
"l l `.W.T.^.T.^.!.^.^.^.^.~.^.~.W.W.E.^.W.W.W.t.J k Z A U [ [ 2 & & p ^ L Z C A A A A A A A A A A A S A A Z L L W M e & ",
"Z l c.z.v.z.K.U.Y.T.).T.W.].^.W.W.W.W.W.W.Y.8.P k N A Z A C t = q q 0 a C C A A A A A A A A A A A A A A A A L C s e * 9 ",
"Z Z Z l l l l l J P 1.2.r.k.z.v.v.v.v.8.o.l Z Z E ^ A E T t # 9 q 8 9 r V W T T T E E E E E A E E E E T E ^ W d 2 % 0 0 ",
"L L L F L L L A D C N N C N N E N N N k S A A A C T V t r < = 8 8 8 q & 0 0 f h h t t h B s s s s V g h e < X X X X X X ",
"k m m k k a k a j u m m B m m B B T B B B T B m t 5 O + . o o % & $ $ @ $ ; ; X @ = # # < < < < O O . o 4 d Q Q Q Q ! ..",
": , 6 6 6 6 6 6 6 5 5 5 > + . . # 2 $ 2 < # o . : 7 D | 6.3.3.3.3.3.#.$.} Y D x i : o @ # # # . + , L 9.n.G.u.G.G.Z.G.K.",
"x.x.x.x.x.x.x.x.x.x.x.x.j.f.f.s * * 9 - @ # p f.g.k.z.K.Z.D.b.C.b.b.b.b.b.b.b.u.k.h.5.Q M 7 B A 6.y.u.C.N.N.N.<.N.N.i.N.",
"Z.Z.G.Z.Z.Z.G.Z.K.v.G.K.G.y.z. .p @ - & 3 I k.v.d.v.d.d.s.N.N.N.V.V.N.N.b.V.N.N.C.s.Z.d.d.d.Z.d.C.N.N.B.M.M.M.M.V.N.a.a.",
"e.e.e.e.<.e.e.e.e.e.e.e.d.u.$.3.F - $ - Q k.v.q.q.d.d.d.s.>.,.,.,.,.,.:.=.#.-.:.:.:.0.:.0.:.:.:.-.-.-.;.;.;.;.;.;.-.:.:.",
"s.e.e.s.s.e.s.s.s.u.u.d.L.u._ X. .3 % Q 1.#.=Xv.w.b.e.m.w.x.9XrXiXrXrXtXqX<X&X X X X XXXXX+X+X$X+X%X%X$X%X%X%X%X;X-X%X$X",
"s.s.s.i.i.s.s.s.s.d.d.Y.].o.' +.5.7 7 6.1.c Y.6XG.w.m.w.'.pXaXeX7X7X2X2X2X7XqXtXqXqX0XqX0X6X5X5X1XqX1X1X0X3X1X1X1X3X3X0X",
"N.V.N.N.V.V.V.N.s.0.T.*X8.2.@.2.2.j D +.+.1.z oX0XH.9.<XpX1XG.0.&.:.&.&.%.:.&.-.*.*.;.%.%.%.%.%.-.-.-.=.-.=.-.-.=.%.-.-.",
"=.=.=.=.n n =.,.*.Y.6Xk.J ' @.@.@.z J 2.+.X.+.v :XrXrXpX X#.e.i.i.a.a.i.a.i.i.a.i.i.a.a.p.a.i.i.i.a.<.i.i.N.a.b.i.i.N.<.",
"9X-X-X-X-X-X-XXXoX8X|.S ' ] ] ' 1.l J 1.` +.$.v H.aXiXx.n.Z.Z.s.s.i.i.p.i.p.s.i.p.i.p.p.i.i.i.i.i.<.i.i.i.<.<.i.<.i.s.i.",
"tXtXtXtXwXwXwXrXuXOXA 2.' ' @.2.@.J _ ' +.4.K 4.yXtXH.u.C.e.s.s.s.s.s.s.s.s.p.s.s.s.s.s.s.s.s.s.s.s.s.s.s.s.s.s.i.s.s.s.",
"O.O.O.O.%.O.#.y.).k.K ' ' ' @.+.+.K ` +.3.1.1.5XwXy.u.e.e.d.s.d.d.p.s.d.s.s.s.d.p.d.d.d.d.d.d.s.d.s.d.s.s.s.d.s.s.d.s.s.",
"N.N.N.N.a.N.N.e.Z.t.' ' ' @.+.@.+.` +.1.4.J _.wXx.0.S.e.d.s.d.s.t.d.d.d.s.d.p.d.d.s.d.p.d.p.d.s.d.s.d.d.s.d.d.d.d.d.d.d.",
"i.i.i.C.C.N.e.s.d.0.@.' ' +.+.+.+.1.1.+.1.` *X).0.Z.s.d.s.C.s.s.p.d.s.s.s.s.d.d.s.s.s.s.p.d.s.s.s.s.s.s.e.s.s.s.s.C.s.d.",
"b.e.N.~.S.D.C.C.u.0.@.+.+.' +.+.@.1.+.+.` 8.=Xd.Z.e.d.Z.C.d.s.s.d.s.p.d.d.s.p.d.s.s.s.s.s.s.s.s.s.s.C.s.s.s.s.s.e.s.C.e.",
"<.C.S.~.Q.F.D.Z.Z.0.o.+.+.+.+.+.+.+.+.` ` z.`.d.d.Z.Z.A.S.L.I.S.d.p.v.p.s.C.s.s.s.s.s.C.s.s.e.s.C.C.A.D.E.E.F.s.s.s.s.s.",
"<.C.F.Q.Q.D.C.D.n.0.@.+.X.+.X.+.+.1.1.+.U z._.K.A.K.S.L.I.I.E.E.v.p.d.d.s.s.s.e.<.e.<.e.e.s.C.C.Z.A.S.E.F.I.E.s.i.s.s.s.",
"b.D.Q.~.Q.D.b.D.n.0.@.+.+.+.+.+.+.1.+.1.K v.Y.T.Q.T.E.E.~.^.~.^.v.d.p.d.A.A.A.d.C.e.e.e.e.C.D.D.S.~.E.E.~.~.~.C.C.C.C.e.",
"n.F.Q.Q.Q.D.m.D.n.0.X.} +.} } +.+.+.+.3.} (.[.].^.^.^.^.^.^.^.!.L.d.s.d.L.E.W.E.P.Z.Z.Z.D.K.I.!.^.^.^.^.^.^.!.D.D.Z.n.b."
};
