/* XPM */
static char *result[] = {
/* columns rows colors chars-per-pixel */
"60 60 255 2 ",
"   c #040200",
".  c #1B1500",
"X  c #180D0B",
"o  c #280705",
"O  c #36040C",
"+  c #2A1802",
"@  c #341904",
"#  c #3C0614",
"$  c #2D1513",
"%  c #292202",
"&  c #382707",
"*  c #392915",
"=  c #362F0B",
"-  c #181035",
";  c #300A24",
":  c #122B39",
">  c #332F2F",
",  c #48010B",
"<  c #4A051A",
"1  c #54041C",
"2  c #491513",
"3  c #452B02",
"4  c #483403",
"5  c #492817",
"6  c #483817",
"7  c #56310C",
"8  c #713911",
"9  c #560726",
"0  c #4C1823",
"q  c #561528",
"w  c #4E0A30",
"e  c #65192E",
"r  c #67073C",
"t  c #671935",
"y  c #771A3C",
"u  c #6A0E2F",
"i  c #51302C",
"p  c #6D2D34",
"a  c #584405",
"s  c #5C4C0B",
"d  c #654903",
"f  c #775702",
"g  c #65551B",
"h  c #695017",
"j  c #77690D",
"k  c #534A2C",
"l  c #6B4F2C",
"z  c #78682E",
"x  c #5F6529",
"c  c #0C1746",
"v  c #2D3453",
"b  c #0F3254",
"n  c #75194A",
"m  c #6F104C",
"M  c #4A2E4D",
"N  c #772546",
"B  c #722F51",
"V  c #4C3C61",
"C  c #2C4358",
"Z  c #304D6C",
"A  c #5A5045",
"S  c #71514E",
"D  c #706559",
"F  c #48556B",
"G  c #505573",
"H  c #705A72",
"J  c #7A6E62",
"K  c #556177",
"L  c #912136",
"P  c #8E2C23",
"I  c #914D18",
"U  c #8C740B",
"Y  c #A67911",
"T  c #8D452F",
"R  c #9B762E",
"E  c #A4752B",
"W  c #C56D23",
"Q  c #852749",
"!  c #913157",
"~  c #8D3768",
"^  c #A73567",
"/  c #AE366E",
"(  c #992347",
")  c #C13C72",
"_  c #C22252",
"`  c #B57247",
"'  c #8E4D70",
"]  c #AB426C",
"[  c #A84575",
"{  c #B84877",
"}  c #B44E77",
"|  c #8D6B6E",
" . c #AD637B",
".. c #A25C4D",
"X. c #CD4F7C",
"o. c #988C10",
"O. c #B68717",
"+. c #B89719",
"@. c #AE9310",
"#. c #B9952C",
"$. c #AB922D",
"%. c #BBA728",
"&. c #988328",
"*. c #C6911A",
"=. c #D7A91A",
"-. c #CFB113",
";. c #E6BA19",
":. c #E5AA06",
">. c #C89827",
",. c #C5962F",
"<. c #DBAB26",
"1. c #C7B429",
"2. c #D7B729",
"3. c #D4BA36",
"4. c #CAAD39",
"5. c #E4AA25",
"6. c #E5B82A",
"7. c #F2BE30",
"8. c #E69E3C",
"9. c #F7DC1A",
"0. c #EDCF12",
"q. c #FAEA1C",
"w. c #F2E713",
"e. c #D9C826",
"r. c #EAC629",
"t. c #F6C928",
"y. c #F7D729",
"u. c #E9C938",
"i. c #E7D439",
"p. c #FCD936",
"a. c #F5D631",
"s. c #FEEB2D",
"d. c #F9E528",
"f. c #FEF528",
"g. c #FDE631",
"h. c #FEEA33",
"j. c #FEEC3C",
"k. c #FDE43D",
"l. c #FFF338",
"z. c #ECE229",
"x. c #CBC71E",
"c. c #92866C",
"v. c #A78E6F",
"b. c #CEAD53",
"n. c #EAB645",
"m. c #E0AC5A",
"M. c #F0CF45",
"N. c #FBE844",
"B. c #FFF644",
"V. c #FFE858",
"C. c #FEC875",
"Z. c #285E8C",
"A. c #6C6D8B",
"S. c #476F9D",
"D. c #BF3C80",
"F. c #D33B86",
"G. c #AE5889",
"H. c #A86787",
"J. c #AD6C89",
"K. c #9C6398",
"L. c #D6488C",
"P. c #D94A92",
"I. c #CB5993",
"U. c #DA5898",
"Y. c #CC538A",
"T. c #E45B9A",
"R. c #EA5799",
"E. c #D7649B",
"W. c #CB6B97",
"Q. c #E8669C",
"!. c #E85CA3",
"~. c #D873A5",
"^. c #ED6AA4",
"/. c #EA66A4",
"(. c #F16BA5",
"). c #F668A8",
"_. c #E875A9",
"`. c #F673AB",
"'. c #F476B3",
"]. c #FF7DC0",
"[. c #608DA4",
"{. c #908A8A",
"}. c #B69A9C",
"|. c #A99590",
" X c #ADB097",
".X c #8D8FA3",
"XX c #B89CA3",
"oX c #A18FA3",
"OX c #B9A5A8",
"+X c #B1AAB0",
"@X c #96A4B1",
"#X c #CC9092",
"$X c #CDAD92",
"%X c #D28EAC",
"&X c #E898BD",
"*X c #EC86B1",
"=X c #CFB2B0",
"-X c #F0AFB4",
";X c #EEC995",
":X c #D0C9B5",
">X c #F4CDB5",
",X c #F7D5BC",
"<X c #ECCAB0",
"1X c #FBE4B5",
"2X c #8D93C6",
"3X c #B3BBC7",
"4X c #9BADC5",
"5X c #F49BCA",
"6X c #F09BC8",
"7X c #D3B4D2",
"8X c #EDA8CA",
"9X c #F8A5CB",
"0X c #FCA5D3",
"qX c #FDACD5",
"wX c #FFACD9",
"eX c #FAA8D6",
"rX c #EAB7D7",
"tX c #F3B4D4",
"yX c #FCB3D5",
"uX c #FEB5DB",
"iX c #FEBCDD",
"pX c #F5B8D8",
"aX c #ECB5CB",
"sX c #FEBDE2",
"dX c #FFBDEE",
"fX c #F7AEE7",
"gX c #CB8AD0",
"hX c #C6CED8",
"jX c #D3D6D4",
"kX c #D2CFCA",
"lX c #FEDBC5",
"zX c #F9D9C5",
"xX c #FCC0DE",
"cX c #F4C6DB",
"vX c #E7D4D7",
"bX c #FFDCD1",
"nX c #E9CCCC",
"mX c #DBE1DD",
"MX c #FEE3CC",
"NX c #FDE4C5",
"BX c #E9E7DC",
"VX c #FDE7D4",
"CX c #FFF5D8",
"ZX c #D1D9EA",
"AX c #FEC3E3",
"SX c #FFC5EA",
"DX c #FFCBEB",
"FX c #FCCBE7",
"GX c #FFD2F2",
"HX c #FDD2EE",
"JX c #D6E6EB",
"KX c #E8E5E7",
"LX c #FCF7F9",
"PX c #F6EEED",
"IX c None",
/* pixels */
"IXIXIXIXIXIXIXIXIXIXIXIXIXIXIXIXIXIXIXIXIXIXIXIXIXIXIXIXIXIXIXIXIXIXIXIXIXIXIXIXIXIXIXIXIXIXIXIXIXIXIXIXIXIXIXIXIXIXIXIX",
"IXIXIXIXIXIXIXIXIXIXIXIXIXIXIXIXIXIXIXIXIXIXIXIXIXIXIXIXIXIXIXIXIXIXIXIXIXIXIXIXIXIXIXIXIXIXIXIXIXIXIXIXIXIXIXIXIXIXIXIX",
"IXIXIXIXIXIXIXIXIXIXIXIXIXIXIXIXIXIXIXIXIXIXIXIXIXIXIXIXIXIXIXIXIXIXIXIXIXIXIXIXIXIXIXIXIXIXIXIXIXIXIXIXIXIXIXIXIXIXIXIX",
"IXIXIXIXIXIXIXIXIXIXIXIXIXIXIXIXIXIXIXIXIXIXIXIXIXIX|.6 IXIXIXIXIXIXIXIXIXIXIXIXIXIXIXIXIXIXIXIXIXIXIXIXIXIXIXIXIXIXIXIX",
"IXIXIXIXIXIXIXIXIXIXIXIXIXIXIXIXIXIXIXIXIXkX|.IXIXz 7 *.3 vXCXLXJ 4 i IXIXIXIXIXIXIXIXIXIXIXIXIXIXIXIXIXIXIXIXIXIXIXIXIX",
"IXIXIXIXIXIXIXIXIXIXIXIXIXIXIXIXIXIXIXIXIXx I 7 P W :.n.f.I 7 f >.U v.BXIXIXIXIXIXIXIXIXIXIXIXIXIXIXIXIXIXIXIXIXIXIXIXIX",
"IXIXIXIXIXIXIXIXIXIXIXIXIXIXIXIXIXIXIXIXIXOXU d.M.( `.F.P w.z.r.$.; - IXIXIXIXIXIXIXIXIXIXIXIXIXIXIXIXIXIXIXIXIXIXIXIXIX",
"IXIXIXIXIXIXIXIXIXIXIXIXIXIXIXIXIXIXIXIX[.A.a O.E ( X.I._ 8.*.:.- [.S.K IXIXIXIXIXIXIXIXIXIXIXIXIXIXIXIXIXIXIXIXIXIXIXIX",
"IXIXIXIXIXIXIXIXIXIXIXIXIXIXIXIXIXIXIXIX.X2X. o.p.I Y.` ` o.f s * s k A.IXIXIXIXIXIXIXIXIXIXIXIXIXIXIXIXIXIXIXIXIXIXIXIX",
"IXIXIXIXIXIXIXIXIXIXIXIXIXIXIXIXIXIXIXD + a %.1.%.I % s 2.j.B.j.B.s.i.&.5 % k IXIXIXIXIXIXIXIXIXIXIXIXIXIXIXIXIXIXIXIXIX",
"IXIXIXIXIXIXIXIXIXIXIXIXIXIXIXIXIX:X% 3.j.w.g.g.l.d.l.q.s.N.j.y.g.s.h.d.j.N.%.3 c.IXIXIXIXIXIXIXIXIXIXIXIXIXIXIXIXIXIXIX",
"IXIXIXIXIXIXIXIXIXIXIXIXIXIXIXIXBX6 i.d.g.g.g.g.s.h.s.g.g.s.h.h.h.d.h.g.s.z.j.B.s * IXIXIXIXIXIXIXIXIXIXIXIXIXIXIXIXIXIX",
"IXIXIXIXIXIXIXIXIXIXIX XIXIX:Xc.+ e.k.y.g.h.g.g.s.g.g.g.g.d.g.g.y.g.g.g.h.a.l.g.h.@.% KXIXIXIXIXIXIXIXIXIXIXIXIXIXIXIXIX",
"IXIXIXIXIXIXIXIXIXIXIX= g h o.-.f.N.d.d.g.h.g.g.g.g.g.g.g.s.g.p.r.g.g.h.g.N.f.g.d.M.B.j . + % * = J IXIXIXIXIXIXIXIXIXIX",
"IXIXIXIXIXIXIXIXIXIXIX* o.q.p.N.s.h.j.h.g.d.g.g.g.h.g.g.g.k.t.7.r.g.h.g.s.g.g.g.g.g.a.y.y.9.y.q.& kXIXIXIXIXIXIXIXIXIXIX",
"IXIXIXIXIXIXIXIXIXIXIXCX6 $.B.q.s.d.e.M.s.g.g.g.s.g.g.k.y.t.t.M.%.g.g.g.g.g.g.g.p.a.t.t.0.y.p.3 & IXIXIXIXIXIXIXIXIXIXIX",
"IXIXIXIXIXIXIXIXIXIXIX= = 4 -.d.s.k.q.a f.k.g.y.g.0.p.t.7.0.8.f s g.p.w.V.y.a.y.y.p.p.5.M.h 6 * = IXIXIXIXIXIXIXIXIXIXIX",
"IXIXIXIXIXIXIXIXIXIXIX|.a s.p.k.s.d.r.@.7 @.a.=.7.=.;.N.f oX<XnXa @.l.y.y.r.t.a.7.;.5.;.5.5.i.3 |.IXIXIXIXIXIXIXIXIXIXIX",
"IXIXIXIXIXIXIXIXIXIXIXIXX e.y.k.y.y.6.f 1X|.7 @.7.+.l 8 ;X>X>X,XMX* r.a.t.<.r.0.7.6.7.=.5.5.R + IXIXIXIXIXIXIXIXIXIXIXIX",
"IXIXIXIXIXIXIXIXIXIXIXIXIXi 3 4.:.@.#.O v.}.MXVX<XVX<XS {.nXMXMX,XBX..j -.U & * 4.:.7.5.%.h .XIXIXIXIXIXIXIXIXIXIXIXIXIX",
"IXIXIXIXIXIXIXIXIXIXIXIXIXIXIXKX+ 1.f.O VX  J MX,XMXMXMX  * nXNX>X,X$Xo.z.%.4 v.,X4 h U + kXIXIXIXIXIXIXIXIXIXIXIXIXIXIX",
"IXIXIXIXIXIXIXIXIXIXIXIXIXIXIXIXk U k.o zX  c.VX<X,XlXVX  i <XVX>X>X<X@.y.1.6 NXvXU V.u.% $XIXIXIXIXIXIXIXIXIXIXIXIXIXIX",
"IXIXIXIXIXIXIXIXIXIXIXIXIX* @ & o.y.l.O CXNXzXzXMXzXMXMXVXVXNX,X,X1X5 j.z.$.: - v l.p.p.= 6 CXIX=Xk IXIXIXIXIXIXIXIXIXIX",
"IXIXIXIXIXIXIXIXIXIXIXIXIXD j e.r.y.p.d $X,XVX,XlX=X>XlX,XMXlX,Xv.U k.7.p.@ {.JXb r.a.r.g.3.s a g x IXIXIXIXIXIXIXIXIXIX",
"IXIXIXIXIXIXIXIXIXIXIXIXIXIXD k $ & y.9.@ c.MXMXp T t bXzXNX>XNX#X6 x.s A x S.[.c w.r.6.7.2.<.i.& :XIXIXIXIXIXIXIXIXIXIX",
"IXIXIXIXIXIXIXIXIXIXIXIXIXIXIXIXA U 6.9.9.,.2 @ =XCXVXbX$XT 5 0 t 7.g.4.S - > k n.7.r.<.=.i.+.4 = LXIXIXIXIXIXIXIXIXIXIX",
"IXIXIXIXIXIXIXIXIXIXIXIXIXIXIXIXk E 7 w G.J.m < p X - 6 2 ' H.W.*X;  .-X8X%XoX; ..2.<.-.n.R l o.6 IXIXIXIXIXIXIXIXIXIXIX",
"IXIXIXIXIXIXIXIXIXIXIXIXIXIXIXIXp q pXSXaX,  .H A F $.i C.pXtXaX< AXiXiXwXwXwX0X%X# n.-.=.+.-.a + IXIXIXIXIXIXIXIXIXIXIX",
"IXIXIXIXIXIXIXIXIXIXIXIXIXIXIXvXq qX9X9X1 8Xv F LXZ > i.b.qXyX, HXiXiXiXyXwX5X0X5XW.8 <.=.O.4.& IXIXIXIXIXIXIXIXIXIXIXIX",
"IXIXIXIXIXIXIXIXIXIXIXIXIXIXvX0  .5X8X~. ..XM F Z.S.- i.m.0X6Xt iXiXiXiXiXyX0X5X0X0X< <.O.*.e.& IXIXIXIXIXIXIXIXIXIXIXIX",
"IXIXIXIXIXIXIXIXIXIXIXIXIXIXIXq 6X5X0X~.[ | H C  X[.R j C.uX8Xe FXiXxXtXDX5XdX0X&X9X, >.Y @.b.% IXIXIXIXIXIXIXIXIXIXIXIX",
"IXIXIXIXIXIXIXIXIXIXIXIXIXIXHXi _.%X-X%X1 ;X* &.;XC.5 rX-XqXeXe tXiXyXuXwXeX0X0X*X .P *.O.O.g {.IXIXIXIXIXIXIXIXIXIXIXIX",
"IXIXIXIXIXIXIXIXIXIXIXIXIXIXIXIXo J.p CX$XgXuXfXsXfXuXfX6X5X0XsX< qXsXB S q i < #Xe >.E 1.%.X IXIXIXIXIXIXIXIXIXIXIXIXIX",
"IXIXIXIXIXIXIXIXIXIXIXIXIXIXIXIXZXM oX0 S ^ B rX8XfXqXG.n m Q / E.G.1 q VXlX;X}.` *.O.O.d & :XIXIXIXIXIXIXIXIXIXIXIXIXIX",
"IXIXIXIXIXIXIXIXIXIXIXIXIXIXIXIXC oX3Xr _.).!.B n Q _.`.^.(./.).Q._.E.: A.b c 3XA.z E =.o :XIXIXIXIXIXIXIXIXIXIXIXIXIXIX",
"IXIXIXIXIXIXIXIXIXIXIXIXIXIXIXkXA.B D.F.).).n w GX9 *X(.^././.`.)._.^.b LXPXkXmX2XY Y u.% = IXIXIXIXIXIXIXIXIXIXIXIXIXIX",
"IXIXIXIXIXIXIXIXIXIXIXIXIXIXZ c m ).!.I.`.9 sXDXdXSX9 './.Y.D.(.^._.).M 7XJXvXjXhXr T Y e.4.h 6 4 | IXIXIXIXIXIXIXIXIXIX",
"IXIXIXIXIXIXIXIXIXIXIXIXK v J.w ~ L.].^ B SXAXiXsXDXrXG.! Q./.'.F./ ^ K.C LXKXjXZXv n P #.#.3.@ {.IXIXIXIXIXIXIXIXIXIXIX",
"IXIXIXIXIXIXIXIXIXIXIX: ZX' /.U.I.[ B FXdXsXiXiXsXiXiXiXfX~ r I.).U.U.).V 4XKXPXkXG K.P.m w S BXIXIXIXIXIXIXIXIXIXIXIXIX",
"IXIXIXIXIXIXIXIXIXIXv 4XhXm ~.' B SXtXiXiXsXxXiXuXsXiXiXpXpXrXSXG.r / '.].v S.KXhXPXF F '.I.+XIXIXIXIXIXIXIXIXIXIXIXIXIX",
"IXIXIXIXIXIXIXIXIXIX: jXKXw K.GXiXAXtXSXxXiXiXiXiXiXiXiXiXSXxXtXSXiXGXrX%X' v PXhXjXvXS.n t ' IXIXIXIXIXIXIXIXIXIXIXIXIX",
"IXIXIXIXIXIXIXIXIXIX+XZ S m SXpXyX8X%XuXiXiXiXiXiXiXiXiXiXxXcX} iXiXuXiXpX7Xb FXJXkX+XhXF FXq | IXIXIXIXIXIXIXIXIXIXIXIX",
"IXIXIXIXIXIXIXIXIXIXIXK # %XAXtXSX} DXpXiXiXiXiXiXiXiXiXiXtXSX^ AXiXiXiXsXcXA.ZXc hXjX@XA.7X! O IXIXIXIXIXIXIXIXIXIXIXIX",
"IXIXIXIXIXIXIXIXIXIXIXi 9 FXsXiXxX/ DXpXiXiXiXiXiXiXiXiXiXxXuX&X&XiXAXiXsXaXDXC A..XhX: rXiXHXN S IXIXIXIXIXIXIXIXIXIXIX",
"IXIXIXIXIXIXIXIXIXIXIX1 6XxXiXpX~.8XuXuXiXiXiXiXiXiXiXiXiXuXAXuX^ xXiXpXsXuXpXAXdXoXC SXrXyX8X8X, IXIXIXIXIXIXIXIXIXIXIX",
"IXIXIXIXIXIXIXIXIXIX| e FXtXpXAX( AXcXxXiXiXiXiXiXiXiXiXiXxXxXiX[ SXxXuXsXiXiXiXuXsX/ FXtXrXuXpX~ O IXIXIXIXIXIXIXIXIXIX",
"IXIXIXIXIXIXIXIXIXIX0 %XyXiXAX6XU.iXAXxXiXiXiXiXiXiXiXiXiXpXcXiX6X%XxXxXtXsXpXsXuX9X5XW.uXwXuX8XAX9 KXIXIXIXIXIXIXIXIXIX",
"IXIXIXIXIXIXIXIXIXvX9 AXcXsXsX} uXiXiXAXiXiXiXiXiXiXiXxXiXuXsXxXAX] pXuXiXiXuXuXyXyX8X{ uXpXuX0XqXS B IXIXIXIXIXIXIXIXIX",
"IXIXIXIXIXIXIXIXIX| N cXiXuX_.^ xXiXAXuXiXiXiXiXiXiXiXiXiXyXsXpXAX^ AXuXyXuXyXyX0XqXwX0XY.qXwX5XyXiX# vXIXIXIXIXIXIXIXIX",
"IXIXIXIXIXIXIXIXIX< %XuXsXiX] G.iXxXpXxXiXiXiXiXiXiXiXsXsXsXAXiXiXQ.5XqXuXpXtXqXtXqX9XwX^ E.9X0X0X9XN i IXIXIXIXIXIXIXIX",
"IXIXIXIXIXIXIXIXjX< yXdXuXqX( qXFXAXxXxXiXxXiXxXAXyXuXuXuXAXAXSXAX`.E.yXfXqXqXqXqX9XwX5X~.! 5X0X0X0X6X0 IXIXIXIXIXIXIXIX",
"IXIXIXIXIXIXIX' , } E.T.U.T.Y.Q.R.L.L.Y.I.I.U.U.E.U.P.P.L.L.L.P.).Q.) Q.Q.L.L.P.P.P.T.T.Q.X.T.Q.!.U.W.X.q | IXIXIXIXIXIX",
"IXIXIXIXIXIXPX< t *XE._._.Y.I._.Q.(.^.^.).R.).).).).(.(.Q.(.(.(.^.^.! _./.(.(././.).E._.`.~.L._.(.T.^.`.u < BXIXIXIXIXIX",
"IXIXIXIXIXIX| t t L Q Q t t N y ! ! ] / X.{ { / { ] } ] [ ! ! Q y y u u y y n Q Q L Q Q e N 9 y Q Q Q Q y t | IXIXIXIXIX",
"IXIXIXIXIXIX}.OXB O 0 0 O J.0 O 1 1 1 < < 1 , , , , 1 9 < 1 1 9 9 =X=X}.XXe e 1 q 9 0 0 0 | XX}.}.OX}.OX=X}.VXIXIXIXIXIX",
"IXIXIXIXIXIXIXIXIXIXIXIXIXIXIXIXIXIXIXIXIXIXIXIXIXIXIXIXIXIXIXIXIXIXIXIXIXIXIXIXIXIXIXIXIXIXIXIXIXIXIXIXIXIXIXIXIXIXIXIX",
"IXIXIXIXIXIXIXIXIXIXIXIXIXIXIXIXIXIXIXIXIXIXIXIXIXIXIXIXIXIXIXIXIXIXIXIXIXIXIXIXIXIXIXIXIXIXIXIXIXIXIXIXIXIXIXIXIXIXIXIX",
"IXIXIXIXIXIXIXIXIXIXIXIXIXIXIXIXIXIXIXIXIXIXIXIXIXIXIXIXIXIXIXIXIXIXIXIXIXIXIXIXIXIXIXIXIXIXIXIXIXIXIXIXIXIXIXIXIXIXIXIX",
"IXIXIXIXIXIXIXIXIXIXIXIXIXIXIXIXIXIXIXIXIXIXIXIXIXIXIXIXIXIXIXIXIXIXIXIXIXIXIXIXIXIXIXIXIXIXIXIXIXIXIXIXIXIXIXIXIXIXIXIX",
"IXIXIXIXIXIXIXIXIXIXIXIXIXIXIXIXIXIXIXIXIXIXIXIXIXIXIXIXIXIXIXIXIXIXIXIXIXIXIXIXIXIXIXIXIXIXIXIXIXIXIXIXIXIXIXIXIXIXIXIX"
};
